STARTFONT 2.1
FONT -FontForge-Liberation Sans-Book-R-Normal-Sans--120-1150-75-75-P-637-ISO10646-1
SIZE 115 75 75
FONTBOUNDINGBOX 140 170 -20 -40
COMMENT "Generated by fontforge, http://fontforge.sourceforge.net"
COMMENT "Digitized data `2007 Ascender Corporation. All rights reserved."
STARTPROPERTIES 32
FOUNDRY "FontForge"
FAMILY_NAME "Liberation Sans"
WEIGHT_NAME "Book"
SLANT "R"
SETWIDTH_NAME "Normal"
ADD_STYLE_NAME "Sans"
PIXEL_SIZE 120
POINT_SIZE 1150
RESOLUTION_X 75
RESOLUTION_Y 75
SPACING "P"
AVERAGE_WIDTH 637
CHARSET_REGISTRY "ISO10646"
CHARSET_ENCODING "1"
FONTNAME_REGISTRY ""
CHARSET_COLLECTIONS "ASCII ISOLatin1Encoding ISO8859-2 ISO8859-5 ISO8859-7 ISO8859-9 ISO8859-4 Symbol ISO10646-1"
FONT_NAME "LiberationSans-Regular"
FACE_NAME "Liberation Sans Regular"
COPYRIGHT "Digitized data `2007 Ascender Corporation. All rights reserved."
FONT_VERSION "001.000"
FONT_ASCENT 100
FONT_DESCENT 20
UNDERLINE_POSITION 0
UNDERLINE_THICKNESS 6
X_HEIGHT 69
CAP_HEIGHT 89
RAW_ASCENT 833
RAW_DESCENT 166
NORM_SPACE 30
FIGURE_WIDTH 60
AVG_LOWERCASE_WIDTH 564
AVG_UPPERCASE_WIDTH 756
ENDPROPERTIES
CHARS 682
STARTCHAR .null
ENCODING 0
SWIDTH 0 0
DWIDTH 0 0
BBX 1 1 9 0
BITMAP
00
ENDCHAR
STARTCHAR nonmarkingreturn
ENCODING 13
SWIDTH 250 0
DWIDTH 30 0
BBX 1 1 9 0
BITMAP
00
ENDCHAR
STARTCHAR space
ENCODING 32
SWIDTH 250 0
DWIDTH 30 0
BBX 1 1 9 0
BITMAP
00
ENDCHAR
STARTCHAR exclam
ENCODING 33
SWIDTH 250 0
DWIDTH 30 0
BBX 10 90 10 0
BITMAP
FFC0
FFC0
FFC0
FFC0
FFC0
FFC0
FFC0
FFC0
FFC0
FFC0
FFC0
FFC0
FFC0
FFC0
FFC0
FFC0
FFC0
FFC0
FFC0
FFC0
FFC0
FFC0
FFC0
FFC0
FFC0
FFC0
FFC0
FFC0
FFC0
FFC0
FFC0
FFC0
FFC0
FFC0
FFC0
FFC0
FFC0
FFC0
FFC0
FFC0
FFC0
FFC0
FFC0
FFC0
FFC0
FFC0
FFC0
FFC0
FFC0
FFC0
FFC0
FFC0
FFC0
FFC0
FFC0
FFC0
FFC0
FFC0
FFC0
FFC0
FFC0
FFC0
FFC0
FFC0
FFC0
FFC0
FFC0
FFC0
FFC0
FFC0
0000
0000
0000
0000
0000
0000
0000
0000
0000
0000
FFC0
FFC0
FFC0
FFC0
FFC0
FFC0
FFC0
FFC0
FFC0
FFC0
ENDCHAR
STARTCHAR quotedbl
ENCODING 34
SWIDTH 333 0
DWIDTH 40 0
BBX 30 30 10 60
BITMAP
FFC00FFC
FFC00FFC
FFC00FFC
FFC00FFC
FFC00FFC
FFC00FFC
FFC00FFC
FFC00FFC
FFC00FFC
FFC00FFC
FFC00FFC
FFC00FFC
FFC00FFC
FFC00FFC
FFC00FFC
FFC00FFC
FFC00FFC
FFC00FFC
FFC00FFC
FFC00FFC
FFC00FFC
FFC00FFC
FFC00FFC
FFC00FFC
FFC00FFC
FFC00FFC
FFC00FFC
FFC00FFC
FFC00FFC
FFC00FFC
ENDCHAR
STARTCHAR numbersign
ENCODING 35
SWIDTH 500 0
DWIDTH 60 0
BBX 70 90 0 0
BITMAP
00000FFC00003FF000
00000FFC00003FF000
00000FFC00003FF000
00000FFC00003FF000
00000FFC00003FF000
00000FFC00003FF000
00000FFC00003FF000
00000FFC00003FF000
00000FFC00003FF000
00000FFC00003FF000
00000FFC00003FF000
00000FFC00003FF000
00000FFC00003FF000
00000FFC00003FF000
00000FFC00003FF000
00000FFC00003FF000
00000FFC00003FF000
00000FFC00003FF000
00000FFC00003FF000
00000FFC00003FF000
003FFFFFFFFFFFFFFC
003FFFFFFFFFFFFFFC
003FFFFFFFFFFFFFFC
003FFFFFFFFFFFFFFC
003FFFFFFFFFFFFFFC
003FFFFFFFFFFFFFFC
003FFFFFFFFFFFFFFC
003FFFFFFFFFFFFFFC
003FFFFFFFFFFFFFFC
003FFFFFFFFFFFFFFC
00000FFC00003FF000
00000FFC00003FF000
00000FFC00003FF000
00000FFC00003FF000
00000FFC00003FF000
00000FFC00003FF000
00000FFC00003FF000
00000FFC00003FF000
00000FFC00003FF000
00000FFC00003FF000
00000FFC00003FF000
00000FFC00003FF000
00000FFC00003FF000
00000FFC00003FF000
00000FFC00003FF000
00000FFC00003FF000
00000FFC00003FF000
00000FFC00003FF000
00000FFC00003FF000
00000FFC00003FF000
003FF00000FFC00000
003FF00000FFC00000
003FF00000FFC00000
003FF00000FFC00000
003FF00000FFC00000
003FF00000FFC00000
003FF00000FFC00000
003FF00000FFC00000
003FF00000FFC00000
003FF00000FFC00000
FFFFFFFFFFFFFFFFFC
FFFFFFFFFFFFFFFFFC
FFFFFFFFFFFFFFFFFC
FFFFFFFFFFFFFFFFFC
FFFFFFFFFFFFFFFFFC
FFFFFFFFFFFFFFFFFC
FFFFFFFFFFFFFFFFFC
FFFFFFFFFFFFFFFFFC
FFFFFFFFFFFFFFFFFC
FFFFFFFFFFFFFFFFFC
003FF00000FFC00000
003FF00000FFC00000
003FF00000FFC00000
003FF00000FFC00000
003FF00000FFC00000
003FF00000FFC00000
003FF00000FFC00000
003FF00000FFC00000
003FF00000FFC00000
003FF00000FFC00000
003FF00000FFC00000
003FF00000FFC00000
003FF00000FFC00000
003FF00000FFC00000
003FF00000FFC00000
003FF00000FFC00000
003FF00000FFC00000
003FF00000FFC00000
003FF00000FFC00000
003FF00000FFC00000
ENDCHAR
STARTCHAR dollar
ENCODING 36
SWIDTH 500 0
DWIDTH 60 0
BBX 50 110 10 -10
BITMAP
00000FFC000000
00000FFC000000
00000FFC000000
00000FFC000000
00000FFC000000
00000FFC000000
00000FFC000000
00000FFC000000
00000FFC000000
00000FFC000000
003FFFFFFF0000
003FFFFFFF0000
003FFFFFFF0000
003FFFFFFF0000
003FFFFFFF0000
003FFFFFFF0000
003FFFFFFF0000
003FFFFFFF0000
003FFFFFFF0000
003FFFFFFF0000
FFC00FFC00FFC0
FFC00FFC00FFC0
FFC00FFC00FFC0
FFC00FFC00FFC0
FFC00FFC00FFC0
FFC00FFC00FFC0
FFC00FFC00FFC0
FFC00FFC00FFC0
FFC00FFC00FFC0
FFC00FFC00FFC0
FFC00FFC000000
FFC00FFC000000
FFC00FFC000000
FFC00FFC000000
FFC00FFC000000
FFC00FFC000000
FFC00FFC000000
FFC00FFC000000
FFC00FFC000000
FFC00FFC000000
FFC00FFC000000
FFC00FFC000000
FFC00FFC000000
FFC00FFC000000
FFC00FFC000000
FFC00FFC000000
FFC00FFC000000
FFC00FFC000000
FFC00FFC000000
FFC00FFC000000
003FFFFFFF0000
003FFFFFFF0000
003FFFFFFF0000
003FFFFFFF0000
003FFFFFFF0000
003FFFFFFF0000
003FFFFFFF0000
003FFFFFFF0000
003FFFFFFF0000
003FFFFFFF0000
00000FFC00FFC0
00000FFC00FFC0
00000FFC00FFC0
00000FFC00FFC0
00000FFC00FFC0
00000FFC00FFC0
00000FFC00FFC0
00000FFC00FFC0
00000FFC00FFC0
00000FFC00FFC0
00000FFC00FFC0
00000FFC00FFC0
00000FFC00FFC0
00000FFC00FFC0
00000FFC00FFC0
00000FFC00FFC0
00000FFC00FFC0
00000FFC00FFC0
00000FFC00FFC0
00000FFC00FFC0
FFC00FFC00FFC0
FFC00FFC00FFC0
FFC00FFC00FFC0
FFC00FFC00FFC0
FFC00FFC00FFC0
FFC00FFC00FFC0
FFC00FFC00FFC0
FFC00FFC00FFC0
FFC00FFC00FFC0
FFC00FFC00FFC0
003FFFFFFF0000
003FFFFFFF0000
003FFFFFFF0000
003FFFFFFF0000
003FFFFFFF0000
003FFFFFFF0000
003FFFFFFF0000
003FFFFFFF0000
003FFFFFFF0000
003FFFFFFF0000
00000FFC000000
00000FFC000000
00000FFC000000
00000FFC000000
00000FFC000000
00000FFC000000
00000FFC000000
00000FFC000000
00000FFC000000
00000FFC000000
ENDCHAR
STARTCHAR percent
ENCODING 37
SWIDTH 833 0
DWIDTH 100 0
BBX 90 90 10 0
BITMAP
003FFFFC0000000FFC000000
003FFFFC0000000FFC000000
003FFFFC0000000FFC000000
003FFFFC0000000FFC000000
003FFFFC0000000FFC000000
003FFFFC0000000FFC000000
003FFFFC0000000FFC000000
003FFFFC0000000FFC000000
003FFFFC0000000FFC000000
003FFFFC0000000FFC000000
FFC00003FF00000FFC000000
FFC00003FF00000FFC000000
FFC00003FF00000FFC000000
FFC00003FF00000FFC000000
FFC00003FF00000FFC000000
FFC00003FF00000FFC000000
FFC00003FF00000FFC000000
FFC00003FF00000FFC000000
FFC00003FF00000FFC000000
FFC00003FF00000FFC000000
FFC00003FF003FF000000000
FFC00003FF003FF000000000
FFC00003FF003FF000000000
FFC00003FF003FF000000000
FFC00003FF003FF000000000
FFC00003FF003FF000000000
FFC00003FF003FF000000000
FFC00003FF003FF000000000
FFC00003FF003FF000000000
FFC00003FF003FF000000000
FFC00003FFFFC00000000000
FFC00003FFFFC00000000000
FFC00003FFFFC00000000000
FFC00003FFFFC00000000000
FFC00003FFFFC00000000000
FFC00003FFFFC00000000000
FFC00003FFFFC00000000000
FFC00003FFFFC00000000000
FFC00003FFFFC00000000000
FFC00003FFFFC00000000000
003FFFFC00FFC00FFFFF0000
003FFFFC00FFC00FFFFF0000
003FFFFC00FFC00FFFFF0000
003FFFFC00FFC00FFFFF0000
003FFFFC00FFC00FFFFF0000
003FFFFC00FFC00FFFFF0000
003FFFFC00FFC00FFFFF0000
003FFFFC00FFC00FFFFF0000
003FFFFC00FFC00FFFFF0000
003FFFFC00FFC00FFFFF0000
00000003FF003FF00000FFC0
00000003FF003FF00000FFC0
00000003FF003FF00000FFC0
00000003FF003FF00000FFC0
00000003FF003FF00000FFC0
00000003FF003FF00000FFC0
00000003FF003FF00000FFC0
00000003FF003FF00000FFC0
00000003FF003FF00000FFC0
00000003FF003FF00000FFC0
00000003FF003FF00000FFC0
00000003FF003FF00000FFC0
00000003FF003FF00000FFC0
00000003FF003FF00000FFC0
00000003FF003FF00000FFC0
00000003FF003FF00000FFC0
00000003FF003FF00000FFC0
00000003FF003FF00000FFC0
00000003FF003FF00000FFC0
00000003FF003FF00000FFC0
00000FFC00003FF00000FFC0
00000FFC00003FF00000FFC0
00000FFC00003FF00000FFC0
00000FFC00003FF00000FFC0
00000FFC00003FF00000FFC0
00000FFC00003FF00000FFC0
00000FFC00003FF00000FFC0
00000FFC00003FF00000FFC0
00000FFC00003FF00000FFC0
00000FFC00003FF00000FFC0
00000FFC0000000FFFFF0000
00000FFC0000000FFFFF0000
00000FFC0000000FFFFF0000
00000FFC0000000FFFFF0000
00000FFC0000000FFFFF0000
00000FFC0000000FFFFF0000
00000FFC0000000FFFFF0000
00000FFC0000000FFFFF0000
00000FFC0000000FFFFF0000
00000FFC0000000FFFFF0000
ENDCHAR
STARTCHAR ampersand
ENCODING 38
SWIDTH 583 0
DWIDTH 70 0
BBX 60 90 10 0
BITMAP
00000FFFFF000000
00000FFFFF000000
00000FFFFF000000
00000FFFFF000000
00000FFFFF000000
00000FFFFF000000
00000FFFFF000000
00000FFFFF000000
00000FFFFF000000
00000FFFFF000000
003FF00000FFC000
003FF00000FFC000
003FF00000FFC000
003FF00000FFC000
003FF00000FFC000
003FF00000FFC000
003FF00000FFC000
003FF00000FFC000
003FF00000FFC000
003FF00000FFC000
003FF00000FFC000
003FF00000FFC000
003FF00000FFC000
003FF00000FFC000
003FF00000FFC000
003FF00000FFC000
003FF00000FFC000
003FF00000FFC000
003FF00000FFC000
003FF00000FFC000
003FF003FF000000
003FF003FF000000
003FF003FF000000
003FF003FF000000
003FF003FF000000
003FF003FF000000
003FF003FF000000
003FF003FF000000
003FF003FF000000
003FF003FF000000
003FFFFC00003FF0
003FFFFC00003FF0
003FFFFC00003FF0
003FFFFC00003FF0
003FFFFC00003FF0
003FFFFC00003FF0
003FFFFC00003FF0
003FFFFC00003FF0
003FFFFC00003FF0
003FFFFC00003FF0
FFC00FFC00003FF0
FFC00FFC00003FF0
FFC00FFC00003FF0
FFC00FFC00003FF0
FFC00FFC00003FF0
FFC00FFC00003FF0
FFC00FFC00003FF0
FFC00FFC00003FF0
FFC00FFC00003FF0
FFC00FFC00003FF0
FFC00003FFFFC000
FFC00003FFFFC000
FFC00003FFFFC000
FFC00003FFFFC000
FFC00003FFFFC000
FFC00003FFFFC000
FFC00003FFFFC000
FFC00003FFFFC000
FFC00003FFFFC000
FFC00003FFFFC000
FFC00003FF000000
FFC00003FF000000
FFC00003FF000000
FFC00003FF000000
FFC00003FF000000
FFC00003FF000000
FFC00003FF000000
FFC00003FF000000
FFC00003FF000000
FFC00003FF000000
003FFFFC00FFFFF0
003FFFFC00FFFFF0
003FFFFC00FFFFF0
003FFFFC00FFFFF0
003FFFFC00FFFFF0
003FFFFC00FFFFF0
003FFFFC00FFFFF0
003FFFFC00FFFFF0
003FFFFC00FFFFF0
003FFFFC00FFFFF0
ENDCHAR
STARTCHAR quotesingle
ENCODING 39
SWIDTH 166 0
DWIDTH 20 0
BBX 10 30 10 60
BITMAP
FFC0
FFC0
FFC0
FFC0
FFC0
FFC0
FFC0
FFC0
FFC0
FFC0
FFC0
FFC0
FFC0
FFC0
FFC0
FFC0
FFC0
FFC0
FFC0
FFC0
FFC0
FFC0
FFC0
FFC0
FFC0
FFC0
FFC0
FFC0
FFC0
FFC0
ENDCHAR
STARTCHAR parenleft
ENCODING 40
SWIDTH 250 0
DWIDTH 30 0
BBX 30 110 10 -20
BITMAP
00000FFC
00000FFC
00000FFC
00000FFC
00000FFC
00000FFC
00000FFC
00000FFC
00000FFC
00000FFC
003FF000
003FF000
003FF000
003FF000
003FF000
003FF000
003FF000
003FF000
003FF000
003FF000
003FF000
003FF000
003FF000
003FF000
003FF000
003FF000
003FF000
003FF000
003FF000
003FF000
FFC00000
FFC00000
FFC00000
FFC00000
FFC00000
FFC00000
FFC00000
FFC00000
FFC00000
FFC00000
FFC00000
FFC00000
FFC00000
FFC00000
FFC00000
FFC00000
FFC00000
FFC00000
FFC00000
FFC00000
FFC00000
FFC00000
FFC00000
FFC00000
FFC00000
FFC00000
FFC00000
FFC00000
FFC00000
FFC00000
FFC00000
FFC00000
FFC00000
FFC00000
FFC00000
FFC00000
FFC00000
FFC00000
FFC00000
FFC00000
FFC00000
FFC00000
FFC00000
FFC00000
FFC00000
FFC00000
FFC00000
FFC00000
FFC00000
FFC00000
003FF000
003FF000
003FF000
003FF000
003FF000
003FF000
003FF000
003FF000
003FF000
003FF000
003FF000
003FF000
003FF000
003FF000
003FF000
003FF000
003FF000
003FF000
003FF000
003FF000
00000FFC
00000FFC
00000FFC
00000FFC
00000FFC
00000FFC
00000FFC
00000FFC
00000FFC
00000FFC
ENDCHAR
STARTCHAR parenright
ENCODING 41
SWIDTH 250 0
DWIDTH 30 0
BBX 30 110 0 -20
BITMAP
FFC00000
FFC00000
FFC00000
FFC00000
FFC00000
FFC00000
FFC00000
FFC00000
FFC00000
FFC00000
003FF000
003FF000
003FF000
003FF000
003FF000
003FF000
003FF000
003FF000
003FF000
003FF000
003FF000
003FF000
003FF000
003FF000
003FF000
003FF000
003FF000
003FF000
003FF000
003FF000
00000FFC
00000FFC
00000FFC
00000FFC
00000FFC
00000FFC
00000FFC
00000FFC
00000FFC
00000FFC
00000FFC
00000FFC
00000FFC
00000FFC
00000FFC
00000FFC
00000FFC
00000FFC
00000FFC
00000FFC
00000FFC
00000FFC
00000FFC
00000FFC
00000FFC
00000FFC
00000FFC
00000FFC
00000FFC
00000FFC
00000FFC
00000FFC
00000FFC
00000FFC
00000FFC
00000FFC
00000FFC
00000FFC
00000FFC
00000FFC
00000FFC
00000FFC
00000FFC
00000FFC
00000FFC
00000FFC
00000FFC
00000FFC
00000FFC
00000FFC
003FF000
003FF000
003FF000
003FF000
003FF000
003FF000
003FF000
003FF000
003FF000
003FF000
003FF000
003FF000
003FF000
003FF000
003FF000
003FF000
003FF000
003FF000
003FF000
003FF000
FFC00000
FFC00000
FFC00000
FFC00000
FFC00000
FFC00000
FFC00000
FFC00000
FFC00000
FFC00000
ENDCHAR
STARTCHAR asterisk
ENCODING 42
SWIDTH 333 0
DWIDTH 40 0
BBX 30 40 10 50
BITMAP
003FF000
003FF000
003FF000
003FF000
003FF000
003FF000
003FF000
003FF000
003FF000
003FF000
FFFFFFFC
FFFFFFFC
FFFFFFFC
FFFFFFFC
FFFFFFFC
FFFFFFFC
FFFFFFFC
FFFFFFFC
FFFFFFFC
FFFFFFFC
003FF000
003FF000
003FF000
003FF000
003FF000
003FF000
003FF000
003FF000
003FF000
003FF000
FFC00FFC
FFC00FFC
FFC00FFC
FFC00FFC
FFC00FFC
FFC00FFC
FFC00FFC
FFC00FFC
FFC00FFC
FFC00FFC
ENDCHAR
STARTCHAR plus
ENCODING 43
SWIDTH 500 0
DWIDTH 60 0
BBX 50 50 10 20
BITMAP
00000FFC000000
00000FFC000000
00000FFC000000
00000FFC000000
00000FFC000000
00000FFC000000
00000FFC000000
00000FFC000000
00000FFC000000
00000FFC000000
00000FFC000000
00000FFC000000
00000FFC000000
00000FFC000000
00000FFC000000
00000FFC000000
00000FFC000000
00000FFC000000
00000FFC000000
00000FFC000000
FFFFFFFFFFFFC0
FFFFFFFFFFFFC0
FFFFFFFFFFFFC0
FFFFFFFFFFFFC0
FFFFFFFFFFFFC0
FFFFFFFFFFFFC0
FFFFFFFFFFFFC0
FFFFFFFFFFFFC0
FFFFFFFFFFFFC0
FFFFFFFFFFFFC0
00000FFC000000
00000FFC000000
00000FFC000000
00000FFC000000
00000FFC000000
00000FFC000000
00000FFC000000
00000FFC000000
00000FFC000000
00000FFC000000
00000FFC000000
00000FFC000000
00000FFC000000
00000FFC000000
00000FFC000000
00000FFC000000
00000FFC000000
00000FFC000000
00000FFC000000
00000FFC000000
ENDCHAR
STARTCHAR comma
ENCODING 44
SWIDTH 250 0
DWIDTH 30 0
BBX 20 30 0 -20
BITMAP
003FF0
003FF0
003FF0
003FF0
003FF0
003FF0
003FF0
003FF0
003FF0
003FF0
003FF0
003FF0
003FF0
003FF0
003FF0
003FF0
003FF0
003FF0
003FF0
003FF0
FFC000
FFC000
FFC000
FFC000
FFC000
FFC000
FFC000
FFC000
FFC000
FFC000
ENDCHAR
STARTCHAR hyphen
ENCODING 45
SWIDTH 250 0
DWIDTH 30 0
BBX 20 10 10 30
BITMAP
FFFFF0
FFFFF0
FFFFF0
FFFFF0
FFFFF0
FFFFF0
FFFFF0
FFFFF0
FFFFF0
FFFFF0
ENDCHAR
STARTCHAR period
ENCODING 46
SWIDTH 250 0
DWIDTH 30 0
BBX 10 10 10 0
BITMAP
FFC0
FFC0
FFC0
FFC0
FFC0
FFC0
FFC0
FFC0
FFC0
FFC0
ENDCHAR
STARTCHAR slash
ENCODING 47
SWIDTH 250 0
DWIDTH 30 0
BBX 30 90 0 0
BITMAP
00000FFC
00000FFC
00000FFC
00000FFC
00000FFC
00000FFC
00000FFC
00000FFC
00000FFC
00000FFC
00000FFC
00000FFC
00000FFC
00000FFC
00000FFC
00000FFC
00000FFC
00000FFC
00000FFC
00000FFC
003FF000
003FF000
003FF000
003FF000
003FF000
003FF000
003FF000
003FF000
003FF000
003FF000
003FF000
003FF000
003FF000
003FF000
003FF000
003FF000
003FF000
003FF000
003FF000
003FF000
003FF000
003FF000
003FF000
003FF000
003FF000
003FF000
003FF000
003FF000
003FF000
003FF000
003FF000
003FF000
003FF000
003FF000
003FF000
003FF000
003FF000
003FF000
003FF000
003FF000
FFC00000
FFC00000
FFC00000
FFC00000
FFC00000
FFC00000
FFC00000
FFC00000
FFC00000
FFC00000
FFC00000
FFC00000
FFC00000
FFC00000
FFC00000
FFC00000
FFC00000
FFC00000
FFC00000
FFC00000
FFC00000
FFC00000
FFC00000
FFC00000
FFC00000
FFC00000
FFC00000
FFC00000
FFC00000
FFC00000
ENDCHAR
STARTCHAR zero
ENCODING 48
SWIDTH 500 0
DWIDTH 60 0
BBX 50 90 10 0
BITMAP
003FFFFFFF0000
003FFFFFFF0000
003FFFFFFF0000
003FFFFFFF0000
003FFFFFFF0000
003FFFFFFF0000
003FFFFFFF0000
003FFFFFFF0000
003FFFFFFF0000
003FFFFFFF0000
FFC0000000FFC0
FFC0000000FFC0
FFC0000000FFC0
FFC0000000FFC0
FFC0000000FFC0
FFC0000000FFC0
FFC0000000FFC0
FFC0000000FFC0
FFC0000000FFC0
FFC0000000FFC0
FFC0000000FFC0
FFC0000000FFC0
FFC0000000FFC0
FFC0000000FFC0
FFC0000000FFC0
FFC0000000FFC0
FFC0000000FFC0
FFC0000000FFC0
FFC0000000FFC0
FFC0000000FFC0
FFC0000000FFC0
FFC0000000FFC0
FFC0000000FFC0
FFC0000000FFC0
FFC0000000FFC0
FFC0000000FFC0
FFC0000000FFC0
FFC0000000FFC0
FFC0000000FFC0
FFC0000000FFC0
FFC0000000FFC0
FFC0000000FFC0
FFC0000000FFC0
FFC0000000FFC0
FFC0000000FFC0
FFC0000000FFC0
FFC0000000FFC0
FFC0000000FFC0
FFC0000000FFC0
FFC0000000FFC0
FFC0000000FFC0
FFC0000000FFC0
FFC0000000FFC0
FFC0000000FFC0
FFC0000000FFC0
FFC0000000FFC0
FFC0000000FFC0
FFC0000000FFC0
FFC0000000FFC0
FFC0000000FFC0
FFC0000000FFC0
FFC0000000FFC0
FFC0000000FFC0
FFC0000000FFC0
FFC0000000FFC0
FFC0000000FFC0
FFC0000000FFC0
FFC0000000FFC0
FFC0000000FFC0
FFC0000000FFC0
FFC0000000FFC0
FFC0000000FFC0
FFC0000000FFC0
FFC0000000FFC0
FFC0000000FFC0
FFC0000000FFC0
FFC0000000FFC0
FFC0000000FFC0
FFC0000000FFC0
FFC0000000FFC0
003FFFFFFF0000
003FFFFFFF0000
003FFFFFFF0000
003FFFFFFF0000
003FFFFFFF0000
003FFFFFFF0000
003FFFFFFF0000
003FFFFFFF0000
003FFFFFFF0000
003FFFFFFF0000
ENDCHAR
STARTCHAR one
ENCODING 49
SWIDTH 500 0
DWIDTH 60 0
BBX 50 90 10 0
BITMAP
003FFFFC000000
003FFFFC000000
003FFFFC000000
003FFFFC000000
003FFFFC000000
003FFFFC000000
003FFFFC000000
003FFFFC000000
003FFFFC000000
003FFFFC000000
FFC00FFC000000
FFC00FFC000000
FFC00FFC000000
FFC00FFC000000
FFC00FFC000000
FFC00FFC000000
FFC00FFC000000
FFC00FFC000000
FFC00FFC000000
FFC00FFC000000
00000FFC000000
00000FFC000000
00000FFC000000
00000FFC000000
00000FFC000000
00000FFC000000
00000FFC000000
00000FFC000000
00000FFC000000
00000FFC000000
00000FFC000000
00000FFC000000
00000FFC000000
00000FFC000000
00000FFC000000
00000FFC000000
00000FFC000000
00000FFC000000
00000FFC000000
00000FFC000000
00000FFC000000
00000FFC000000
00000FFC000000
00000FFC000000
00000FFC000000
00000FFC000000
00000FFC000000
00000FFC000000
00000FFC000000
00000FFC000000
00000FFC000000
00000FFC000000
00000FFC000000
00000FFC000000
00000FFC000000
00000FFC000000
00000FFC000000
00000FFC000000
00000FFC000000
00000FFC000000
00000FFC000000
00000FFC000000
00000FFC000000
00000FFC000000
00000FFC000000
00000FFC000000
00000FFC000000
00000FFC000000
00000FFC000000
00000FFC000000
00000FFC000000
00000FFC000000
00000FFC000000
00000FFC000000
00000FFC000000
00000FFC000000
00000FFC000000
00000FFC000000
00000FFC000000
00000FFC000000
FFFFFFFFFFFFC0
FFFFFFFFFFFFC0
FFFFFFFFFFFFC0
FFFFFFFFFFFFC0
FFFFFFFFFFFFC0
FFFFFFFFFFFFC0
FFFFFFFFFFFFC0
FFFFFFFFFFFFC0
FFFFFFFFFFFFC0
FFFFFFFFFFFFC0
ENDCHAR
STARTCHAR two
ENCODING 50
SWIDTH 500 0
DWIDTH 60 0
BBX 50 90 10 0
BITMAP
003FFFFFFF0000
003FFFFFFF0000
003FFFFFFF0000
003FFFFFFF0000
003FFFFFFF0000
003FFFFFFF0000
003FFFFFFF0000
003FFFFFFF0000
003FFFFFFF0000
003FFFFFFF0000
FFC0000000FFC0
FFC0000000FFC0
FFC0000000FFC0
FFC0000000FFC0
FFC0000000FFC0
FFC0000000FFC0
FFC0000000FFC0
FFC0000000FFC0
FFC0000000FFC0
FFC0000000FFC0
0000000000FFC0
0000000000FFC0
0000000000FFC0
0000000000FFC0
0000000000FFC0
0000000000FFC0
0000000000FFC0
0000000000FFC0
0000000000FFC0
0000000000FFC0
0000000000FFC0
0000000000FFC0
0000000000FFC0
0000000000FFC0
0000000000FFC0
0000000000FFC0
0000000000FFC0
0000000000FFC0
0000000000FFC0
0000000000FFC0
00000003FF0000
00000003FF0000
00000003FF0000
00000003FF0000
00000003FF0000
00000003FF0000
00000003FF0000
00000003FF0000
00000003FF0000
00000003FF0000
00000FFC000000
00000FFC000000
00000FFC000000
00000FFC000000
00000FFC000000
00000FFC000000
00000FFC000000
00000FFC000000
00000FFC000000
00000FFC000000
003FF000000000
003FF000000000
003FF000000000
003FF000000000
003FF000000000
003FF000000000
003FF000000000
003FF000000000
003FF000000000
003FF000000000
FFC00000000000
FFC00000000000
FFC00000000000
FFC00000000000
FFC00000000000
FFC00000000000
FFC00000000000
FFC00000000000
FFC00000000000
FFC00000000000
FFFFFFFFFFFFC0
FFFFFFFFFFFFC0
FFFFFFFFFFFFC0
FFFFFFFFFFFFC0
FFFFFFFFFFFFC0
FFFFFFFFFFFFC0
FFFFFFFFFFFFC0
FFFFFFFFFFFFC0
FFFFFFFFFFFFC0
FFFFFFFFFFFFC0
ENDCHAR
STARTCHAR three
ENCODING 51
SWIDTH 500 0
DWIDTH 60 0
BBX 50 90 10 0
BITMAP
003FFFFFFF0000
003FFFFFFF0000
003FFFFFFF0000
003FFFFFFF0000
003FFFFFFF0000
003FFFFFFF0000
003FFFFFFF0000
003FFFFFFF0000
003FFFFFFF0000
003FFFFFFF0000
FFC0000000FFC0
FFC0000000FFC0
FFC0000000FFC0
FFC0000000FFC0
FFC0000000FFC0
FFC0000000FFC0
FFC0000000FFC0
FFC0000000FFC0
FFC0000000FFC0
FFC0000000FFC0
0000000000FFC0
0000000000FFC0
0000000000FFC0
0000000000FFC0
0000000000FFC0
0000000000FFC0
0000000000FFC0
0000000000FFC0
0000000000FFC0
0000000000FFC0
0000000000FFC0
0000000000FFC0
0000000000FFC0
0000000000FFC0
0000000000FFC0
0000000000FFC0
0000000000FFC0
0000000000FFC0
0000000000FFC0
0000000000FFC0
00000FFFFF0000
00000FFFFF0000
00000FFFFF0000
00000FFFFF0000
00000FFFFF0000
00000FFFFF0000
00000FFFFF0000
00000FFFFF0000
00000FFFFF0000
00000FFFFF0000
0000000000FFC0
0000000000FFC0
0000000000FFC0
0000000000FFC0
0000000000FFC0
0000000000FFC0
0000000000FFC0
0000000000FFC0
0000000000FFC0
0000000000FFC0
0000000000FFC0
0000000000FFC0
0000000000FFC0
0000000000FFC0
0000000000FFC0
0000000000FFC0
0000000000FFC0
0000000000FFC0
0000000000FFC0
0000000000FFC0
FFC0000000FFC0
FFC0000000FFC0
FFC0000000FFC0
FFC0000000FFC0
FFC0000000FFC0
FFC0000000FFC0
FFC0000000FFC0
FFC0000000FFC0
FFC0000000FFC0
FFC0000000FFC0
003FFFFFFF0000
003FFFFFFF0000
003FFFFFFF0000
003FFFFFFF0000
003FFFFFFF0000
003FFFFFFF0000
003FFFFFFF0000
003FFFFFFF0000
003FFFFFFF0000
003FFFFFFF0000
ENDCHAR
STARTCHAR four
ENCODING 52
SWIDTH 500 0
DWIDTH 60 0
BBX 50 90 10 0
BITMAP
00000003FF0000
00000003FF0000
00000003FF0000
00000003FF0000
00000003FF0000
00000003FF0000
00000003FF0000
00000003FF0000
00000003FF0000
00000003FF0000
00000FFFFF0000
00000FFFFF0000
00000FFFFF0000
00000FFFFF0000
00000FFFFF0000
00000FFFFF0000
00000FFFFF0000
00000FFFFF0000
00000FFFFF0000
00000FFFFF0000
00000FFFFF0000
00000FFFFF0000
00000FFFFF0000
00000FFFFF0000
00000FFFFF0000
00000FFFFF0000
00000FFFFF0000
00000FFFFF0000
00000FFFFF0000
00000FFFFF0000
003FF003FF0000
003FF003FF0000
003FF003FF0000
003FF003FF0000
003FF003FF0000
003FF003FF0000
003FF003FF0000
003FF003FF0000
003FF003FF0000
003FF003FF0000
003FF003FF0000
003FF003FF0000
003FF003FF0000
003FF003FF0000
003FF003FF0000
003FF003FF0000
003FF003FF0000
003FF003FF0000
003FF003FF0000
003FF003FF0000
FFC00003FF0000
FFC00003FF0000
FFC00003FF0000
FFC00003FF0000
FFC00003FF0000
FFC00003FF0000
FFC00003FF0000
FFC00003FF0000
FFC00003FF0000
FFC00003FF0000
FFFFFFFFFFFFC0
FFFFFFFFFFFFC0
FFFFFFFFFFFFC0
FFFFFFFFFFFFC0
FFFFFFFFFFFFC0
FFFFFFFFFFFFC0
FFFFFFFFFFFFC0
FFFFFFFFFFFFC0
FFFFFFFFFFFFC0
FFFFFFFFFFFFC0
00000003FF0000
00000003FF0000
00000003FF0000
00000003FF0000
00000003FF0000
00000003FF0000
00000003FF0000
00000003FF0000
00000003FF0000
00000003FF0000
00000003FF0000
00000003FF0000
00000003FF0000
00000003FF0000
00000003FF0000
00000003FF0000
00000003FF0000
00000003FF0000
00000003FF0000
00000003FF0000
ENDCHAR
STARTCHAR five
ENCODING 53
SWIDTH 500 0
DWIDTH 60 0
BBX 50 90 10 0
BITMAP
FFFFFFFFFFFFC0
FFFFFFFFFFFFC0
FFFFFFFFFFFFC0
FFFFFFFFFFFFC0
FFFFFFFFFFFFC0
FFFFFFFFFFFFC0
FFFFFFFFFFFFC0
FFFFFFFFFFFFC0
FFFFFFFFFFFFC0
FFFFFFFFFFFFC0
FFC00000000000
FFC00000000000
FFC00000000000
FFC00000000000
FFC00000000000
FFC00000000000
FFC00000000000
FFC00000000000
FFC00000000000
FFC00000000000
FFC00000000000
FFC00000000000
FFC00000000000
FFC00000000000
FFC00000000000
FFC00000000000
FFC00000000000
FFC00000000000
FFC00000000000
FFC00000000000
FFFFFFFFFF0000
FFFFFFFFFF0000
FFFFFFFFFF0000
FFFFFFFFFF0000
FFFFFFFFFF0000
FFFFFFFFFF0000
FFFFFFFFFF0000
FFFFFFFFFF0000
FFFFFFFFFF0000
FFFFFFFFFF0000
FFC0000000FFC0
FFC0000000FFC0
FFC0000000FFC0
FFC0000000FFC0
FFC0000000FFC0
FFC0000000FFC0
FFC0000000FFC0
FFC0000000FFC0
FFC0000000FFC0
FFC0000000FFC0
0000000000FFC0
0000000000FFC0
0000000000FFC0
0000000000FFC0
0000000000FFC0
0000000000FFC0
0000000000FFC0
0000000000FFC0
0000000000FFC0
0000000000FFC0
0000000000FFC0
0000000000FFC0
0000000000FFC0
0000000000FFC0
0000000000FFC0
0000000000FFC0
0000000000FFC0
0000000000FFC0
0000000000FFC0
0000000000FFC0
FFC0000000FFC0
FFC0000000FFC0
FFC0000000FFC0
FFC0000000FFC0
FFC0000000FFC0
FFC0000000FFC0
FFC0000000FFC0
FFC0000000FFC0
FFC0000000FFC0
FFC0000000FFC0
003FFFFFFF0000
003FFFFFFF0000
003FFFFFFF0000
003FFFFFFF0000
003FFFFFFF0000
003FFFFFFF0000
003FFFFFFF0000
003FFFFFFF0000
003FFFFFFF0000
003FFFFFFF0000
ENDCHAR
STARTCHAR six
ENCODING 54
SWIDTH 500 0
DWIDTH 60 0
BBX 50 90 10 0
BITMAP
003FFFFFFF0000
003FFFFFFF0000
003FFFFFFF0000
003FFFFFFF0000
003FFFFFFF0000
003FFFFFFF0000
003FFFFFFF0000
003FFFFFFF0000
003FFFFFFF0000
003FFFFFFF0000
FFC0000000FFC0
FFC0000000FFC0
FFC0000000FFC0
FFC0000000FFC0
FFC0000000FFC0
FFC0000000FFC0
FFC0000000FFC0
FFC0000000FFC0
FFC0000000FFC0
FFC0000000FFC0
FFC00000000000
FFC00000000000
FFC00000000000
FFC00000000000
FFC00000000000
FFC00000000000
FFC00000000000
FFC00000000000
FFC00000000000
FFC00000000000
FFC00FFFFF0000
FFC00FFFFF0000
FFC00FFFFF0000
FFC00FFFFF0000
FFC00FFFFF0000
FFC00FFFFF0000
FFC00FFFFF0000
FFC00FFFFF0000
FFC00FFFFF0000
FFC00FFFFF0000
FFFFF00000FFC0
FFFFF00000FFC0
FFFFF00000FFC0
FFFFF00000FFC0
FFFFF00000FFC0
FFFFF00000FFC0
FFFFF00000FFC0
FFFFF00000FFC0
FFFFF00000FFC0
FFFFF00000FFC0
FFC0000000FFC0
FFC0000000FFC0
FFC0000000FFC0
FFC0000000FFC0
FFC0000000FFC0
FFC0000000FFC0
FFC0000000FFC0
FFC0000000FFC0
FFC0000000FFC0
FFC0000000FFC0
FFC0000000FFC0
FFC0000000FFC0
FFC0000000FFC0
FFC0000000FFC0
FFC0000000FFC0
FFC0000000FFC0
FFC0000000FFC0
FFC0000000FFC0
FFC0000000FFC0
FFC0000000FFC0
FFC0000000FFC0
FFC0000000FFC0
FFC0000000FFC0
FFC0000000FFC0
FFC0000000FFC0
FFC0000000FFC0
FFC0000000FFC0
FFC0000000FFC0
FFC0000000FFC0
FFC0000000FFC0
003FFFFFFF0000
003FFFFFFF0000
003FFFFFFF0000
003FFFFFFF0000
003FFFFFFF0000
003FFFFFFF0000
003FFFFFFF0000
003FFFFFFF0000
003FFFFFFF0000
003FFFFFFF0000
ENDCHAR
STARTCHAR seven
ENCODING 55
SWIDTH 500 0
DWIDTH 60 0
BBX 50 90 10 0
BITMAP
FFFFFFFFFFFFC0
FFFFFFFFFFFFC0
FFFFFFFFFFFFC0
FFFFFFFFFFFFC0
FFFFFFFFFFFFC0
FFFFFFFFFFFFC0
FFFFFFFFFFFFC0
FFFFFFFFFFFFC0
FFFFFFFFFFFFC0
FFFFFFFFFFFFC0
0000000000FFC0
0000000000FFC0
0000000000FFC0
0000000000FFC0
0000000000FFC0
0000000000FFC0
0000000000FFC0
0000000000FFC0
0000000000FFC0
0000000000FFC0
00000003FF0000
00000003FF0000
00000003FF0000
00000003FF0000
00000003FF0000
00000003FF0000
00000003FF0000
00000003FF0000
00000003FF0000
00000003FF0000
00000FFC000000
00000FFC000000
00000FFC000000
00000FFC000000
00000FFC000000
00000FFC000000
00000FFC000000
00000FFC000000
00000FFC000000
00000FFC000000
00000FFC000000
00000FFC000000
00000FFC000000
00000FFC000000
00000FFC000000
00000FFC000000
00000FFC000000
00000FFC000000
00000FFC000000
00000FFC000000
00000FFC000000
00000FFC000000
00000FFC000000
00000FFC000000
00000FFC000000
00000FFC000000
00000FFC000000
00000FFC000000
00000FFC000000
00000FFC000000
003FF000000000
003FF000000000
003FF000000000
003FF000000000
003FF000000000
003FF000000000
003FF000000000
003FF000000000
003FF000000000
003FF000000000
003FF000000000
003FF000000000
003FF000000000
003FF000000000
003FF000000000
003FF000000000
003FF000000000
003FF000000000
003FF000000000
003FF000000000
003FF000000000
003FF000000000
003FF000000000
003FF000000000
003FF000000000
003FF000000000
003FF000000000
003FF000000000
003FF000000000
003FF000000000
ENDCHAR
STARTCHAR eight
ENCODING 56
SWIDTH 500 0
DWIDTH 60 0
BBX 50 90 10 0
BITMAP
003FFFFFFF0000
003FFFFFFF0000
003FFFFFFF0000
003FFFFFFF0000
003FFFFFFF0000
003FFFFFFF0000
003FFFFFFF0000
003FFFFFFF0000
003FFFFFFF0000
003FFFFFFF0000
FFC0000000FFC0
FFC0000000FFC0
FFC0000000FFC0
FFC0000000FFC0
FFC0000000FFC0
FFC0000000FFC0
FFC0000000FFC0
FFC0000000FFC0
FFC0000000FFC0
FFC0000000FFC0
FFC0000000FFC0
FFC0000000FFC0
FFC0000000FFC0
FFC0000000FFC0
FFC0000000FFC0
FFC0000000FFC0
FFC0000000FFC0
FFC0000000FFC0
FFC0000000FFC0
FFC0000000FFC0
FFC0000000FFC0
FFC0000000FFC0
FFC0000000FFC0
FFC0000000FFC0
FFC0000000FFC0
FFC0000000FFC0
FFC0000000FFC0
FFC0000000FFC0
FFC0000000FFC0
FFC0000000FFC0
003FFFFFFF0000
003FFFFFFF0000
003FFFFFFF0000
003FFFFFFF0000
003FFFFFFF0000
003FFFFFFF0000
003FFFFFFF0000
003FFFFFFF0000
003FFFFFFF0000
003FFFFFFF0000
FFC0000000FFC0
FFC0000000FFC0
FFC0000000FFC0
FFC0000000FFC0
FFC0000000FFC0
FFC0000000FFC0
FFC0000000FFC0
FFC0000000FFC0
FFC0000000FFC0
FFC0000000FFC0
FFC0000000FFC0
FFC0000000FFC0
FFC0000000FFC0
FFC0000000FFC0
FFC0000000FFC0
FFC0000000FFC0
FFC0000000FFC0
FFC0000000FFC0
FFC0000000FFC0
FFC0000000FFC0
FFC0000000FFC0
FFC0000000FFC0
FFC0000000FFC0
FFC0000000FFC0
FFC0000000FFC0
FFC0000000FFC0
FFC0000000FFC0
FFC0000000FFC0
FFC0000000FFC0
FFC0000000FFC0
003FFFFFFF0000
003FFFFFFF0000
003FFFFFFF0000
003FFFFFFF0000
003FFFFFFF0000
003FFFFFFF0000
003FFFFFFF0000
003FFFFFFF0000
003FFFFFFF0000
003FFFFFFF0000
ENDCHAR
STARTCHAR nine
ENCODING 57
SWIDTH 500 0
DWIDTH 60 0
BBX 50 90 10 0
BITMAP
003FFFFFFF0000
003FFFFFFF0000
003FFFFFFF0000
003FFFFFFF0000
003FFFFFFF0000
003FFFFFFF0000
003FFFFFFF0000
003FFFFFFF0000
003FFFFFFF0000
003FFFFFFF0000
FFC0000000FFC0
FFC0000000FFC0
FFC0000000FFC0
FFC0000000FFC0
FFC0000000FFC0
FFC0000000FFC0
FFC0000000FFC0
FFC0000000FFC0
FFC0000000FFC0
FFC0000000FFC0
FFC0000000FFC0
FFC0000000FFC0
FFC0000000FFC0
FFC0000000FFC0
FFC0000000FFC0
FFC0000000FFC0
FFC0000000FFC0
FFC0000000FFC0
FFC0000000FFC0
FFC0000000FFC0
FFC0000000FFC0
FFC0000000FFC0
FFC0000000FFC0
FFC0000000FFC0
FFC0000000FFC0
FFC0000000FFC0
FFC0000000FFC0
FFC0000000FFC0
FFC0000000FFC0
FFC0000000FFC0
FFC00003FFFFC0
FFC00003FFFFC0
FFC00003FFFFC0
FFC00003FFFFC0
FFC00003FFFFC0
FFC00003FFFFC0
FFC00003FFFFC0
FFC00003FFFFC0
FFC00003FFFFC0
FFC00003FFFFC0
003FFFFC00FFC0
003FFFFC00FFC0
003FFFFC00FFC0
003FFFFC00FFC0
003FFFFC00FFC0
003FFFFC00FFC0
003FFFFC00FFC0
003FFFFC00FFC0
003FFFFC00FFC0
003FFFFC00FFC0
0000000000FFC0
0000000000FFC0
0000000000FFC0
0000000000FFC0
0000000000FFC0
0000000000FFC0
0000000000FFC0
0000000000FFC0
0000000000FFC0
0000000000FFC0
FFC0000000FFC0
FFC0000000FFC0
FFC0000000FFC0
FFC0000000FFC0
FFC0000000FFC0
FFC0000000FFC0
FFC0000000FFC0
FFC0000000FFC0
FFC0000000FFC0
FFC0000000FFC0
003FFFFFFF0000
003FFFFFFF0000
003FFFFFFF0000
003FFFFFFF0000
003FFFFFFF0000
003FFFFFFF0000
003FFFFFFF0000
003FFFFFFF0000
003FFFFFFF0000
003FFFFFFF0000
ENDCHAR
STARTCHAR colon
ENCODING 58
SWIDTH 250 0
DWIDTH 30 0
BBX 10 70 10 0
BITMAP
FFC0
FFC0
FFC0
FFC0
FFC0
FFC0
FFC0
FFC0
FFC0
FFC0
0000
0000
0000
0000
0000
0000
0000
0000
0000
0000
0000
0000
0000
0000
0000
0000
0000
0000
0000
0000
0000
0000
0000
0000
0000
0000
0000
0000
0000
0000
0000
0000
0000
0000
0000
0000
0000
0000
0000
0000
0000
0000
0000
0000
0000
0000
0000
0000
0000
0000
FFC0
FFC0
FFC0
FFC0
FFC0
FFC0
FFC0
FFC0
FFC0
FFC0
ENDCHAR
STARTCHAR semicolon
ENCODING 59
SWIDTH 250 0
DWIDTH 30 0
BBX 20 90 0 -20
BITMAP
003FF0
003FF0
003FF0
003FF0
003FF0
003FF0
003FF0
003FF0
003FF0
003FF0
000000
000000
000000
000000
000000
000000
000000
000000
000000
000000
000000
000000
000000
000000
000000
000000
000000
000000
000000
000000
000000
000000
000000
000000
000000
000000
000000
000000
000000
000000
000000
000000
000000
000000
000000
000000
000000
000000
000000
000000
000000
000000
000000
000000
000000
000000
000000
000000
000000
000000
003FF0
003FF0
003FF0
003FF0
003FF0
003FF0
003FF0
003FF0
003FF0
003FF0
003FF0
003FF0
003FF0
003FF0
003FF0
003FF0
003FF0
003FF0
003FF0
003FF0
FFC000
FFC000
FFC000
FFC000
FFC000
FFC000
FFC000
FFC000
FFC000
FFC000
ENDCHAR
STARTCHAR less
ENCODING 60
SWIDTH 500 0
DWIDTH 60 0
BBX 50 50 10 20
BITMAP
00000003FFFFC0
00000003FFFFC0
00000003FFFFC0
00000003FFFFC0
00000003FFFFC0
00000003FFFFC0
00000003FFFFC0
00000003FFFFC0
00000003FFFFC0
00000003FFFFC0
003FFFFC000000
003FFFFC000000
003FFFFC000000
003FFFFC000000
003FFFFC000000
003FFFFC000000
003FFFFC000000
003FFFFC000000
003FFFFC000000
003FFFFC000000
FFC00000000000
FFC00000000000
FFC00000000000
FFC00000000000
FFC00000000000
FFC00000000000
FFC00000000000
FFC00000000000
FFC00000000000
FFC00000000000
003FFFFC000000
003FFFFC000000
003FFFFC000000
003FFFFC000000
003FFFFC000000
003FFFFC000000
003FFFFC000000
003FFFFC000000
003FFFFC000000
003FFFFC000000
00000003FFFFC0
00000003FFFFC0
00000003FFFFC0
00000003FFFFC0
00000003FFFFC0
00000003FFFFC0
00000003FFFFC0
00000003FFFFC0
00000003FFFFC0
00000003FFFFC0
ENDCHAR
STARTCHAR equal
ENCODING 61
SWIDTH 500 0
DWIDTH 60 0
BBX 50 40 10 20
BITMAP
FFFFFFFFFFFFC0
FFFFFFFFFFFFC0
FFFFFFFFFFFFC0
FFFFFFFFFFFFC0
FFFFFFFFFFFFC0
FFFFFFFFFFFFC0
FFFFFFFFFFFFC0
FFFFFFFFFFFFC0
FFFFFFFFFFFFC0
FFFFFFFFFFFFC0
00000000000000
00000000000000
00000000000000
00000000000000
00000000000000
00000000000000
00000000000000
00000000000000
00000000000000
00000000000000
00000000000000
00000000000000
00000000000000
00000000000000
00000000000000
00000000000000
00000000000000
00000000000000
00000000000000
00000000000000
FFFFFFFFFFFFC0
FFFFFFFFFFFFC0
FFFFFFFFFFFFC0
FFFFFFFFFFFFC0
FFFFFFFFFFFFC0
FFFFFFFFFFFFC0
FFFFFFFFFFFFC0
FFFFFFFFFFFFC0
FFFFFFFFFFFFC0
FFFFFFFFFFFFC0
ENDCHAR
STARTCHAR greater
ENCODING 62
SWIDTH 500 0
DWIDTH 60 0
BBX 50 50 10 20
BITMAP
FFFFF000000000
FFFFF000000000
FFFFF000000000
FFFFF000000000
FFFFF000000000
FFFFF000000000
FFFFF000000000
FFFFF000000000
FFFFF000000000
FFFFF000000000
00000FFFFF0000
00000FFFFF0000
00000FFFFF0000
00000FFFFF0000
00000FFFFF0000
00000FFFFF0000
00000FFFFF0000
00000FFFFF0000
00000FFFFF0000
00000FFFFF0000
0000000000FFC0
0000000000FFC0
0000000000FFC0
0000000000FFC0
0000000000FFC0
0000000000FFC0
0000000000FFC0
0000000000FFC0
0000000000FFC0
0000000000FFC0
00000FFFFF0000
00000FFFFF0000
00000FFFFF0000
00000FFFFF0000
00000FFFFF0000
00000FFFFF0000
00000FFFFF0000
00000FFFFF0000
00000FFFFF0000
00000FFFFF0000
FFFFF000000000
FFFFF000000000
FFFFF000000000
FFFFF000000000
FFFFF000000000
FFFFF000000000
FFFFF000000000
FFFFF000000000
FFFFF000000000
FFFFF000000000
ENDCHAR
STARTCHAR question
ENCODING 63
SWIDTH 500 0
DWIDTH 60 0
BBX 50 90 10 0
BITMAP
003FFFFFFF0000
003FFFFFFF0000
003FFFFFFF0000
003FFFFFFF0000
003FFFFFFF0000
003FFFFFFF0000
003FFFFFFF0000
003FFFFFFF0000
003FFFFFFF0000
003FFFFFFF0000
FFC0000000FFC0
FFC0000000FFC0
FFC0000000FFC0
FFC0000000FFC0
FFC0000000FFC0
FFC0000000FFC0
FFC0000000FFC0
FFC0000000FFC0
FFC0000000FFC0
FFC0000000FFC0
0000000000FFC0
0000000000FFC0
0000000000FFC0
0000000000FFC0
0000000000FFC0
0000000000FFC0
0000000000FFC0
0000000000FFC0
0000000000FFC0
0000000000FFC0
0000000000FFC0
0000000000FFC0
0000000000FFC0
0000000000FFC0
0000000000FFC0
0000000000FFC0
0000000000FFC0
0000000000FFC0
0000000000FFC0
0000000000FFC0
00000003FF0000
00000003FF0000
00000003FF0000
00000003FF0000
00000003FF0000
00000003FF0000
00000003FF0000
00000003FF0000
00000003FF0000
00000003FF0000
00000FFC000000
00000FFC000000
00000FFC000000
00000FFC000000
00000FFC000000
00000FFC000000
00000FFC000000
00000FFC000000
00000FFC000000
00000FFC000000
00000FFC000000
00000FFC000000
00000FFC000000
00000FFC000000
00000FFC000000
00000FFC000000
00000FFC000000
00000FFC000000
00000FFC000000
00000FFC000000
00000000000000
00000000000000
00000000000000
00000000000000
00000000000000
00000000000000
00000000000000
00000000000000
00000000000000
00000000000000
00000FFC000000
00000FFC000000
00000FFC000000
00000FFC000000
00000FFC000000
00000FFC000000
00000FFC000000
00000FFC000000
00000FFC000000
00000FFC000000
ENDCHAR
STARTCHAR at
ENCODING 64
SWIDTH 1000 0
DWIDTH 120 0
BBX 100 110 10 -20
BITMAP
00000003FFFFFFFFFFFF000000
00000003FFFFFFFFFFFF000000
00000003FFFFFFFFFFFF000000
00000003FFFFFFFFFFFF000000
00000003FFFFFFFFFFFF000000
00000003FFFFFFFFFFFF000000
00000003FFFFFFFFFFFF000000
00000003FFFFFFFFFFFF000000
00000003FFFFFFFFFFFF000000
00000003FFFFFFFFFFFF000000
00000FFC000000000000FFC000
00000FFC000000000000FFC000
00000FFC000000000000FFC000
00000FFC000000000000FFC000
00000FFC000000000000FFC000
00000FFC000000000000FFC000
00000FFC000000000000FFC000
00000FFC000000000000FFC000
00000FFC000000000000FFC000
00000FFC000000000000FFC000
003FF000000000000000003FF0
003FF000000000000000003FF0
003FF000000000000000003FF0
003FF000000000000000003FF0
003FF000000000000000003FF0
003FF000000000000000003FF0
003FF000000000000000003FF0
003FF000000000000000003FF0
003FF000000000000000003FF0
003FF000000000000000003FF0
FFC00003FFFFFFF003FF003FF0
FFC00003FFFFFFF003FF003FF0
FFC00003FFFFFFF003FF003FF0
FFC00003FFFFFFF003FF003FF0
FFC00003FFFFFFF003FF003FF0
FFC00003FFFFFFF003FF003FF0
FFC00003FFFFFFF003FF003FF0
FFC00003FFFFFFF003FF003FF0
FFC00003FFFFFFF003FF003FF0
FFC00003FFFFFFF003FF003FF0
FFC00FFC0000000FFC00003FF0
FFC00FFC0000000FFC00003FF0
FFC00FFC0000000FFC00003FF0
FFC00FFC0000000FFC00003FF0
FFC00FFC0000000FFC00003FF0
FFC00FFC0000000FFC00003FF0
FFC00FFC0000000FFC00003FF0
FFC00FFC0000000FFC00003FF0
FFC00FFC0000000FFC00003FF0
FFC00FFC0000000FFC00003FF0
FFC00FFC0000000FFC00003FF0
FFC00FFC0000000FFC00003FF0
FFC00FFC0000000FFC00003FF0
FFC00FFC0000000FFC00003FF0
FFC00FFC0000000FFC00003FF0
FFC00FFC0000000FFC00003FF0
FFC00FFC0000000FFC00003FF0
FFC00FFC0000000FFC00003FF0
FFC00FFC0000000FFC00003FF0
FFC00FFC0000000FFC00003FF0
FFC00FFC00003FFFFC00FFC000
FFC00FFC00003FFFFC00FFC000
FFC00FFC00003FFFFC00FFC000
FFC00FFC00003FFFFC00FFC000
FFC00FFC00003FFFFC00FFC000
FFC00FFC00003FFFFC00FFC000
FFC00FFC00003FFFFC00FFC000
FFC00FFC00003FFFFC00FFC000
FFC00FFC00003FFFFC00FFC000
FFC00FFC00003FFFFC00FFC000
FFC00003FFFFC00003FF000000
FFC00003FFFFC00003FF000000
FFC00003FFFFC00003FF000000
FFC00003FFFFC00003FF000000
FFC00003FFFFC00003FF000000
FFC00003FFFFC00003FF000000
FFC00003FFFFC00003FF000000
FFC00003FFFFC00003FF000000
FFC00003FFFFC00003FF000000
FFC00003FFFFC00003FF000000
FFC00000000000000000000000
FFC00000000000000000000000
FFC00000000000000000000000
FFC00000000000000000000000
FFC00000000000000000000000
FFC00000000000000000000000
FFC00000000000000000000000
FFC00000000000000000000000
FFC00000000000000000000000
FFC00000000000000000000000
003FF0000000000003FF000000
003FF0000000000003FF000000
003FF0000000000003FF000000
003FF0000000000003FF000000
003FF0000000000003FF000000
003FF0000000000003FF000000
003FF0000000000003FF000000
003FF0000000000003FF000000
003FF0000000000003FF000000
003FF0000000000003FF000000
00000FFFFFFFFFFFFC00000000
00000FFFFFFFFFFFFC00000000
00000FFFFFFFFFFFFC00000000
00000FFFFFFFFFFFFC00000000
00000FFFFFFFFFFFFC00000000
00000FFFFFFFFFFFFC00000000
00000FFFFFFFFFFFFC00000000
00000FFFFFFFFFFFFC00000000
00000FFFFFFFFFFFFC00000000
00000FFFFFFFFFFFFC00000000
ENDCHAR
STARTCHAR A
ENCODING 65
SWIDTH 583 0
DWIDTH 70 0
BBX 70 90 0 0
BITMAP
00000003FF00000000
00000003FF00000000
00000003FF00000000
00000003FF00000000
00000003FF00000000
00000003FF00000000
00000003FF00000000
00000003FF00000000
00000003FF00000000
00000003FF00000000
00000FFC00FFC00000
00000FFC00FFC00000
00000FFC00FFC00000
00000FFC00FFC00000
00000FFC00FFC00000
00000FFC00FFC00000
00000FFC00FFC00000
00000FFC00FFC00000
00000FFC00FFC00000
00000FFC00FFC00000
00000FFC00FFC00000
00000FFC00FFC00000
00000FFC00FFC00000
00000FFC00FFC00000
00000FFC00FFC00000
00000FFC00FFC00000
00000FFC00FFC00000
00000FFC00FFC00000
00000FFC00FFC00000
00000FFC00FFC00000
00000FFC00FFC00000
00000FFC00FFC00000
00000FFC00FFC00000
00000FFC00FFC00000
00000FFC00FFC00000
00000FFC00FFC00000
00000FFC00FFC00000
00000FFC00FFC00000
00000FFC00FFC00000
00000FFC00FFC00000
003FF00000003FF000
003FF00000003FF000
003FF00000003FF000
003FF00000003FF000
003FF00000003FF000
003FF00000003FF000
003FF00000003FF000
003FF00000003FF000
003FF00000003FF000
003FF00000003FF000
003FFFFFFFFFFFF000
003FFFFFFFFFFFF000
003FFFFFFFFFFFF000
003FFFFFFFFFFFF000
003FFFFFFFFFFFF000
003FFFFFFFFFFFF000
003FFFFFFFFFFFF000
003FFFFFFFFFFFF000
003FFFFFFFFFFFF000
003FFFFFFFFFFFF000
003FF00000003FF000
003FF00000003FF000
003FF00000003FF000
003FF00000003FF000
003FF00000003FF000
003FF00000003FF000
003FF00000003FF000
003FF00000003FF000
003FF00000003FF000
003FF00000003FF000
FFC000000000000FFC
FFC000000000000FFC
FFC000000000000FFC
FFC000000000000FFC
FFC000000000000FFC
FFC000000000000FFC
FFC000000000000FFC
FFC000000000000FFC
FFC000000000000FFC
FFC000000000000FFC
FFC000000000000FFC
FFC000000000000FFC
FFC000000000000FFC
FFC000000000000FFC
FFC000000000000FFC
FFC000000000000FFC
FFC000000000000FFC
FFC000000000000FFC
FFC000000000000FFC
FFC000000000000FFC
ENDCHAR
STARTCHAR B
ENCODING 66
SWIDTH 583 0
DWIDTH 70 0
BBX 60 90 10 0
BITMAP
FFFFFFFFFFFFC000
FFFFFFFFFFFFC000
FFFFFFFFFFFFC000
FFFFFFFFFFFFC000
FFFFFFFFFFFFC000
FFFFFFFFFFFFC000
FFFFFFFFFFFFC000
FFFFFFFFFFFFC000
FFFFFFFFFFFFC000
FFFFFFFFFFFFC000
FFC0000000003FF0
FFC0000000003FF0
FFC0000000003FF0
FFC0000000003FF0
FFC0000000003FF0
FFC0000000003FF0
FFC0000000003FF0
FFC0000000003FF0
FFC0000000003FF0
FFC0000000003FF0
FFC0000000003FF0
FFC0000000003FF0
FFC0000000003FF0
FFC0000000003FF0
FFC0000000003FF0
FFC0000000003FF0
FFC0000000003FF0
FFC0000000003FF0
FFC0000000003FF0
FFC0000000003FF0
FFC0000000003FF0
FFC0000000003FF0
FFC0000000003FF0
FFC0000000003FF0
FFC0000000003FF0
FFC0000000003FF0
FFC0000000003FF0
FFC0000000003FF0
FFC0000000003FF0
FFC0000000003FF0
FFFFFFFFFFFFC000
FFFFFFFFFFFFC000
FFFFFFFFFFFFC000
FFFFFFFFFFFFC000
FFFFFFFFFFFFC000
FFFFFFFFFFFFC000
FFFFFFFFFFFFC000
FFFFFFFFFFFFC000
FFFFFFFFFFFFC000
FFFFFFFFFFFFC000
FFC0000000003FF0
FFC0000000003FF0
FFC0000000003FF0
FFC0000000003FF0
FFC0000000003FF0
FFC0000000003FF0
FFC0000000003FF0
FFC0000000003FF0
FFC0000000003FF0
FFC0000000003FF0
FFC0000000003FF0
FFC0000000003FF0
FFC0000000003FF0
FFC0000000003FF0
FFC0000000003FF0
FFC0000000003FF0
FFC0000000003FF0
FFC0000000003FF0
FFC0000000003FF0
FFC0000000003FF0
FFC0000000003FF0
FFC0000000003FF0
FFC0000000003FF0
FFC0000000003FF0
FFC0000000003FF0
FFC0000000003FF0
FFC0000000003FF0
FFC0000000003FF0
FFC0000000003FF0
FFC0000000003FF0
FFFFFFFFFFFFC000
FFFFFFFFFFFFC000
FFFFFFFFFFFFC000
FFFFFFFFFFFFC000
FFFFFFFFFFFFC000
FFFFFFFFFFFFC000
FFFFFFFFFFFFC000
FFFFFFFFFFFFC000
FFFFFFFFFFFFC000
FFFFFFFFFFFFC000
ENDCHAR
STARTCHAR C
ENCODING 67
SWIDTH 666 0
DWIDTH 80 0
BBX 70 90 10 0
BITMAP
00000FFFFFFFFFF000
00000FFFFFFFFFF000
00000FFFFFFFFFF000
00000FFFFFFFFFF000
00000FFFFFFFFFF000
00000FFFFFFFFFF000
00000FFFFFFFFFF000
00000FFFFFFFFFF000
00000FFFFFFFFFF000
00000FFFFFFFFFF000
003FF0000000000FFC
003FF0000000000FFC
003FF0000000000FFC
003FF0000000000FFC
003FF0000000000FFC
003FF0000000000FFC
003FF0000000000FFC
003FF0000000000FFC
003FF0000000000FFC
003FF0000000000FFC
FFC000000000000000
FFC000000000000000
FFC000000000000000
FFC000000000000000
FFC000000000000000
FFC000000000000000
FFC000000000000000
FFC000000000000000
FFC000000000000000
FFC000000000000000
FFC000000000000000
FFC000000000000000
FFC000000000000000
FFC000000000000000
FFC000000000000000
FFC000000000000000
FFC000000000000000
FFC000000000000000
FFC000000000000000
FFC000000000000000
FFC000000000000000
FFC000000000000000
FFC000000000000000
FFC000000000000000
FFC000000000000000
FFC000000000000000
FFC000000000000000
FFC000000000000000
FFC000000000000000
FFC000000000000000
FFC000000000000000
FFC000000000000000
FFC000000000000000
FFC000000000000000
FFC000000000000000
FFC000000000000000
FFC000000000000000
FFC000000000000000
FFC000000000000000
FFC000000000000000
FFC000000000000000
FFC000000000000000
FFC000000000000000
FFC000000000000000
FFC000000000000000
FFC000000000000000
FFC000000000000000
FFC000000000000000
FFC000000000000000
FFC000000000000000
003FF0000000000FFC
003FF0000000000FFC
003FF0000000000FFC
003FF0000000000FFC
003FF0000000000FFC
003FF0000000000FFC
003FF0000000000FFC
003FF0000000000FFC
003FF0000000000FFC
003FF0000000000FFC
00000FFFFFFFFFF000
00000FFFFFFFFFF000
00000FFFFFFFFFF000
00000FFFFFFFFFF000
00000FFFFFFFFFF000
00000FFFFFFFFFF000
00000FFFFFFFFFF000
00000FFFFFFFFFF000
00000FFFFFFFFFF000
00000FFFFFFFFFF000
ENDCHAR
STARTCHAR D
ENCODING 68
SWIDTH 666 0
DWIDTH 80 0
BBX 70 90 10 0
BITMAP
FFFFFFFFFFFFC00000
FFFFFFFFFFFFC00000
FFFFFFFFFFFFC00000
FFFFFFFFFFFFC00000
FFFFFFFFFFFFC00000
FFFFFFFFFFFFC00000
FFFFFFFFFFFFC00000
FFFFFFFFFFFFC00000
FFFFFFFFFFFFC00000
FFFFFFFFFFFFC00000
FFC0000000003FF000
FFC0000000003FF000
FFC0000000003FF000
FFC0000000003FF000
FFC0000000003FF000
FFC0000000003FF000
FFC0000000003FF000
FFC0000000003FF000
FFC0000000003FF000
FFC0000000003FF000
FFC000000000000FFC
FFC000000000000FFC
FFC000000000000FFC
FFC000000000000FFC
FFC000000000000FFC
FFC000000000000FFC
FFC000000000000FFC
FFC000000000000FFC
FFC000000000000FFC
FFC000000000000FFC
FFC000000000000FFC
FFC000000000000FFC
FFC000000000000FFC
FFC000000000000FFC
FFC000000000000FFC
FFC000000000000FFC
FFC000000000000FFC
FFC000000000000FFC
FFC000000000000FFC
FFC000000000000FFC
FFC000000000000FFC
FFC000000000000FFC
FFC000000000000FFC
FFC000000000000FFC
FFC000000000000FFC
FFC000000000000FFC
FFC000000000000FFC
FFC000000000000FFC
FFC000000000000FFC
FFC000000000000FFC
FFC000000000000FFC
FFC000000000000FFC
FFC000000000000FFC
FFC000000000000FFC
FFC000000000000FFC
FFC000000000000FFC
FFC000000000000FFC
FFC000000000000FFC
FFC000000000000FFC
FFC000000000000FFC
FFC000000000000FFC
FFC000000000000FFC
FFC000000000000FFC
FFC000000000000FFC
FFC000000000000FFC
FFC000000000000FFC
FFC000000000000FFC
FFC000000000000FFC
FFC000000000000FFC
FFC000000000000FFC
FFC0000000003FF000
FFC0000000003FF000
FFC0000000003FF000
FFC0000000003FF000
FFC0000000003FF000
FFC0000000003FF000
FFC0000000003FF000
FFC0000000003FF000
FFC0000000003FF000
FFC0000000003FF000
FFFFFFFFFFFFC00000
FFFFFFFFFFFFC00000
FFFFFFFFFFFFC00000
FFFFFFFFFFFFC00000
FFFFFFFFFFFFC00000
FFFFFFFFFFFFC00000
FFFFFFFFFFFFC00000
FFFFFFFFFFFFC00000
FFFFFFFFFFFFC00000
FFFFFFFFFFFFC00000
ENDCHAR
STARTCHAR E
ENCODING 69
SWIDTH 583 0
DWIDTH 70 0
BBX 60 90 10 0
BITMAP
FFFFFFFFFFFFFFF0
FFFFFFFFFFFFFFF0
FFFFFFFFFFFFFFF0
FFFFFFFFFFFFFFF0
FFFFFFFFFFFFFFF0
FFFFFFFFFFFFFFF0
FFFFFFFFFFFFFFF0
FFFFFFFFFFFFFFF0
FFFFFFFFFFFFFFF0
FFFFFFFFFFFFFFF0
FFC0000000000000
FFC0000000000000
FFC0000000000000
FFC0000000000000
FFC0000000000000
FFC0000000000000
FFC0000000000000
FFC0000000000000
FFC0000000000000
FFC0000000000000
FFC0000000000000
FFC0000000000000
FFC0000000000000
FFC0000000000000
FFC0000000000000
FFC0000000000000
FFC0000000000000
FFC0000000000000
FFC0000000000000
FFC0000000000000
FFC0000000000000
FFC0000000000000
FFC0000000000000
FFC0000000000000
FFC0000000000000
FFC0000000000000
FFC0000000000000
FFC0000000000000
FFC0000000000000
FFC0000000000000
FFFFFFFFFFFFC000
FFFFFFFFFFFFC000
FFFFFFFFFFFFC000
FFFFFFFFFFFFC000
FFFFFFFFFFFFC000
FFFFFFFFFFFFC000
FFFFFFFFFFFFC000
FFFFFFFFFFFFC000
FFFFFFFFFFFFC000
FFFFFFFFFFFFC000
FFC0000000000000
FFC0000000000000
FFC0000000000000
FFC0000000000000
FFC0000000000000
FFC0000000000000
FFC0000000000000
FFC0000000000000
FFC0000000000000
FFC0000000000000
FFC0000000000000
FFC0000000000000
FFC0000000000000
FFC0000000000000
FFC0000000000000
FFC0000000000000
FFC0000000000000
FFC0000000000000
FFC0000000000000
FFC0000000000000
FFC0000000000000
FFC0000000000000
FFC0000000000000
FFC0000000000000
FFC0000000000000
FFC0000000000000
FFC0000000000000
FFC0000000000000
FFC0000000000000
FFC0000000000000
FFFFFFFFFFFFFFF0
FFFFFFFFFFFFFFF0
FFFFFFFFFFFFFFF0
FFFFFFFFFFFFFFF0
FFFFFFFFFFFFFFF0
FFFFFFFFFFFFFFF0
FFFFFFFFFFFFFFF0
FFFFFFFFFFFFFFF0
FFFFFFFFFFFFFFF0
FFFFFFFFFFFFFFF0
ENDCHAR
STARTCHAR F
ENCODING 70
SWIDTH 583 0
DWIDTH 70 0
BBX 50 90 10 0
BITMAP
FFFFFFFFFFFFC0
FFFFFFFFFFFFC0
FFFFFFFFFFFFC0
FFFFFFFFFFFFC0
FFFFFFFFFFFFC0
FFFFFFFFFFFFC0
FFFFFFFFFFFFC0
FFFFFFFFFFFFC0
FFFFFFFFFFFFC0
FFFFFFFFFFFFC0
FFC00000000000
FFC00000000000
FFC00000000000
FFC00000000000
FFC00000000000
FFC00000000000
FFC00000000000
FFC00000000000
FFC00000000000
FFC00000000000
FFC00000000000
FFC00000000000
FFC00000000000
FFC00000000000
FFC00000000000
FFC00000000000
FFC00000000000
FFC00000000000
FFC00000000000
FFC00000000000
FFC00000000000
FFC00000000000
FFC00000000000
FFC00000000000
FFC00000000000
FFC00000000000
FFC00000000000
FFC00000000000
FFC00000000000
FFC00000000000
FFFFFFFFFFFFC0
FFFFFFFFFFFFC0
FFFFFFFFFFFFC0
FFFFFFFFFFFFC0
FFFFFFFFFFFFC0
FFFFFFFFFFFFC0
FFFFFFFFFFFFC0
FFFFFFFFFFFFC0
FFFFFFFFFFFFC0
FFFFFFFFFFFFC0
FFC00000000000
FFC00000000000
FFC00000000000
FFC00000000000
FFC00000000000
FFC00000000000
FFC00000000000
FFC00000000000
FFC00000000000
FFC00000000000
FFC00000000000
FFC00000000000
FFC00000000000
FFC00000000000
FFC00000000000
FFC00000000000
FFC00000000000
FFC00000000000
FFC00000000000
FFC00000000000
FFC00000000000
FFC00000000000
FFC00000000000
FFC00000000000
FFC00000000000
FFC00000000000
FFC00000000000
FFC00000000000
FFC00000000000
FFC00000000000
FFC00000000000
FFC00000000000
FFC00000000000
FFC00000000000
FFC00000000000
FFC00000000000
FFC00000000000
FFC00000000000
FFC00000000000
FFC00000000000
ENDCHAR
STARTCHAR G
ENCODING 71
SWIDTH 750 0
DWIDTH 90 0
BBX 70 90 10 0
BITMAP
00000FFFFFFFFFF000
00000FFFFFFFFFF000
00000FFFFFFFFFF000
00000FFFFFFFFFF000
00000FFFFFFFFFF000
00000FFFFFFFFFF000
00000FFFFFFFFFF000
00000FFFFFFFFFF000
00000FFFFFFFFFF000
00000FFFFFFFFFF000
003FF0000000000FFC
003FF0000000000FFC
003FF0000000000FFC
003FF0000000000FFC
003FF0000000000FFC
003FF0000000000FFC
003FF0000000000FFC
003FF0000000000FFC
003FF0000000000FFC
003FF0000000000FFC
FFC000000000000000
FFC000000000000000
FFC000000000000000
FFC000000000000000
FFC000000000000000
FFC000000000000000
FFC000000000000000
FFC000000000000000
FFC000000000000000
FFC000000000000000
FFC000000000000000
FFC000000000000000
FFC000000000000000
FFC000000000000000
FFC000000000000000
FFC000000000000000
FFC000000000000000
FFC000000000000000
FFC000000000000000
FFC000000000000000
FFC0000000FFFFFFFC
FFC0000000FFFFFFFC
FFC0000000FFFFFFFC
FFC0000000FFFFFFFC
FFC0000000FFFFFFFC
FFC0000000FFFFFFFC
FFC0000000FFFFFFFC
FFC0000000FFFFFFFC
FFC0000000FFFFFFFC
FFC0000000FFFFFFFC
FFC000000000000FFC
FFC000000000000FFC
FFC000000000000FFC
FFC000000000000FFC
FFC000000000000FFC
FFC000000000000FFC
FFC000000000000FFC
FFC000000000000FFC
FFC000000000000FFC
FFC000000000000FFC
FFC000000000000FFC
FFC000000000000FFC
FFC000000000000FFC
FFC000000000000FFC
FFC000000000000FFC
FFC000000000000FFC
FFC000000000000FFC
FFC000000000000FFC
FFC000000000000FFC
FFC000000000000FFC
003FF0000000000FFC
003FF0000000000FFC
003FF0000000000FFC
003FF0000000000FFC
003FF0000000000FFC
003FF0000000000FFC
003FF0000000000FFC
003FF0000000000FFC
003FF0000000000FFC
003FF0000000000FFC
00000FFFFFFFFFF000
00000FFFFFFFFFF000
00000FFFFFFFFFF000
00000FFFFFFFFFF000
00000FFFFFFFFFF000
00000FFFFFFFFFF000
00000FFFFFFFFFF000
00000FFFFFFFFFF000
00000FFFFFFFFFF000
00000FFFFFFFFFF000
ENDCHAR
STARTCHAR H
ENCODING 72
SWIDTH 666 0
DWIDTH 80 0
BBX 70 90 10 0
BITMAP
FFC000000000000FFC
FFC000000000000FFC
FFC000000000000FFC
FFC000000000000FFC
FFC000000000000FFC
FFC000000000000FFC
FFC000000000000FFC
FFC000000000000FFC
FFC000000000000FFC
FFC000000000000FFC
FFC000000000000FFC
FFC000000000000FFC
FFC000000000000FFC
FFC000000000000FFC
FFC000000000000FFC
FFC000000000000FFC
FFC000000000000FFC
FFC000000000000FFC
FFC000000000000FFC
FFC000000000000FFC
FFC000000000000FFC
FFC000000000000FFC
FFC000000000000FFC
FFC000000000000FFC
FFC000000000000FFC
FFC000000000000FFC
FFC000000000000FFC
FFC000000000000FFC
FFC000000000000FFC
FFC000000000000FFC
FFC000000000000FFC
FFC000000000000FFC
FFC000000000000FFC
FFC000000000000FFC
FFC000000000000FFC
FFC000000000000FFC
FFC000000000000FFC
FFC000000000000FFC
FFC000000000000FFC
FFC000000000000FFC
FFFFFFFFFFFFFFFFFC
FFFFFFFFFFFFFFFFFC
FFFFFFFFFFFFFFFFFC
FFFFFFFFFFFFFFFFFC
FFFFFFFFFFFFFFFFFC
FFFFFFFFFFFFFFFFFC
FFFFFFFFFFFFFFFFFC
FFFFFFFFFFFFFFFFFC
FFFFFFFFFFFFFFFFFC
FFFFFFFFFFFFFFFFFC
FFC000000000000FFC
FFC000000000000FFC
FFC000000000000FFC
FFC000000000000FFC
FFC000000000000FFC
FFC000000000000FFC
FFC000000000000FFC
FFC000000000000FFC
FFC000000000000FFC
FFC000000000000FFC
FFC000000000000FFC
FFC000000000000FFC
FFC000000000000FFC
FFC000000000000FFC
FFC000000000000FFC
FFC000000000000FFC
FFC000000000000FFC
FFC000000000000FFC
FFC000000000000FFC
FFC000000000000FFC
FFC000000000000FFC
FFC000000000000FFC
FFC000000000000FFC
FFC000000000000FFC
FFC000000000000FFC
FFC000000000000FFC
FFC000000000000FFC
FFC000000000000FFC
FFC000000000000FFC
FFC000000000000FFC
FFC000000000000FFC
FFC000000000000FFC
FFC000000000000FFC
FFC000000000000FFC
FFC000000000000FFC
FFC000000000000FFC
FFC000000000000FFC
FFC000000000000FFC
FFC000000000000FFC
FFC000000000000FFC
ENDCHAR
STARTCHAR I
ENCODING 73
SWIDTH 250 0
DWIDTH 30 0
BBX 10 90 10 0
BITMAP
FFC0
FFC0
FFC0
FFC0
FFC0
FFC0
FFC0
FFC0
FFC0
FFC0
FFC0
FFC0
FFC0
FFC0
FFC0
FFC0
FFC0
FFC0
FFC0
FFC0
FFC0
FFC0
FFC0
FFC0
FFC0
FFC0
FFC0
FFC0
FFC0
FFC0
FFC0
FFC0
FFC0
FFC0
FFC0
FFC0
FFC0
FFC0
FFC0
FFC0
FFC0
FFC0
FFC0
FFC0
FFC0
FFC0
FFC0
FFC0
FFC0
FFC0
FFC0
FFC0
FFC0
FFC0
FFC0
FFC0
FFC0
FFC0
FFC0
FFC0
FFC0
FFC0
FFC0
FFC0
FFC0
FFC0
FFC0
FFC0
FFC0
FFC0
FFC0
FFC0
FFC0
FFC0
FFC0
FFC0
FFC0
FFC0
FFC0
FFC0
FFC0
FFC0
FFC0
FFC0
FFC0
FFC0
FFC0
FFC0
FFC0
FFC0
ENDCHAR
STARTCHAR J
ENCODING 74
SWIDTH 500 0
DWIDTH 60 0
BBX 50 90 0 0
BITMAP
00000FFFFFFFC0
00000FFFFFFFC0
00000FFFFFFFC0
00000FFFFFFFC0
00000FFFFFFFC0
00000FFFFFFFC0
00000FFFFFFFC0
00000FFFFFFFC0
00000FFFFFFFC0
00000FFFFFFFC0
0000000000FFC0
0000000000FFC0
0000000000FFC0
0000000000FFC0
0000000000FFC0
0000000000FFC0
0000000000FFC0
0000000000FFC0
0000000000FFC0
0000000000FFC0
0000000000FFC0
0000000000FFC0
0000000000FFC0
0000000000FFC0
0000000000FFC0
0000000000FFC0
0000000000FFC0
0000000000FFC0
0000000000FFC0
0000000000FFC0
0000000000FFC0
0000000000FFC0
0000000000FFC0
0000000000FFC0
0000000000FFC0
0000000000FFC0
0000000000FFC0
0000000000FFC0
0000000000FFC0
0000000000FFC0
0000000000FFC0
0000000000FFC0
0000000000FFC0
0000000000FFC0
0000000000FFC0
0000000000FFC0
0000000000FFC0
0000000000FFC0
0000000000FFC0
0000000000FFC0
0000000000FFC0
0000000000FFC0
0000000000FFC0
0000000000FFC0
0000000000FFC0
0000000000FFC0
0000000000FFC0
0000000000FFC0
0000000000FFC0
0000000000FFC0
0000000000FFC0
0000000000FFC0
0000000000FFC0
0000000000FFC0
0000000000FFC0
0000000000FFC0
0000000000FFC0
0000000000FFC0
0000000000FFC0
0000000000FFC0
FFC0000000FFC0
FFC0000000FFC0
FFC0000000FFC0
FFC0000000FFC0
FFC0000000FFC0
FFC0000000FFC0
FFC0000000FFC0
FFC0000000FFC0
FFC0000000FFC0
FFC0000000FFC0
003FFFFFFF0000
003FFFFFFF0000
003FFFFFFF0000
003FFFFFFF0000
003FFFFFFF0000
003FFFFFFF0000
003FFFFFFF0000
003FFFFFFF0000
003FFFFFFF0000
003FFFFFFF0000
ENDCHAR
STARTCHAR K
ENCODING 75
SWIDTH 583 0
DWIDTH 70 0
BBX 70 90 10 0
BITMAP
FFC0000000003FF000
FFC0000000003FF000
FFC0000000003FF000
FFC0000000003FF000
FFC0000000003FF000
FFC0000000003FF000
FFC0000000003FF000
FFC0000000003FF000
FFC0000000003FF000
FFC0000000003FF000
FFC0000000FFC00000
FFC0000000FFC00000
FFC0000000FFC00000
FFC0000000FFC00000
FFC0000000FFC00000
FFC0000000FFC00000
FFC0000000FFC00000
FFC0000000FFC00000
FFC0000000FFC00000
FFC0000000FFC00000
FFC00003FF00000000
FFC00003FF00000000
FFC00003FF00000000
FFC00003FF00000000
FFC00003FF00000000
FFC00003FF00000000
FFC00003FF00000000
FFC00003FF00000000
FFC00003FF00000000
FFC00003FF00000000
FFC00FFC0000000000
FFC00FFC0000000000
FFC00FFC0000000000
FFC00FFC0000000000
FFC00FFC0000000000
FFC00FFC0000000000
FFC00FFC0000000000
FFC00FFC0000000000
FFC00FFC0000000000
FFC00FFC0000000000
FFFFFFFC0000000000
FFFFFFFC0000000000
FFFFFFFC0000000000
FFFFFFFC0000000000
FFFFFFFC0000000000
FFFFFFFC0000000000
FFFFFFFC0000000000
FFFFFFFC0000000000
FFFFFFFC0000000000
FFFFFFFC0000000000
FFC00003FF00000000
FFC00003FF00000000
FFC00003FF00000000
FFC00003FF00000000
FFC00003FF00000000
FFC00003FF00000000
FFC00003FF00000000
FFC00003FF00000000
FFC00003FF00000000
FFC00003FF00000000
FFC0000000FFC00000
FFC0000000FFC00000
FFC0000000FFC00000
FFC0000000FFC00000
FFC0000000FFC00000
FFC0000000FFC00000
FFC0000000FFC00000
FFC0000000FFC00000
FFC0000000FFC00000
FFC0000000FFC00000
FFC0000000003FF000
FFC0000000003FF000
FFC0000000003FF000
FFC0000000003FF000
FFC0000000003FF000
FFC0000000003FF000
FFC0000000003FF000
FFC0000000003FF000
FFC0000000003FF000
FFC0000000003FF000
FFC000000000000FFC
FFC000000000000FFC
FFC000000000000FFC
FFC000000000000FFC
FFC000000000000FFC
FFC000000000000FFC
FFC000000000000FFC
FFC000000000000FFC
FFC000000000000FFC
FFC000000000000FFC
ENDCHAR
STARTCHAR L
ENCODING 76
SWIDTH 500 0
DWIDTH 60 0
BBX 50 90 10 0
BITMAP
FFC00000000000
FFC00000000000
FFC00000000000
FFC00000000000
FFC00000000000
FFC00000000000
FFC00000000000
FFC00000000000
FFC00000000000
FFC00000000000
FFC00000000000
FFC00000000000
FFC00000000000
FFC00000000000
FFC00000000000
FFC00000000000
FFC00000000000
FFC00000000000
FFC00000000000
FFC00000000000
FFC00000000000
FFC00000000000
FFC00000000000
FFC00000000000
FFC00000000000
FFC00000000000
FFC00000000000
FFC00000000000
FFC00000000000
FFC00000000000
FFC00000000000
FFC00000000000
FFC00000000000
FFC00000000000
FFC00000000000
FFC00000000000
FFC00000000000
FFC00000000000
FFC00000000000
FFC00000000000
FFC00000000000
FFC00000000000
FFC00000000000
FFC00000000000
FFC00000000000
FFC00000000000
FFC00000000000
FFC00000000000
FFC00000000000
FFC00000000000
FFC00000000000
FFC00000000000
FFC00000000000
FFC00000000000
FFC00000000000
FFC00000000000
FFC00000000000
FFC00000000000
FFC00000000000
FFC00000000000
FFC00000000000
FFC00000000000
FFC00000000000
FFC00000000000
FFC00000000000
FFC00000000000
FFC00000000000
FFC00000000000
FFC00000000000
FFC00000000000
FFC00000000000
FFC00000000000
FFC00000000000
FFC00000000000
FFC00000000000
FFC00000000000
FFC00000000000
FFC00000000000
FFC00000000000
FFC00000000000
FFFFFFFFFFFFC0
FFFFFFFFFFFFC0
FFFFFFFFFFFFC0
FFFFFFFFFFFFC0
FFFFFFFFFFFFC0
FFFFFFFFFFFFC0
FFFFFFFFFFFFC0
FFFFFFFFFFFFC0
FFFFFFFFFFFFC0
FFFFFFFFFFFFC0
ENDCHAR
STARTCHAR M
ENCODING 77
SWIDTH 750 0
DWIDTH 90 0
BBX 70 90 10 0
BITMAP
FFC000000000000FFC
FFC000000000000FFC
FFC000000000000FFC
FFC000000000000FFC
FFC000000000000FFC
FFC000000000000FFC
FFC000000000000FFC
FFC000000000000FFC
FFC000000000000FFC
FFC000000000000FFC
FFC000000000000FFC
FFC000000000000FFC
FFC000000000000FFC
FFC000000000000FFC
FFC000000000000FFC
FFC000000000000FFC
FFC000000000000FFC
FFC000000000000FFC
FFC000000000000FFC
FFC000000000000FFC
FFFFF00000003FFFFC
FFFFF00000003FFFFC
FFFFF00000003FFFFC
FFFFF00000003FFFFC
FFFFF00000003FFFFC
FFFFF00000003FFFFC
FFFFF00000003FFFFC
FFFFF00000003FFFFC
FFFFF00000003FFFFC
FFFFF00000003FFFFC
FFFFF00000003FFFFC
FFFFF00000003FFFFC
FFFFF00000003FFFFC
FFFFF00000003FFFFC
FFFFF00000003FFFFC
FFFFF00000003FFFFC
FFFFF00000003FFFFC
FFFFF00000003FFFFC
FFFFF00000003FFFFC
FFFFF00000003FFFFC
FFC00FFC00FFC00FFC
FFC00FFC00FFC00FFC
FFC00FFC00FFC00FFC
FFC00FFC00FFC00FFC
FFC00FFC00FFC00FFC
FFC00FFC00FFC00FFC
FFC00FFC00FFC00FFC
FFC00FFC00FFC00FFC
FFC00FFC00FFC00FFC
FFC00FFC00FFC00FFC
FFC00FFC00FFC00FFC
FFC00FFC00FFC00FFC
FFC00FFC00FFC00FFC
FFC00FFC00FFC00FFC
FFC00FFC00FFC00FFC
FFC00FFC00FFC00FFC
FFC00FFC00FFC00FFC
FFC00FFC00FFC00FFC
FFC00FFC00FFC00FFC
FFC00FFC00FFC00FFC
FFC00FFC00FFC00FFC
FFC00FFC00FFC00FFC
FFC00FFC00FFC00FFC
FFC00FFC00FFC00FFC
FFC00FFC00FFC00FFC
FFC00FFC00FFC00FFC
FFC00FFC00FFC00FFC
FFC00FFC00FFC00FFC
FFC00FFC00FFC00FFC
FFC00FFC00FFC00FFC
FFC00003FF00000FFC
FFC00003FF00000FFC
FFC00003FF00000FFC
FFC00003FF00000FFC
FFC00003FF00000FFC
FFC00003FF00000FFC
FFC00003FF00000FFC
FFC00003FF00000FFC
FFC00003FF00000FFC
FFC00003FF00000FFC
FFC00003FF00000FFC
FFC00003FF00000FFC
FFC00003FF00000FFC
FFC00003FF00000FFC
FFC00003FF00000FFC
FFC00003FF00000FFC
FFC00003FF00000FFC
FFC00003FF00000FFC
FFC00003FF00000FFC
FFC00003FF00000FFC
ENDCHAR
STARTCHAR N
ENCODING 78
SWIDTH 666 0
DWIDTH 80 0
BBX 70 90 10 0
BITMAP
FFC000000000000FFC
FFC000000000000FFC
FFC000000000000FFC
FFC000000000000FFC
FFC000000000000FFC
FFC000000000000FFC
FFC000000000000FFC
FFC000000000000FFC
FFC000000000000FFC
FFC000000000000FFC
FFFFF0000000000FFC
FFFFF0000000000FFC
FFFFF0000000000FFC
FFFFF0000000000FFC
FFFFF0000000000FFC
FFFFF0000000000FFC
FFFFF0000000000FFC
FFFFF0000000000FFC
FFFFF0000000000FFC
FFFFF0000000000FFC
FFC00FFC0000000FFC
FFC00FFC0000000FFC
FFC00FFC0000000FFC
FFC00FFC0000000FFC
FFC00FFC0000000FFC
FFC00FFC0000000FFC
FFC00FFC0000000FFC
FFC00FFC0000000FFC
FFC00FFC0000000FFC
FFC00FFC0000000FFC
FFC00FFC0000000FFC
FFC00FFC0000000FFC
FFC00FFC0000000FFC
FFC00FFC0000000FFC
FFC00FFC0000000FFC
FFC00FFC0000000FFC
FFC00FFC0000000FFC
FFC00FFC0000000FFC
FFC00FFC0000000FFC
FFC00FFC0000000FFC
FFC00003FF00000FFC
FFC00003FF00000FFC
FFC00003FF00000FFC
FFC00003FF00000FFC
FFC00003FF00000FFC
FFC00003FF00000FFC
FFC00003FF00000FFC
FFC00003FF00000FFC
FFC00003FF00000FFC
FFC00003FF00000FFC
FFC0000000FFC00FFC
FFC0000000FFC00FFC
FFC0000000FFC00FFC
FFC0000000FFC00FFC
FFC0000000FFC00FFC
FFC0000000FFC00FFC
FFC0000000FFC00FFC
FFC0000000FFC00FFC
FFC0000000FFC00FFC
FFC0000000FFC00FFC
FFC0000000FFC00FFC
FFC0000000FFC00FFC
FFC0000000FFC00FFC
FFC0000000FFC00FFC
FFC0000000FFC00FFC
FFC0000000FFC00FFC
FFC0000000FFC00FFC
FFC0000000FFC00FFC
FFC0000000FFC00FFC
FFC0000000FFC00FFC
FFC0000000003FFFFC
FFC0000000003FFFFC
FFC0000000003FFFFC
FFC0000000003FFFFC
FFC0000000003FFFFC
FFC0000000003FFFFC
FFC0000000003FFFFC
FFC0000000003FFFFC
FFC0000000003FFFFC
FFC0000000003FFFFC
FFC000000000000FFC
FFC000000000000FFC
FFC000000000000FFC
FFC000000000000FFC
FFC000000000000FFC
FFC000000000000FFC
FFC000000000000FFC
FFC000000000000FFC
FFC000000000000FFC
FFC000000000000FFC
ENDCHAR
STARTCHAR O
ENCODING 79
SWIDTH 750 0
DWIDTH 90 0
BBX 70 90 10 0
BITMAP
00000FFFFFFFC00000
00000FFFFFFFC00000
00000FFFFFFFC00000
00000FFFFFFFC00000
00000FFFFFFFC00000
00000FFFFFFFC00000
00000FFFFFFFC00000
00000FFFFFFFC00000
00000FFFFFFFC00000
00000FFFFFFFC00000
003FF00000003FF000
003FF00000003FF000
003FF00000003FF000
003FF00000003FF000
003FF00000003FF000
003FF00000003FF000
003FF00000003FF000
003FF00000003FF000
003FF00000003FF000
003FF00000003FF000
FFC000000000000FFC
FFC000000000000FFC
FFC000000000000FFC
FFC000000000000FFC
FFC000000000000FFC
FFC000000000000FFC
FFC000000000000FFC
FFC000000000000FFC
FFC000000000000FFC
FFC000000000000FFC
FFC000000000000FFC
FFC000000000000FFC
FFC000000000000FFC
FFC000000000000FFC
FFC000000000000FFC
FFC000000000000FFC
FFC000000000000FFC
FFC000000000000FFC
FFC000000000000FFC
FFC000000000000FFC
FFC000000000000FFC
FFC000000000000FFC
FFC000000000000FFC
FFC000000000000FFC
FFC000000000000FFC
FFC000000000000FFC
FFC000000000000FFC
FFC000000000000FFC
FFC000000000000FFC
FFC000000000000FFC
FFC000000000000FFC
FFC000000000000FFC
FFC000000000000FFC
FFC000000000000FFC
FFC000000000000FFC
FFC000000000000FFC
FFC000000000000FFC
FFC000000000000FFC
FFC000000000000FFC
FFC000000000000FFC
FFC000000000000FFC
FFC000000000000FFC
FFC000000000000FFC
FFC000000000000FFC
FFC000000000000FFC
FFC000000000000FFC
FFC000000000000FFC
FFC000000000000FFC
FFC000000000000FFC
FFC000000000000FFC
003FF00000003FF000
003FF00000003FF000
003FF00000003FF000
003FF00000003FF000
003FF00000003FF000
003FF00000003FF000
003FF00000003FF000
003FF00000003FF000
003FF00000003FF000
003FF00000003FF000
00000FFFFFFFC00000
00000FFFFFFFC00000
00000FFFFFFFC00000
00000FFFFFFFC00000
00000FFFFFFFC00000
00000FFFFFFFC00000
00000FFFFFFFC00000
00000FFFFFFFC00000
00000FFFFFFFC00000
00000FFFFFFFC00000
ENDCHAR
STARTCHAR P
ENCODING 80
SWIDTH 583 0
DWIDTH 70 0
BBX 60 90 10 0
BITMAP
FFFFFFFFFFFFC000
FFFFFFFFFFFFC000
FFFFFFFFFFFFC000
FFFFFFFFFFFFC000
FFFFFFFFFFFFC000
FFFFFFFFFFFFC000
FFFFFFFFFFFFC000
FFFFFFFFFFFFC000
FFFFFFFFFFFFC000
FFFFFFFFFFFFC000
FFC0000000003FF0
FFC0000000003FF0
FFC0000000003FF0
FFC0000000003FF0
FFC0000000003FF0
FFC0000000003FF0
FFC0000000003FF0
FFC0000000003FF0
FFC0000000003FF0
FFC0000000003FF0
FFC0000000003FF0
FFC0000000003FF0
FFC0000000003FF0
FFC0000000003FF0
FFC0000000003FF0
FFC0000000003FF0
FFC0000000003FF0
FFC0000000003FF0
FFC0000000003FF0
FFC0000000003FF0
FFC0000000003FF0
FFC0000000003FF0
FFC0000000003FF0
FFC0000000003FF0
FFC0000000003FF0
FFC0000000003FF0
FFC0000000003FF0
FFC0000000003FF0
FFC0000000003FF0
FFC0000000003FF0
FFFFFFFFFFFFC000
FFFFFFFFFFFFC000
FFFFFFFFFFFFC000
FFFFFFFFFFFFC000
FFFFFFFFFFFFC000
FFFFFFFFFFFFC000
FFFFFFFFFFFFC000
FFFFFFFFFFFFC000
FFFFFFFFFFFFC000
FFFFFFFFFFFFC000
FFC0000000000000
FFC0000000000000
FFC0000000000000
FFC0000000000000
FFC0000000000000
FFC0000000000000
FFC0000000000000
FFC0000000000000
FFC0000000000000
FFC0000000000000
FFC0000000000000
FFC0000000000000
FFC0000000000000
FFC0000000000000
FFC0000000000000
FFC0000000000000
FFC0000000000000
FFC0000000000000
FFC0000000000000
FFC0000000000000
FFC0000000000000
FFC0000000000000
FFC0000000000000
FFC0000000000000
FFC0000000000000
FFC0000000000000
FFC0000000000000
FFC0000000000000
FFC0000000000000
FFC0000000000000
FFC0000000000000
FFC0000000000000
FFC0000000000000
FFC0000000000000
FFC0000000000000
FFC0000000000000
FFC0000000000000
FFC0000000000000
FFC0000000000000
FFC0000000000000
ENDCHAR
STARTCHAR Q
ENCODING 81
SWIDTH 750 0
DWIDTH 90 0
BBX 70 110 10 -20
BITMAP
00000FFFFFFFC00000
00000FFFFFFFC00000
00000FFFFFFFC00000
00000FFFFFFFC00000
00000FFFFFFFC00000
00000FFFFFFFC00000
00000FFFFFFFC00000
00000FFFFFFFC00000
00000FFFFFFFC00000
00000FFFFFFFC00000
003FF00000003FF000
003FF00000003FF000
003FF00000003FF000
003FF00000003FF000
003FF00000003FF000
003FF00000003FF000
003FF00000003FF000
003FF00000003FF000
003FF00000003FF000
003FF00000003FF000
FFC000000000000FFC
FFC000000000000FFC
FFC000000000000FFC
FFC000000000000FFC
FFC000000000000FFC
FFC000000000000FFC
FFC000000000000FFC
FFC000000000000FFC
FFC000000000000FFC
FFC000000000000FFC
FFC000000000000FFC
FFC000000000000FFC
FFC000000000000FFC
FFC000000000000FFC
FFC000000000000FFC
FFC000000000000FFC
FFC000000000000FFC
FFC000000000000FFC
FFC000000000000FFC
FFC000000000000FFC
FFC000000000000FFC
FFC000000000000FFC
FFC000000000000FFC
FFC000000000000FFC
FFC000000000000FFC
FFC000000000000FFC
FFC000000000000FFC
FFC000000000000FFC
FFC000000000000FFC
FFC000000000000FFC
FFC000000000000FFC
FFC000000000000FFC
FFC000000000000FFC
FFC000000000000FFC
FFC000000000000FFC
FFC000000000000FFC
FFC000000000000FFC
FFC000000000000FFC
FFC000000000000FFC
FFC000000000000FFC
FFC000000000000FFC
FFC000000000000FFC
FFC000000000000FFC
FFC000000000000FFC
FFC000000000000FFC
FFC000000000000FFC
FFC000000000000FFC
FFC000000000000FFC
FFC000000000000FFC
FFC000000000000FFC
003FF00000003FF000
003FF00000003FF000
003FF00000003FF000
003FF00000003FF000
003FF00000003FF000
003FF00000003FF000
003FF00000003FF000
003FF00000003FF000
003FF00000003FF000
003FF00000003FF000
00000FFFFFFFC00000
00000FFFFFFFC00000
00000FFFFFFFC00000
00000FFFFFFFC00000
00000FFFFFFFC00000
00000FFFFFFFC00000
00000FFFFFFFC00000
00000FFFFFFFC00000
00000FFFFFFFC00000
00000FFFFFFFC00000
00000003FF00000000
00000003FF00000000
00000003FF00000000
00000003FF00000000
00000003FF00000000
00000003FF00000000
00000003FF00000000
00000003FF00000000
00000003FF00000000
00000003FF00000000
0000000000FFFFF000
0000000000FFFFF000
0000000000FFFFF000
0000000000FFFFF000
0000000000FFFFF000
0000000000FFFFF000
0000000000FFFFF000
0000000000FFFFF000
0000000000FFFFF000
0000000000FFFFF000
ENDCHAR
STARTCHAR R
ENCODING 82
SWIDTH 666 0
DWIDTH 80 0
BBX 70 90 10 0
BITMAP
FFFFFFFFFFFFFFF000
FFFFFFFFFFFFFFF000
FFFFFFFFFFFFFFF000
FFFFFFFFFFFFFFF000
FFFFFFFFFFFFFFF000
FFFFFFFFFFFFFFF000
FFFFFFFFFFFFFFF000
FFFFFFFFFFFFFFF000
FFFFFFFFFFFFFFF000
FFFFFFFFFFFFFFF000
FFC000000000000FFC
FFC000000000000FFC
FFC000000000000FFC
FFC000000000000FFC
FFC000000000000FFC
FFC000000000000FFC
FFC000000000000FFC
FFC000000000000FFC
FFC000000000000FFC
FFC000000000000FFC
FFC000000000000FFC
FFC000000000000FFC
FFC000000000000FFC
FFC000000000000FFC
FFC000000000000FFC
FFC000000000000FFC
FFC000000000000FFC
FFC000000000000FFC
FFC000000000000FFC
FFC000000000000FFC
FFC000000000000FFC
FFC000000000000FFC
FFC000000000000FFC
FFC000000000000FFC
FFC000000000000FFC
FFC000000000000FFC
FFC000000000000FFC
FFC000000000000FFC
FFC000000000000FFC
FFC000000000000FFC
FFFFFFFFFFFFFFF000
FFFFFFFFFFFFFFF000
FFFFFFFFFFFFFFF000
FFFFFFFFFFFFFFF000
FFFFFFFFFFFFFFF000
FFFFFFFFFFFFFFF000
FFFFFFFFFFFFFFF000
FFFFFFFFFFFFFFF000
FFFFFFFFFFFFFFF000
FFFFFFFFFFFFFFF000
FFC0000000FFC00000
FFC0000000FFC00000
FFC0000000FFC00000
FFC0000000FFC00000
FFC0000000FFC00000
FFC0000000FFC00000
FFC0000000FFC00000
FFC0000000FFC00000
FFC0000000FFC00000
FFC0000000FFC00000
FFC0000000FFC00000
FFC0000000FFC00000
FFC0000000FFC00000
FFC0000000FFC00000
FFC0000000FFC00000
FFC0000000FFC00000
FFC0000000FFC00000
FFC0000000FFC00000
FFC0000000FFC00000
FFC0000000FFC00000
FFC0000000003FF000
FFC0000000003FF000
FFC0000000003FF000
FFC0000000003FF000
FFC0000000003FF000
FFC0000000003FF000
FFC0000000003FF000
FFC0000000003FF000
FFC0000000003FF000
FFC0000000003FF000
FFC000000000000FFC
FFC000000000000FFC
FFC000000000000FFC
FFC000000000000FFC
FFC000000000000FFC
FFC000000000000FFC
FFC000000000000FFC
FFC000000000000FFC
FFC000000000000FFC
FFC000000000000FFC
ENDCHAR
STARTCHAR S
ENCODING 83
SWIDTH 583 0
DWIDTH 70 0
BBX 60 90 10 0
BITMAP
003FFFFFFFFFC000
003FFFFFFFFFC000
003FFFFFFFFFC000
003FFFFFFFFFC000
003FFFFFFFFFC000
003FFFFFFFFFC000
003FFFFFFFFFC000
003FFFFFFFFFC000
003FFFFFFFFFC000
003FFFFFFFFFC000
FFC0000000003FF0
FFC0000000003FF0
FFC0000000003FF0
FFC0000000003FF0
FFC0000000003FF0
FFC0000000003FF0
FFC0000000003FF0
FFC0000000003FF0
FFC0000000003FF0
FFC0000000003FF0
FFC0000000000000
FFC0000000000000
FFC0000000000000
FFC0000000000000
FFC0000000000000
FFC0000000000000
FFC0000000000000
FFC0000000000000
FFC0000000000000
FFC0000000000000
003FFFFC00000000
003FFFFC00000000
003FFFFC00000000
003FFFFC00000000
003FFFFC00000000
003FFFFC00000000
003FFFFC00000000
003FFFFC00000000
003FFFFC00000000
003FFFFC00000000
00000003FFFFC000
00000003FFFFC000
00000003FFFFC000
00000003FFFFC000
00000003FFFFC000
00000003FFFFC000
00000003FFFFC000
00000003FFFFC000
00000003FFFFC000
00000003FFFFC000
0000000000003FF0
0000000000003FF0
0000000000003FF0
0000000000003FF0
0000000000003FF0
0000000000003FF0
0000000000003FF0
0000000000003FF0
0000000000003FF0
0000000000003FF0
0000000000003FF0
0000000000003FF0
0000000000003FF0
0000000000003FF0
0000000000003FF0
0000000000003FF0
0000000000003FF0
0000000000003FF0
0000000000003FF0
0000000000003FF0
FFC0000000FFFFF0
FFC0000000FFFFF0
FFC0000000FFFFF0
FFC0000000FFFFF0
FFC0000000FFFFF0
FFC0000000FFFFF0
FFC0000000FFFFF0
FFC0000000FFFFF0
FFC0000000FFFFF0
FFC0000000FFFFF0
003FFFFFFFFFC000
003FFFFFFFFFC000
003FFFFFFFFFC000
003FFFFFFFFFC000
003FFFFFFFFFC000
003FFFFFFFFFC000
003FFFFFFFFFC000
003FFFFFFFFFC000
003FFFFFFFFFC000
003FFFFFFFFFC000
ENDCHAR
STARTCHAR T
ENCODING 84
SWIDTH 583 0
DWIDTH 70 0
BBX 70 90 0 0
BITMAP
FFFFFFFFFFFFFFFFFC
FFFFFFFFFFFFFFFFFC
FFFFFFFFFFFFFFFFFC
FFFFFFFFFFFFFFFFFC
FFFFFFFFFFFFFFFFFC
FFFFFFFFFFFFFFFFFC
FFFFFFFFFFFFFFFFFC
FFFFFFFFFFFFFFFFFC
FFFFFFFFFFFFFFFFFC
FFFFFFFFFFFFFFFFFC
00000003FF00000000
00000003FF00000000
00000003FF00000000
00000003FF00000000
00000003FF00000000
00000003FF00000000
00000003FF00000000
00000003FF00000000
00000003FF00000000
00000003FF00000000
00000003FF00000000
00000003FF00000000
00000003FF00000000
00000003FF00000000
00000003FF00000000
00000003FF00000000
00000003FF00000000
00000003FF00000000
00000003FF00000000
00000003FF00000000
00000003FF00000000
00000003FF00000000
00000003FF00000000
00000003FF00000000
00000003FF00000000
00000003FF00000000
00000003FF00000000
00000003FF00000000
00000003FF00000000
00000003FF00000000
00000003FF00000000
00000003FF00000000
00000003FF00000000
00000003FF00000000
00000003FF00000000
00000003FF00000000
00000003FF00000000
00000003FF00000000
00000003FF00000000
00000003FF00000000
00000003FF00000000
00000003FF00000000
00000003FF00000000
00000003FF00000000
00000003FF00000000
00000003FF00000000
00000003FF00000000
00000003FF00000000
00000003FF00000000
00000003FF00000000
00000003FF00000000
00000003FF00000000
00000003FF00000000
00000003FF00000000
00000003FF00000000
00000003FF00000000
00000003FF00000000
00000003FF00000000
00000003FF00000000
00000003FF00000000
00000003FF00000000
00000003FF00000000
00000003FF00000000
00000003FF00000000
00000003FF00000000
00000003FF00000000
00000003FF00000000
00000003FF00000000
00000003FF00000000
00000003FF00000000
00000003FF00000000
00000003FF00000000
00000003FF00000000
00000003FF00000000
00000003FF00000000
00000003FF00000000
00000003FF00000000
00000003FF00000000
00000003FF00000000
00000003FF00000000
ENDCHAR
STARTCHAR U
ENCODING 85
SWIDTH 666 0
DWIDTH 80 0
BBX 70 90 10 0
BITMAP
FFC000000000000FFC
FFC000000000000FFC
FFC000000000000FFC
FFC000000000000FFC
FFC000000000000FFC
FFC000000000000FFC
FFC000000000000FFC
FFC000000000000FFC
FFC000000000000FFC
FFC000000000000FFC
FFC000000000000FFC
FFC000000000000FFC
FFC000000000000FFC
FFC000000000000FFC
FFC000000000000FFC
FFC000000000000FFC
FFC000000000000FFC
FFC000000000000FFC
FFC000000000000FFC
FFC000000000000FFC
FFC000000000000FFC
FFC000000000000FFC
FFC000000000000FFC
FFC000000000000FFC
FFC000000000000FFC
FFC000000000000FFC
FFC000000000000FFC
FFC000000000000FFC
FFC000000000000FFC
FFC000000000000FFC
FFC000000000000FFC
FFC000000000000FFC
FFC000000000000FFC
FFC000000000000FFC
FFC000000000000FFC
FFC000000000000FFC
FFC000000000000FFC
FFC000000000000FFC
FFC000000000000FFC
FFC000000000000FFC
FFC000000000000FFC
FFC000000000000FFC
FFC000000000000FFC
FFC000000000000FFC
FFC000000000000FFC
FFC000000000000FFC
FFC000000000000FFC
FFC000000000000FFC
FFC000000000000FFC
FFC000000000000FFC
FFC000000000000FFC
FFC000000000000FFC
FFC000000000000FFC
FFC000000000000FFC
FFC000000000000FFC
FFC000000000000FFC
FFC000000000000FFC
FFC000000000000FFC
FFC000000000000FFC
FFC000000000000FFC
FFC000000000000FFC
FFC000000000000FFC
FFC000000000000FFC
FFC000000000000FFC
FFC000000000000FFC
FFC000000000000FFC
FFC000000000000FFC
FFC000000000000FFC
FFC000000000000FFC
FFC000000000000FFC
003FF00000003FF000
003FF00000003FF000
003FF00000003FF000
003FF00000003FF000
003FF00000003FF000
003FF00000003FF000
003FF00000003FF000
003FF00000003FF000
003FF00000003FF000
003FF00000003FF000
00000FFFFFFFC00000
00000FFFFFFFC00000
00000FFFFFFFC00000
00000FFFFFFFC00000
00000FFFFFFFC00000
00000FFFFFFFC00000
00000FFFFFFFC00000
00000FFFFFFFC00000
00000FFFFFFFC00000
00000FFFFFFFC00000
ENDCHAR
STARTCHAR V
ENCODING 86
SWIDTH 583 0
DWIDTH 70 0
BBX 70 90 0 0
BITMAP
FFC000000000000FFC
FFC000000000000FFC
FFC000000000000FFC
FFC000000000000FFC
FFC000000000000FFC
FFC000000000000FFC
FFC000000000000FFC
FFC000000000000FFC
FFC000000000000FFC
FFC000000000000FFC
FFC000000000000FFC
FFC000000000000FFC
FFC000000000000FFC
FFC000000000000FFC
FFC000000000000FFC
FFC000000000000FFC
FFC000000000000FFC
FFC000000000000FFC
FFC000000000000FFC
FFC000000000000FFC
003FF00000003FF000
003FF00000003FF000
003FF00000003FF000
003FF00000003FF000
003FF00000003FF000
003FF00000003FF000
003FF00000003FF000
003FF00000003FF000
003FF00000003FF000
003FF00000003FF000
003FF00000003FF000
003FF00000003FF000
003FF00000003FF000
003FF00000003FF000
003FF00000003FF000
003FF00000003FF000
003FF00000003FF000
003FF00000003FF000
003FF00000003FF000
003FF00000003FF000
003FF00000003FF000
003FF00000003FF000
003FF00000003FF000
003FF00000003FF000
003FF00000003FF000
003FF00000003FF000
003FF00000003FF000
003FF00000003FF000
003FF00000003FF000
003FF00000003FF000
00000FFC00FFC00000
00000FFC00FFC00000
00000FFC00FFC00000
00000FFC00FFC00000
00000FFC00FFC00000
00000FFC00FFC00000
00000FFC00FFC00000
00000FFC00FFC00000
00000FFC00FFC00000
00000FFC00FFC00000
00000FFC00FFC00000
00000FFC00FFC00000
00000FFC00FFC00000
00000FFC00FFC00000
00000FFC00FFC00000
00000FFC00FFC00000
00000FFC00FFC00000
00000FFC00FFC00000
00000FFC00FFC00000
00000FFC00FFC00000
00000FFC00FFC00000
00000FFC00FFC00000
00000FFC00FFC00000
00000FFC00FFC00000
00000FFC00FFC00000
00000FFC00FFC00000
00000FFC00FFC00000
00000FFC00FFC00000
00000FFC00FFC00000
00000FFC00FFC00000
00000003FF00000000
00000003FF00000000
00000003FF00000000
00000003FF00000000
00000003FF00000000
00000003FF00000000
00000003FF00000000
00000003FF00000000
00000003FF00000000
00000003FF00000000
ENDCHAR
STARTCHAR W
ENCODING 87
SWIDTH 916 0
DWIDTH 110 0
BBX 90 90 10 0
BITMAP
FFC0000000FFC0000000FFC0
FFC0000000FFC0000000FFC0
FFC0000000FFC0000000FFC0
FFC0000000FFC0000000FFC0
FFC0000000FFC0000000FFC0
FFC0000000FFC0000000FFC0
FFC0000000FFC0000000FFC0
FFC0000000FFC0000000FFC0
FFC0000000FFC0000000FFC0
FFC0000000FFC0000000FFC0
FFC0000000FFC0000000FFC0
FFC0000000FFC0000000FFC0
FFC0000000FFC0000000FFC0
FFC0000000FFC0000000FFC0
FFC0000000FFC0000000FFC0
FFC0000000FFC0000000FFC0
FFC0000000FFC0000000FFC0
FFC0000000FFC0000000FFC0
FFC0000000FFC0000000FFC0
FFC0000000FFC0000000FFC0
003FF003FF003FF003FF0000
003FF003FF003FF003FF0000
003FF003FF003FF003FF0000
003FF003FF003FF003FF0000
003FF003FF003FF003FF0000
003FF003FF003FF003FF0000
003FF003FF003FF003FF0000
003FF003FF003FF003FF0000
003FF003FF003FF003FF0000
003FF003FF003FF003FF0000
003FF003FF003FF003FF0000
003FF003FF003FF003FF0000
003FF003FF003FF003FF0000
003FF003FF003FF003FF0000
003FF003FF003FF003FF0000
003FF003FF003FF003FF0000
003FF003FF003FF003FF0000
003FF003FF003FF003FF0000
003FF003FF003FF003FF0000
003FF003FF003FF003FF0000
003FF003FF003FF003FF0000
003FF003FF003FF003FF0000
003FF003FF003FF003FF0000
003FF003FF003FF003FF0000
003FF003FF003FF003FF0000
003FF003FF003FF003FF0000
003FF003FF003FF003FF0000
003FF003FF003FF003FF0000
003FF003FF003FF003FF0000
003FF003FF003FF003FF0000
003FF003FF003FF003FF0000
003FF003FF003FF003FF0000
003FF003FF003FF003FF0000
003FF003FF003FF003FF0000
003FF003FF003FF003FF0000
003FF003FF003FF003FF0000
003FF003FF003FF003FF0000
003FF003FF003FF003FF0000
003FF003FF003FF003FF0000
003FF003FF003FF003FF0000
003FF003FF003FF003FF0000
003FF003FF003FF003FF0000
003FF003FF003FF003FF0000
003FF003FF003FF003FF0000
003FF003FF003FF003FF0000
003FF003FF003FF003FF0000
003FF003FF003FF003FF0000
003FF003FF003FF003FF0000
003FF003FF003FF003FF0000
003FF003FF003FF003FF0000
00000FFC0000000FFC000000
00000FFC0000000FFC000000
00000FFC0000000FFC000000
00000FFC0000000FFC000000
00000FFC0000000FFC000000
00000FFC0000000FFC000000
00000FFC0000000FFC000000
00000FFC0000000FFC000000
00000FFC0000000FFC000000
00000FFC0000000FFC000000
00000FFC0000000FFC000000
00000FFC0000000FFC000000
00000FFC0000000FFC000000
00000FFC0000000FFC000000
00000FFC0000000FFC000000
00000FFC0000000FFC000000
00000FFC0000000FFC000000
00000FFC0000000FFC000000
00000FFC0000000FFC000000
00000FFC0000000FFC000000
ENDCHAR
STARTCHAR X
ENCODING 88
SWIDTH 583 0
DWIDTH 70 0
BBX 70 90 0 0
BITMAP
FFC000000000000FFC
FFC000000000000FFC
FFC000000000000FFC
FFC000000000000FFC
FFC000000000000FFC
FFC000000000000FFC
FFC000000000000FFC
FFC000000000000FFC
FFC000000000000FFC
FFC000000000000FFC
003FF00000003FF000
003FF00000003FF000
003FF00000003FF000
003FF00000003FF000
003FF00000003FF000
003FF00000003FF000
003FF00000003FF000
003FF00000003FF000
003FF00000003FF000
003FF00000003FF000
00000FFC00FFC00000
00000FFC00FFC00000
00000FFC00FFC00000
00000FFC00FFC00000
00000FFC00FFC00000
00000FFC00FFC00000
00000FFC00FFC00000
00000FFC00FFC00000
00000FFC00FFC00000
00000FFC00FFC00000
00000FFC00FFC00000
00000FFC00FFC00000
00000FFC00FFC00000
00000FFC00FFC00000
00000FFC00FFC00000
00000FFC00FFC00000
00000FFC00FFC00000
00000FFC00FFC00000
00000FFC00FFC00000
00000FFC00FFC00000
00000003FF00000000
00000003FF00000000
00000003FF00000000
00000003FF00000000
00000003FF00000000
00000003FF00000000
00000003FF00000000
00000003FF00000000
00000003FF00000000
00000003FF00000000
00000FFC00FFC00000
00000FFC00FFC00000
00000FFC00FFC00000
00000FFC00FFC00000
00000FFC00FFC00000
00000FFC00FFC00000
00000FFC00FFC00000
00000FFC00FFC00000
00000FFC00FFC00000
00000FFC00FFC00000
00000FFC00FFC00000
00000FFC00FFC00000
00000FFC00FFC00000
00000FFC00FFC00000
00000FFC00FFC00000
00000FFC00FFC00000
00000FFC00FFC00000
00000FFC00FFC00000
00000FFC00FFC00000
00000FFC00FFC00000
003FF00000003FF000
003FF00000003FF000
003FF00000003FF000
003FF00000003FF000
003FF00000003FF000
003FF00000003FF000
003FF00000003FF000
003FF00000003FF000
003FF00000003FF000
003FF00000003FF000
FFC000000000000FFC
FFC000000000000FFC
FFC000000000000FFC
FFC000000000000FFC
FFC000000000000FFC
FFC000000000000FFC
FFC000000000000FFC
FFC000000000000FFC
FFC000000000000FFC
FFC000000000000FFC
ENDCHAR
STARTCHAR Y
ENCODING 89
SWIDTH 583 0
DWIDTH 70 0
BBX 70 90 0 0
BITMAP
FFC000000000000FFC
FFC000000000000FFC
FFC000000000000FFC
FFC000000000000FFC
FFC000000000000FFC
FFC000000000000FFC
FFC000000000000FFC
FFC000000000000FFC
FFC000000000000FFC
FFC000000000000FFC
003FF00000003FF000
003FF00000003FF000
003FF00000003FF000
003FF00000003FF000
003FF00000003FF000
003FF00000003FF000
003FF00000003FF000
003FF00000003FF000
003FF00000003FF000
003FF00000003FF000
00000FFC00FFC00000
00000FFC00FFC00000
00000FFC00FFC00000
00000FFC00FFC00000
00000FFC00FFC00000
00000FFC00FFC00000
00000FFC00FFC00000
00000FFC00FFC00000
00000FFC00FFC00000
00000FFC00FFC00000
00000FFC00FFC00000
00000FFC00FFC00000
00000FFC00FFC00000
00000FFC00FFC00000
00000FFC00FFC00000
00000FFC00FFC00000
00000FFC00FFC00000
00000FFC00FFC00000
00000FFC00FFC00000
00000FFC00FFC00000
00000003FF00000000
00000003FF00000000
00000003FF00000000
00000003FF00000000
00000003FF00000000
00000003FF00000000
00000003FF00000000
00000003FF00000000
00000003FF00000000
00000003FF00000000
00000003FF00000000
00000003FF00000000
00000003FF00000000
00000003FF00000000
00000003FF00000000
00000003FF00000000
00000003FF00000000
00000003FF00000000
00000003FF00000000
00000003FF00000000
00000003FF00000000
00000003FF00000000
00000003FF00000000
00000003FF00000000
00000003FF00000000
00000003FF00000000
00000003FF00000000
00000003FF00000000
00000003FF00000000
00000003FF00000000
00000003FF00000000
00000003FF00000000
00000003FF00000000
00000003FF00000000
00000003FF00000000
00000003FF00000000
00000003FF00000000
00000003FF00000000
00000003FF00000000
00000003FF00000000
00000003FF00000000
00000003FF00000000
00000003FF00000000
00000003FF00000000
00000003FF00000000
00000003FF00000000
00000003FF00000000
00000003FF00000000
00000003FF00000000
00000003FF00000000
ENDCHAR
STARTCHAR Z
ENCODING 90
SWIDTH 583 0
DWIDTH 70 0
BBX 50 90 10 0
BITMAP
FFFFFFFFFFFFC0
FFFFFFFFFFFFC0
FFFFFFFFFFFFC0
FFFFFFFFFFFFC0
FFFFFFFFFFFFC0
FFFFFFFFFFFFC0
FFFFFFFFFFFFC0
FFFFFFFFFFFFC0
FFFFFFFFFFFFC0
FFFFFFFFFFFFC0
0000000000FFC0
0000000000FFC0
0000000000FFC0
0000000000FFC0
0000000000FFC0
0000000000FFC0
0000000000FFC0
0000000000FFC0
0000000000FFC0
0000000000FFC0
00000003FF0000
00000003FF0000
00000003FF0000
00000003FF0000
00000003FF0000
00000003FF0000
00000003FF0000
00000003FF0000
00000003FF0000
00000003FF0000
00000003FF0000
00000003FF0000
00000003FF0000
00000003FF0000
00000003FF0000
00000003FF0000
00000003FF0000
00000003FF0000
00000003FF0000
00000003FF0000
00000FFC000000
00000FFC000000
00000FFC000000
00000FFC000000
00000FFC000000
00000FFC000000
00000FFC000000
00000FFC000000
00000FFC000000
00000FFC000000
003FF000000000
003FF000000000
003FF000000000
003FF000000000
003FF000000000
003FF000000000
003FF000000000
003FF000000000
003FF000000000
003FF000000000
003FF000000000
003FF000000000
003FF000000000
003FF000000000
003FF000000000
003FF000000000
003FF000000000
003FF000000000
003FF000000000
003FF000000000
FFC00000000000
FFC00000000000
FFC00000000000
FFC00000000000
FFC00000000000
FFC00000000000
FFC00000000000
FFC00000000000
FFC00000000000
FFC00000000000
FFFFFFFFFFFFC0
FFFFFFFFFFFFC0
FFFFFFFFFFFFC0
FFFFFFFFFFFFC0
FFFFFFFFFFFFC0
FFFFFFFFFFFFC0
FFFFFFFFFFFFC0
FFFFFFFFFFFFC0
FFFFFFFFFFFFC0
FFFFFFFFFFFFC0
ENDCHAR
STARTCHAR bracketleft
ENCODING 91
SWIDTH 250 0
DWIDTH 30 0
BBX 20 110 10 -20
BITMAP
FFFFF0
FFFFF0
FFFFF0
FFFFF0
FFFFF0
FFFFF0
FFFFF0
FFFFF0
FFFFF0
FFFFF0
FFC000
FFC000
FFC000
FFC000
FFC000
FFC000
FFC000
FFC000
FFC000
FFC000
FFC000
FFC000
FFC000
FFC000
FFC000
FFC000
FFC000
FFC000
FFC000
FFC000
FFC000
FFC000
FFC000
FFC000
FFC000
FFC000
FFC000
FFC000
FFC000
FFC000
FFC000
FFC000
FFC000
FFC000
FFC000
FFC000
FFC000
FFC000
FFC000
FFC000
FFC000
FFC000
FFC000
FFC000
FFC000
FFC000
FFC000
FFC000
FFC000
FFC000
FFC000
FFC000
FFC000
FFC000
FFC000
FFC000
FFC000
FFC000
FFC000
FFC000
FFC000
FFC000
FFC000
FFC000
FFC000
FFC000
FFC000
FFC000
FFC000
FFC000
FFC000
FFC000
FFC000
FFC000
FFC000
FFC000
FFC000
FFC000
FFC000
FFC000
FFC000
FFC000
FFC000
FFC000
FFC000
FFC000
FFC000
FFC000
FFC000
FFC000
FFFFF0
FFFFF0
FFFFF0
FFFFF0
FFFFF0
FFFFF0
FFFFF0
FFFFF0
FFFFF0
FFFFF0
ENDCHAR
STARTCHAR backslash
ENCODING 92
SWIDTH 250 0
DWIDTH 30 0
BBX 30 90 0 0
BITMAP
FFC00000
FFC00000
FFC00000
FFC00000
FFC00000
FFC00000
FFC00000
FFC00000
FFC00000
FFC00000
FFC00000
FFC00000
FFC00000
FFC00000
FFC00000
FFC00000
FFC00000
FFC00000
FFC00000
FFC00000
FFC00000
FFC00000
FFC00000
FFC00000
FFC00000
FFC00000
FFC00000
FFC00000
FFC00000
FFC00000
003FF000
003FF000
003FF000
003FF000
003FF000
003FF000
003FF000
003FF000
003FF000
003FF000
003FF000
003FF000
003FF000
003FF000
003FF000
003FF000
003FF000
003FF000
003FF000
003FF000
003FF000
003FF000
003FF000
003FF000
003FF000
003FF000
003FF000
003FF000
003FF000
003FF000
003FF000
003FF000
003FF000
003FF000
003FF000
003FF000
003FF000
003FF000
003FF000
003FF000
00000FFC
00000FFC
00000FFC
00000FFC
00000FFC
00000FFC
00000FFC
00000FFC
00000FFC
00000FFC
00000FFC
00000FFC
00000FFC
00000FFC
00000FFC
00000FFC
00000FFC
00000FFC
00000FFC
00000FFC
ENDCHAR
STARTCHAR bracketright
ENCODING 93
SWIDTH 250 0
DWIDTH 30 0
BBX 20 110 0 -20
BITMAP
FFFFF0
FFFFF0
FFFFF0
FFFFF0
FFFFF0
FFFFF0
FFFFF0
FFFFF0
FFFFF0
FFFFF0
003FF0
003FF0
003FF0
003FF0
003FF0
003FF0
003FF0
003FF0
003FF0
003FF0
003FF0
003FF0
003FF0
003FF0
003FF0
003FF0
003FF0
003FF0
003FF0
003FF0
003FF0
003FF0
003FF0
003FF0
003FF0
003FF0
003FF0
003FF0
003FF0
003FF0
003FF0
003FF0
003FF0
003FF0
003FF0
003FF0
003FF0
003FF0
003FF0
003FF0
003FF0
003FF0
003FF0
003FF0
003FF0
003FF0
003FF0
003FF0
003FF0
003FF0
003FF0
003FF0
003FF0
003FF0
003FF0
003FF0
003FF0
003FF0
003FF0
003FF0
003FF0
003FF0
003FF0
003FF0
003FF0
003FF0
003FF0
003FF0
003FF0
003FF0
003FF0
003FF0
003FF0
003FF0
003FF0
003FF0
003FF0
003FF0
003FF0
003FF0
003FF0
003FF0
003FF0
003FF0
003FF0
003FF0
003FF0
003FF0
003FF0
003FF0
FFFFF0
FFFFF0
FFFFF0
FFFFF0
FFFFF0
FFFFF0
FFFFF0
FFFFF0
FFFFF0
FFFFF0
ENDCHAR
STARTCHAR asciicircum
ENCODING 94
SWIDTH 416 0
DWIDTH 50 0
BBX 50 50 0 40
BITMAP
00000FFC000000
00000FFC000000
00000FFC000000
00000FFC000000
00000FFC000000
00000FFC000000
00000FFC000000
00000FFC000000
00000FFC000000
00000FFC000000
003FF003FF0000
003FF003FF0000
003FF003FF0000
003FF003FF0000
003FF003FF0000
003FF003FF0000
003FF003FF0000
003FF003FF0000
003FF003FF0000
003FF003FF0000
003FF003FF0000
003FF003FF0000
003FF003FF0000
003FF003FF0000
003FF003FF0000
003FF003FF0000
003FF003FF0000
003FF003FF0000
003FF003FF0000
003FF003FF0000
FFC00003FF0000
FFC00003FF0000
FFC00003FF0000
FFC00003FF0000
FFC00003FF0000
FFC00003FF0000
FFC00003FF0000
FFC00003FF0000
FFC00003FF0000
FFC00003FF0000
FFC0000000FFC0
FFC0000000FFC0
FFC0000000FFC0
FFC0000000FFC0
FFC0000000FFC0
FFC0000000FFC0
FFC0000000FFC0
FFC0000000FFC0
FFC0000000FFC0
FFC0000000FFC0
ENDCHAR
STARTCHAR underscore
ENCODING 95
SWIDTH 500 0
DWIDTH 60 0
BBX 70 10 0 -30
BITMAP
FFFFFFFFFFFFFFFFFC
FFFFFFFFFFFFFFFFFC
FFFFFFFFFFFFFFFFFC
FFFFFFFFFFFFFFFFFC
FFFFFFFFFFFFFFFFFC
FFFFFFFFFFFFFFFFFC
FFFFFFFFFFFFFFFFFC
FFFFFFFFFFFFFFFFFC
FFFFFFFFFFFFFFFFFC
FFFFFFFFFFFFFFFFFC
ENDCHAR
STARTCHAR grave
ENCODING 96
SWIDTH 250 0
DWIDTH 30 0
BBX 20 20 10 80
BITMAP
FFC000
FFC000
FFC000
FFC000
FFC000
FFC000
FFC000
FFC000
FFC000
FFC000
003FF0
003FF0
003FF0
003FF0
003FF0
003FF0
003FF0
003FF0
003FF0
003FF0
ENDCHAR
STARTCHAR a
ENCODING 97
SWIDTH 500 0
DWIDTH 60 0
BBX 60 70 10 0
BITMAP
003FFFFFFF000000
003FFFFFFF000000
003FFFFFFF000000
003FFFFFFF000000
003FFFFFFF000000
003FFFFFFF000000
003FFFFFFF000000
003FFFFFFF000000
003FFFFFFF000000
003FFFFFFF000000
FFC0000000FFC000
FFC0000000FFC000
FFC0000000FFC000
FFC0000000FFC000
FFC0000000FFC000
FFC0000000FFC000
FFC0000000FFC000
FFC0000000FFC000
FFC0000000FFC000
FFC0000000FFC000
0000000000FFC000
0000000000FFC000
0000000000FFC000
0000000000FFC000
0000000000FFC000
0000000000FFC000
0000000000FFC000
0000000000FFC000
0000000000FFC000
0000000000FFC000
003FFFFFFFFFC000
003FFFFFFFFFC000
003FFFFFFFFFC000
003FFFFFFFFFC000
003FFFFFFFFFC000
003FFFFFFFFFC000
003FFFFFFFFFC000
003FFFFFFFFFC000
003FFFFFFFFFC000
003FFFFFFFFFC000
FFC0000000FFC000
FFC0000000FFC000
FFC0000000FFC000
FFC0000000FFC000
FFC0000000FFC000
FFC0000000FFC000
FFC0000000FFC000
FFC0000000FFC000
FFC0000000FFC000
FFC0000000FFC000
FFC00003FFFFC000
FFC00003FFFFC000
FFC00003FFFFC000
FFC00003FFFFC000
FFC00003FFFFC000
FFC00003FFFFC000
FFC00003FFFFC000
FFC00003FFFFC000
FFC00003FFFFC000
FFC00003FFFFC000
003FFFFC00003FF0
003FFFFC00003FF0
003FFFFC00003FF0
003FFFFC00003FF0
003FFFFC00003FF0
003FFFFC00003FF0
003FFFFC00003FF0
003FFFFC00003FF0
003FFFFC00003FF0
003FFFFC00003FF0
ENDCHAR
STARTCHAR b
ENCODING 98
SWIDTH 500 0
DWIDTH 60 0
BBX 50 90 10 0
BITMAP
FFC00000000000
FFC00000000000
FFC00000000000
FFC00000000000
FFC00000000000
FFC00000000000
FFC00000000000
FFC00000000000
FFC00000000000
FFC00000000000
FFC00000000000
FFC00000000000
FFC00000000000
FFC00000000000
FFC00000000000
FFC00000000000
FFC00000000000
FFC00000000000
FFC00000000000
FFC00000000000
FFC00FFFFF0000
FFC00FFFFF0000
FFC00FFFFF0000
FFC00FFFFF0000
FFC00FFFFF0000
FFC00FFFFF0000
FFC00FFFFF0000
FFC00FFFFF0000
FFC00FFFFF0000
FFC00FFFFF0000
FFFFF00000FFC0
FFFFF00000FFC0
FFFFF00000FFC0
FFFFF00000FFC0
FFFFF00000FFC0
FFFFF00000FFC0
FFFFF00000FFC0
FFFFF00000FFC0
FFFFF00000FFC0
FFFFF00000FFC0
FFC0000000FFC0
FFC0000000FFC0
FFC0000000FFC0
FFC0000000FFC0
FFC0000000FFC0
FFC0000000FFC0
FFC0000000FFC0
FFC0000000FFC0
FFC0000000FFC0
FFC0000000FFC0
FFC0000000FFC0
FFC0000000FFC0
FFC0000000FFC0
FFC0000000FFC0
FFC0000000FFC0
FFC0000000FFC0
FFC0000000FFC0
FFC0000000FFC0
FFC0000000FFC0
FFC0000000FFC0
FFC0000000FFC0
FFC0000000FFC0
FFC0000000FFC0
FFC0000000FFC0
FFC0000000FFC0
FFC0000000FFC0
FFC0000000FFC0
FFC0000000FFC0
FFC0000000FFC0
FFC0000000FFC0
FFFFF00000FFC0
FFFFF00000FFC0
FFFFF00000FFC0
FFFFF00000FFC0
FFFFF00000FFC0
FFFFF00000FFC0
FFFFF00000FFC0
FFFFF00000FFC0
FFFFF00000FFC0
FFFFF00000FFC0
FFC00FFFFF0000
FFC00FFFFF0000
FFC00FFFFF0000
FFC00FFFFF0000
FFC00FFFFF0000
FFC00FFFFF0000
FFC00FFFFF0000
FFC00FFFFF0000
FFC00FFFFF0000
FFC00FFFFF0000
ENDCHAR
STARTCHAR c
ENCODING 99
SWIDTH 500 0
DWIDTH 60 0
BBX 40 70 10 0
BITMAP
003FFFFC00
003FFFFC00
003FFFFC00
003FFFFC00
003FFFFC00
003FFFFC00
003FFFFC00
003FFFFC00
003FFFFC00
003FFFFC00
FFC00003FF
FFC00003FF
FFC00003FF
FFC00003FF
FFC00003FF
FFC00003FF
FFC00003FF
FFC00003FF
FFC00003FF
FFC00003FF
FFC0000000
FFC0000000
FFC0000000
FFC0000000
FFC0000000
FFC0000000
FFC0000000
FFC0000000
FFC0000000
FFC0000000
FFC0000000
FFC0000000
FFC0000000
FFC0000000
FFC0000000
FFC0000000
FFC0000000
FFC0000000
FFC0000000
FFC0000000
FFC0000000
FFC0000000
FFC0000000
FFC0000000
FFC0000000
FFC0000000
FFC0000000
FFC0000000
FFC0000000
FFC0000000
FFC00003FF
FFC00003FF
FFC00003FF
FFC00003FF
FFC00003FF
FFC00003FF
FFC00003FF
FFC00003FF
FFC00003FF
FFC00003FF
003FFFFC00
003FFFFC00
003FFFFC00
003FFFFC00
003FFFFC00
003FFFFC00
003FFFFC00
003FFFFC00
003FFFFC00
003FFFFC00
ENDCHAR
STARTCHAR d
ENCODING 100
SWIDTH 500 0
DWIDTH 60 0
BBX 50 90 10 0
BITMAP
0000000000FFC0
0000000000FFC0
0000000000FFC0
0000000000FFC0
0000000000FFC0
0000000000FFC0
0000000000FFC0
0000000000FFC0
0000000000FFC0
0000000000FFC0
0000000000FFC0
0000000000FFC0
0000000000FFC0
0000000000FFC0
0000000000FFC0
0000000000FFC0
0000000000FFC0
0000000000FFC0
0000000000FFC0
0000000000FFC0
003FFFFC00FFC0
003FFFFC00FFC0
003FFFFC00FFC0
003FFFFC00FFC0
003FFFFC00FFC0
003FFFFC00FFC0
003FFFFC00FFC0
003FFFFC00FFC0
003FFFFC00FFC0
003FFFFC00FFC0
FFC00003FFFFC0
FFC00003FFFFC0
FFC00003FFFFC0
FFC00003FFFFC0
FFC00003FFFFC0
FFC00003FFFFC0
FFC00003FFFFC0
FFC00003FFFFC0
FFC00003FFFFC0
FFC00003FFFFC0
FFC0000000FFC0
FFC0000000FFC0
FFC0000000FFC0
FFC0000000FFC0
FFC0000000FFC0
FFC0000000FFC0
FFC0000000FFC0
FFC0000000FFC0
FFC0000000FFC0
FFC0000000FFC0
FFC0000000FFC0
FFC0000000FFC0
FFC0000000FFC0
FFC0000000FFC0
FFC0000000FFC0
FFC0000000FFC0
FFC0000000FFC0
FFC0000000FFC0
FFC0000000FFC0
FFC0000000FFC0
FFC0000000FFC0
FFC0000000FFC0
FFC0000000FFC0
FFC0000000FFC0
FFC0000000FFC0
FFC0000000FFC0
FFC0000000FFC0
FFC0000000FFC0
FFC0000000FFC0
FFC0000000FFC0
FFC00003FFFFC0
FFC00003FFFFC0
FFC00003FFFFC0
FFC00003FFFFC0
FFC00003FFFFC0
FFC00003FFFFC0
FFC00003FFFFC0
FFC00003FFFFC0
FFC00003FFFFC0
FFC00003FFFFC0
003FFFFC00FFC0
003FFFFC00FFC0
003FFFFC00FFC0
003FFFFC00FFC0
003FFFFC00FFC0
003FFFFC00FFC0
003FFFFC00FFC0
003FFFFC00FFC0
003FFFFC00FFC0
003FFFFC00FFC0
ENDCHAR
STARTCHAR e
ENCODING 101
SWIDTH 500 0
DWIDTH 60 0
BBX 50 70 10 0
BITMAP
003FFFFFFF0000
003FFFFFFF0000
003FFFFFFF0000
003FFFFFFF0000
003FFFFFFF0000
003FFFFFFF0000
003FFFFFFF0000
003FFFFFFF0000
003FFFFFFF0000
003FFFFFFF0000
FFC0000000FFC0
FFC0000000FFC0
FFC0000000FFC0
FFC0000000FFC0
FFC0000000FFC0
FFC0000000FFC0
FFC0000000FFC0
FFC0000000FFC0
FFC0000000FFC0
FFC0000000FFC0
FFC0000000FFC0
FFC0000000FFC0
FFC0000000FFC0
FFC0000000FFC0
FFC0000000FFC0
FFC0000000FFC0
FFC0000000FFC0
FFC0000000FFC0
FFC0000000FFC0
FFC0000000FFC0
FFFFFFFFFFFFC0
FFFFFFFFFFFFC0
FFFFFFFFFFFFC0
FFFFFFFFFFFFC0
FFFFFFFFFFFFC0
FFFFFFFFFFFFC0
FFFFFFFFFFFFC0
FFFFFFFFFFFFC0
FFFFFFFFFFFFC0
FFFFFFFFFFFFC0
FFC00000000000
FFC00000000000
FFC00000000000
FFC00000000000
FFC00000000000
FFC00000000000
FFC00000000000
FFC00000000000
FFC00000000000
FFC00000000000
FFC0000000FFC0
FFC0000000FFC0
FFC0000000FFC0
FFC0000000FFC0
FFC0000000FFC0
FFC0000000FFC0
FFC0000000FFC0
FFC0000000FFC0
FFC0000000FFC0
FFC0000000FFC0
003FFFFFFF0000
003FFFFFFF0000
003FFFFFFF0000
003FFFFFFF0000
003FFFFFFF0000
003FFFFFFF0000
003FFFFFFF0000
003FFFFFFF0000
003FFFFFFF0000
003FFFFFFF0000
ENDCHAR
STARTCHAR f
ENCODING 102
SWIDTH 250 0
DWIDTH 30 0
BBX 30 90 0 0
BITMAP
003FFFFC
003FFFFC
003FFFFC
003FFFFC
003FFFFC
003FFFFC
003FFFFC
003FFFFC
003FFFFC
003FFFFC
003FF000
003FF000
003FF000
003FF000
003FF000
003FF000
003FF000
003FF000
003FF000
003FF000
FFFFFFFC
FFFFFFFC
FFFFFFFC
FFFFFFFC
FFFFFFFC
FFFFFFFC
FFFFFFFC
FFFFFFFC
FFFFFFFC
FFFFFFFC
003FF000
003FF000
003FF000
003FF000
003FF000
003FF000
003FF000
003FF000
003FF000
003FF000
003FF000
003FF000
003FF000
003FF000
003FF000
003FF000
003FF000
003FF000
003FF000
003FF000
003FF000
003FF000
003FF000
003FF000
003FF000
003FF000
003FF000
003FF000
003FF000
003FF000
003FF000
003FF000
003FF000
003FF000
003FF000
003FF000
003FF000
003FF000
003FF000
003FF000
003FF000
003FF000
003FF000
003FF000
003FF000
003FF000
003FF000
003FF000
003FF000
003FF000
003FF000
003FF000
003FF000
003FF000
003FF000
003FF000
003FF000
003FF000
003FF000
003FF000
ENDCHAR
STARTCHAR g
ENCODING 103
SWIDTH 500 0
DWIDTH 60 0
BBX 50 90 10 -20
BITMAP
003FFFFC00FFC0
003FFFFC00FFC0
003FFFFC00FFC0
003FFFFC00FFC0
003FFFFC00FFC0
003FFFFC00FFC0
003FFFFC00FFC0
003FFFFC00FFC0
003FFFFC00FFC0
003FFFFC00FFC0
FFC00003FFFFC0
FFC00003FFFFC0
FFC00003FFFFC0
FFC00003FFFFC0
FFC00003FFFFC0
FFC00003FFFFC0
FFC00003FFFFC0
FFC00003FFFFC0
FFC00003FFFFC0
FFC00003FFFFC0
FFC0000000FFC0
FFC0000000FFC0
FFC0000000FFC0
FFC0000000FFC0
FFC0000000FFC0
FFC0000000FFC0
FFC0000000FFC0
FFC0000000FFC0
FFC0000000FFC0
FFC0000000FFC0
FFC0000000FFC0
FFC0000000FFC0
FFC0000000FFC0
FFC0000000FFC0
FFC0000000FFC0
FFC0000000FFC0
FFC0000000FFC0
FFC0000000FFC0
FFC0000000FFC0
FFC0000000FFC0
FFC0000000FFC0
FFC0000000FFC0
FFC0000000FFC0
FFC0000000FFC0
FFC0000000FFC0
FFC0000000FFC0
FFC0000000FFC0
FFC0000000FFC0
FFC0000000FFC0
FFC0000000FFC0
FFC00003FFFFC0
FFC00003FFFFC0
FFC00003FFFFC0
FFC00003FFFFC0
FFC00003FFFFC0
FFC00003FFFFC0
FFC00003FFFFC0
FFC00003FFFFC0
FFC00003FFFFC0
FFC00003FFFFC0
003FFFFC00FFC0
003FFFFC00FFC0
003FFFFC00FFC0
003FFFFC00FFC0
003FFFFC00FFC0
003FFFFC00FFC0
003FFFFC00FFC0
003FFFFC00FFC0
003FFFFC00FFC0
003FFFFC00FFC0
0000000000FFC0
0000000000FFC0
0000000000FFC0
0000000000FFC0
0000000000FFC0
0000000000FFC0
0000000000FFC0
0000000000FFC0
0000000000FFC0
0000000000FFC0
FFFFFFFFFF0000
FFFFFFFFFF0000
FFFFFFFFFF0000
FFFFFFFFFF0000
FFFFFFFFFF0000
FFFFFFFFFF0000
FFFFFFFFFF0000
FFFFFFFFFF0000
FFFFFFFFFF0000
FFFFFFFFFF0000
ENDCHAR
STARTCHAR h
ENCODING 104
SWIDTH 500 0
DWIDTH 60 0
BBX 50 90 10 0
BITMAP
FFC00000000000
FFC00000000000
FFC00000000000
FFC00000000000
FFC00000000000
FFC00000000000
FFC00000000000
FFC00000000000
FFC00000000000
FFC00000000000
FFC00000000000
FFC00000000000
FFC00000000000
FFC00000000000
FFC00000000000
FFC00000000000
FFC00000000000
FFC00000000000
FFC00000000000
FFC00000000000
FFC00FFFFF0000
FFC00FFFFF0000
FFC00FFFFF0000
FFC00FFFFF0000
FFC00FFFFF0000
FFC00FFFFF0000
FFC00FFFFF0000
FFC00FFFFF0000
FFC00FFFFF0000
FFC00FFFFF0000
FFFFF00000FFC0
FFFFF00000FFC0
FFFFF00000FFC0
FFFFF00000FFC0
FFFFF00000FFC0
FFFFF00000FFC0
FFFFF00000FFC0
FFFFF00000FFC0
FFFFF00000FFC0
FFFFF00000FFC0
FFC0000000FFC0
FFC0000000FFC0
FFC0000000FFC0
FFC0000000FFC0
FFC0000000FFC0
FFC0000000FFC0
FFC0000000FFC0
FFC0000000FFC0
FFC0000000FFC0
FFC0000000FFC0
FFC0000000FFC0
FFC0000000FFC0
FFC0000000FFC0
FFC0000000FFC0
FFC0000000FFC0
FFC0000000FFC0
FFC0000000FFC0
FFC0000000FFC0
FFC0000000FFC0
FFC0000000FFC0
FFC0000000FFC0
FFC0000000FFC0
FFC0000000FFC0
FFC0000000FFC0
FFC0000000FFC0
FFC0000000FFC0
FFC0000000FFC0
FFC0000000FFC0
FFC0000000FFC0
FFC0000000FFC0
FFC0000000FFC0
FFC0000000FFC0
FFC0000000FFC0
FFC0000000FFC0
FFC0000000FFC0
FFC0000000FFC0
FFC0000000FFC0
FFC0000000FFC0
FFC0000000FFC0
FFC0000000FFC0
FFC0000000FFC0
FFC0000000FFC0
FFC0000000FFC0
FFC0000000FFC0
FFC0000000FFC0
FFC0000000FFC0
FFC0000000FFC0
FFC0000000FFC0
FFC0000000FFC0
FFC0000000FFC0
ENDCHAR
STARTCHAR i
ENCODING 105
SWIDTH 166 0
DWIDTH 20 0
BBX 10 90 10 0
BITMAP
FFC0
FFC0
FFC0
FFC0
FFC0
FFC0
FFC0
FFC0
FFC0
FFC0
0000
0000
0000
0000
0000
0000
0000
0000
0000
0000
FFC0
FFC0
FFC0
FFC0
FFC0
FFC0
FFC0
FFC0
FFC0
FFC0
FFC0
FFC0
FFC0
FFC0
FFC0
FFC0
FFC0
FFC0
FFC0
FFC0
FFC0
FFC0
FFC0
FFC0
FFC0
FFC0
FFC0
FFC0
FFC0
FFC0
FFC0
FFC0
FFC0
FFC0
FFC0
FFC0
FFC0
FFC0
FFC0
FFC0
FFC0
FFC0
FFC0
FFC0
FFC0
FFC0
FFC0
FFC0
FFC0
FFC0
FFC0
FFC0
FFC0
FFC0
FFC0
FFC0
FFC0
FFC0
FFC0
FFC0
FFC0
FFC0
FFC0
FFC0
FFC0
FFC0
FFC0
FFC0
FFC0
FFC0
ENDCHAR
STARTCHAR j
ENCODING 106
SWIDTH 166 0
DWIDTH 20 0
BBX 20 110 0 -20
BITMAP
003FF0
003FF0
003FF0
003FF0
003FF0
003FF0
003FF0
003FF0
003FF0
003FF0
000000
000000
000000
000000
000000
000000
000000
000000
000000
000000
003FF0
003FF0
003FF0
003FF0
003FF0
003FF0
003FF0
003FF0
003FF0
003FF0
003FF0
003FF0
003FF0
003FF0
003FF0
003FF0
003FF0
003FF0
003FF0
003FF0
003FF0
003FF0
003FF0
003FF0
003FF0
003FF0
003FF0
003FF0
003FF0
003FF0
003FF0
003FF0
003FF0
003FF0
003FF0
003FF0
003FF0
003FF0
003FF0
003FF0
003FF0
003FF0
003FF0
003FF0
003FF0
003FF0
003FF0
003FF0
003FF0
003FF0
003FF0
003FF0
003FF0
003FF0
003FF0
003FF0
003FF0
003FF0
003FF0
003FF0
003FF0
003FF0
003FF0
003FF0
003FF0
003FF0
003FF0
003FF0
003FF0
003FF0
003FF0
003FF0
003FF0
003FF0
003FF0
003FF0
003FF0
003FF0
003FF0
003FF0
FFC000
FFC000
FFC000
FFC000
FFC000
FFC000
FFC000
FFC000
FFC000
FFC000
ENDCHAR
STARTCHAR k
ENCODING 107
SWIDTH 500 0
DWIDTH 60 0
BBX 50 90 10 0
BITMAP
FFC00000000000
FFC00000000000
FFC00000000000
FFC00000000000
FFC00000000000
FFC00000000000
FFC00000000000
FFC00000000000
FFC00000000000
FFC00000000000
FFC00000000000
FFC00000000000
FFC00000000000
FFC00000000000
FFC00000000000
FFC00000000000
FFC00000000000
FFC00000000000
FFC00000000000
FFC00000000000
FFC0000000FFC0
FFC0000000FFC0
FFC0000000FFC0
FFC0000000FFC0
FFC0000000FFC0
FFC0000000FFC0
FFC0000000FFC0
FFC0000000FFC0
FFC0000000FFC0
FFC0000000FFC0
FFC00003FF0000
FFC00003FF0000
FFC00003FF0000
FFC00003FF0000
FFC00003FF0000
FFC00003FF0000
FFC00003FF0000
FFC00003FF0000
FFC00003FF0000
FFC00003FF0000
FFC00FFC000000
FFC00FFC000000
FFC00FFC000000
FFC00FFC000000
FFC00FFC000000
FFC00FFC000000
FFC00FFC000000
FFC00FFC000000
FFC00FFC000000
FFC00FFC000000
FFFFF000000000
FFFFF000000000
FFFFF000000000
FFFFF000000000
FFFFF000000000
FFFFF000000000
FFFFF000000000
FFFFF000000000
FFFFF000000000
FFFFF000000000
FFC00FFC000000
FFC00FFC000000
FFC00FFC000000
FFC00FFC000000
FFC00FFC000000
FFC00FFC000000
FFC00FFC000000
FFC00FFC000000
FFC00FFC000000
FFC00FFC000000
FFC00003FF0000
FFC00003FF0000
FFC00003FF0000
FFC00003FF0000
FFC00003FF0000
FFC00003FF0000
FFC00003FF0000
FFC00003FF0000
FFC00003FF0000
FFC00003FF0000
FFC0000000FFC0
FFC0000000FFC0
FFC0000000FFC0
FFC0000000FFC0
FFC0000000FFC0
FFC0000000FFC0
FFC0000000FFC0
FFC0000000FFC0
FFC0000000FFC0
FFC0000000FFC0
ENDCHAR
STARTCHAR l
ENCODING 108
SWIDTH 166 0
DWIDTH 20 0
BBX 10 90 10 0
BITMAP
FFC0
FFC0
FFC0
FFC0
FFC0
FFC0
FFC0
FFC0
FFC0
FFC0
FFC0
FFC0
FFC0
FFC0
FFC0
FFC0
FFC0
FFC0
FFC0
FFC0
FFC0
FFC0
FFC0
FFC0
FFC0
FFC0
FFC0
FFC0
FFC0
FFC0
FFC0
FFC0
FFC0
FFC0
FFC0
FFC0
FFC0
FFC0
FFC0
FFC0
FFC0
FFC0
FFC0
FFC0
FFC0
FFC0
FFC0
FFC0
FFC0
FFC0
FFC0
FFC0
FFC0
FFC0
FFC0
FFC0
FFC0
FFC0
FFC0
FFC0
FFC0
FFC0
FFC0
FFC0
FFC0
FFC0
FFC0
FFC0
FFC0
FFC0
FFC0
FFC0
FFC0
FFC0
FFC0
FFC0
FFC0
FFC0
FFC0
FFC0
FFC0
FFC0
FFC0
FFC0
FFC0
FFC0
FFC0
FFC0
FFC0
FFC0
ENDCHAR
STARTCHAR m
ENCODING 109
SWIDTH 750 0
DWIDTH 90 0
BBX 90 70 10 0
BITMAP
FFC00FFFFF00000FFFFF0000
FFC00FFFFF00000FFFFF0000
FFC00FFFFF00000FFFFF0000
FFC00FFFFF00000FFFFF0000
FFC00FFFFF00000FFFFF0000
FFC00FFFFF00000FFFFF0000
FFC00FFFFF00000FFFFF0000
FFC00FFFFF00000FFFFF0000
FFC00FFFFF00000FFFFF0000
FFC00FFFFF00000FFFFF0000
FFFFF00000FFFFF00000FFC0
FFFFF00000FFFFF00000FFC0
FFFFF00000FFFFF00000FFC0
FFFFF00000FFFFF00000FFC0
FFFFF00000FFFFF00000FFC0
FFFFF00000FFFFF00000FFC0
FFFFF00000FFFFF00000FFC0
FFFFF00000FFFFF00000FFC0
FFFFF00000FFFFF00000FFC0
FFFFF00000FFFFF00000FFC0
FFC0000000FFC0000000FFC0
FFC0000000FFC0000000FFC0
FFC0000000FFC0000000FFC0
FFC0000000FFC0000000FFC0
FFC0000000FFC0000000FFC0
FFC0000000FFC0000000FFC0
FFC0000000FFC0000000FFC0
FFC0000000FFC0000000FFC0
FFC0000000FFC0000000FFC0
FFC0000000FFC0000000FFC0
FFC0000000FFC0000000FFC0
FFC0000000FFC0000000FFC0
FFC0000000FFC0000000FFC0
FFC0000000FFC0000000FFC0
FFC0000000FFC0000000FFC0
FFC0000000FFC0000000FFC0
FFC0000000FFC0000000FFC0
FFC0000000FFC0000000FFC0
FFC0000000FFC0000000FFC0
FFC0000000FFC0000000FFC0
FFC0000000FFC0000000FFC0
FFC0000000FFC0000000FFC0
FFC0000000FFC0000000FFC0
FFC0000000FFC0000000FFC0
FFC0000000FFC0000000FFC0
FFC0000000FFC0000000FFC0
FFC0000000FFC0000000FFC0
FFC0000000FFC0000000FFC0
FFC0000000FFC0000000FFC0
FFC0000000FFC0000000FFC0
FFC0000000FFC0000000FFC0
FFC0000000FFC0000000FFC0
FFC0000000FFC0000000FFC0
FFC0000000FFC0000000FFC0
FFC0000000FFC0000000FFC0
FFC0000000FFC0000000FFC0
FFC0000000FFC0000000FFC0
FFC0000000FFC0000000FFC0
FFC0000000FFC0000000FFC0
FFC0000000FFC0000000FFC0
FFC0000000FFC0000000FFC0
FFC0000000FFC0000000FFC0
FFC0000000FFC0000000FFC0
FFC0000000FFC0000000FFC0
FFC0000000FFC0000000FFC0
FFC0000000FFC0000000FFC0
FFC0000000FFC0000000FFC0
FFC0000000FFC0000000FFC0
FFC0000000FFC0000000FFC0
FFC0000000FFC0000000FFC0
ENDCHAR
STARTCHAR n
ENCODING 110
SWIDTH 500 0
DWIDTH 60 0
BBX 50 70 10 0
BITMAP
FFC00FFFFF0000
FFC00FFFFF0000
FFC00FFFFF0000
FFC00FFFFF0000
FFC00FFFFF0000
FFC00FFFFF0000
FFC00FFFFF0000
FFC00FFFFF0000
FFC00FFFFF0000
FFC00FFFFF0000
FFFFF00000FFC0
FFFFF00000FFC0
FFFFF00000FFC0
FFFFF00000FFC0
FFFFF00000FFC0
FFFFF00000FFC0
FFFFF00000FFC0
FFFFF00000FFC0
FFFFF00000FFC0
FFFFF00000FFC0
FFC0000000FFC0
FFC0000000FFC0
FFC0000000FFC0
FFC0000000FFC0
FFC0000000FFC0
FFC0000000FFC0
FFC0000000FFC0
FFC0000000FFC0
FFC0000000FFC0
FFC0000000FFC0
FFC0000000FFC0
FFC0000000FFC0
FFC0000000FFC0
FFC0000000FFC0
FFC0000000FFC0
FFC0000000FFC0
FFC0000000FFC0
FFC0000000FFC0
FFC0000000FFC0
FFC0000000FFC0
FFC0000000FFC0
FFC0000000FFC0
FFC0000000FFC0
FFC0000000FFC0
FFC0000000FFC0
FFC0000000FFC0
FFC0000000FFC0
FFC0000000FFC0
FFC0000000FFC0
FFC0000000FFC0
FFC0000000FFC0
FFC0000000FFC0
FFC0000000FFC0
FFC0000000FFC0
FFC0000000FFC0
FFC0000000FFC0
FFC0000000FFC0
FFC0000000FFC0
FFC0000000FFC0
FFC0000000FFC0
FFC0000000FFC0
FFC0000000FFC0
FFC0000000FFC0
FFC0000000FFC0
FFC0000000FFC0
FFC0000000FFC0
FFC0000000FFC0
FFC0000000FFC0
FFC0000000FFC0
FFC0000000FFC0
ENDCHAR
STARTCHAR o
ENCODING 111
SWIDTH 500 0
DWIDTH 60 0
BBX 50 70 10 0
BITMAP
003FFFFFFF0000
003FFFFFFF0000
003FFFFFFF0000
003FFFFFFF0000
003FFFFFFF0000
003FFFFFFF0000
003FFFFFFF0000
003FFFFFFF0000
003FFFFFFF0000
003FFFFFFF0000
FFC0000000FFC0
FFC0000000FFC0
FFC0000000FFC0
FFC0000000FFC0
FFC0000000FFC0
FFC0000000FFC0
FFC0000000FFC0
FFC0000000FFC0
FFC0000000FFC0
FFC0000000FFC0
FFC0000000FFC0
FFC0000000FFC0
FFC0000000FFC0
FFC0000000FFC0
FFC0000000FFC0
FFC0000000FFC0
FFC0000000FFC0
FFC0000000FFC0
FFC0000000FFC0
FFC0000000FFC0
FFC0000000FFC0
FFC0000000FFC0
FFC0000000FFC0
FFC0000000FFC0
FFC0000000FFC0
FFC0000000FFC0
FFC0000000FFC0
FFC0000000FFC0
FFC0000000FFC0
FFC0000000FFC0
FFC0000000FFC0
FFC0000000FFC0
FFC0000000FFC0
FFC0000000FFC0
FFC0000000FFC0
FFC0000000FFC0
FFC0000000FFC0
FFC0000000FFC0
FFC0000000FFC0
FFC0000000FFC0
FFC0000000FFC0
FFC0000000FFC0
FFC0000000FFC0
FFC0000000FFC0
FFC0000000FFC0
FFC0000000FFC0
FFC0000000FFC0
FFC0000000FFC0
FFC0000000FFC0
FFC0000000FFC0
003FFFFFFF0000
003FFFFFFF0000
003FFFFFFF0000
003FFFFFFF0000
003FFFFFFF0000
003FFFFFFF0000
003FFFFFFF0000
003FFFFFFF0000
003FFFFFFF0000
003FFFFFFF0000
ENDCHAR
STARTCHAR p
ENCODING 112
SWIDTH 500 0
DWIDTH 60 0
BBX 50 90 10 -20
BITMAP
FFC00FFFFF0000
FFC00FFFFF0000
FFC00FFFFF0000
FFC00FFFFF0000
FFC00FFFFF0000
FFC00FFFFF0000
FFC00FFFFF0000
FFC00FFFFF0000
FFC00FFFFF0000
FFC00FFFFF0000
FFFFF00000FFC0
FFFFF00000FFC0
FFFFF00000FFC0
FFFFF00000FFC0
FFFFF00000FFC0
FFFFF00000FFC0
FFFFF00000FFC0
FFFFF00000FFC0
FFFFF00000FFC0
FFFFF00000FFC0
FFC0000000FFC0
FFC0000000FFC0
FFC0000000FFC0
FFC0000000FFC0
FFC0000000FFC0
FFC0000000FFC0
FFC0000000FFC0
FFC0000000FFC0
FFC0000000FFC0
FFC0000000FFC0
FFC0000000FFC0
FFC0000000FFC0
FFC0000000FFC0
FFC0000000FFC0
FFC0000000FFC0
FFC0000000FFC0
FFC0000000FFC0
FFC0000000FFC0
FFC0000000FFC0
FFC0000000FFC0
FFC0000000FFC0
FFC0000000FFC0
FFC0000000FFC0
FFC0000000FFC0
FFC0000000FFC0
FFC0000000FFC0
FFC0000000FFC0
FFC0000000FFC0
FFC0000000FFC0
FFC0000000FFC0
FFFFF00000FFC0
FFFFF00000FFC0
FFFFF00000FFC0
FFFFF00000FFC0
FFFFF00000FFC0
FFFFF00000FFC0
FFFFF00000FFC0
FFFFF00000FFC0
FFFFF00000FFC0
FFFFF00000FFC0
FFC00FFFFF0000
FFC00FFFFF0000
FFC00FFFFF0000
FFC00FFFFF0000
FFC00FFFFF0000
FFC00FFFFF0000
FFC00FFFFF0000
FFC00FFFFF0000
FFC00FFFFF0000
FFC00FFFFF0000
FFC00000000000
FFC00000000000
FFC00000000000
FFC00000000000
FFC00000000000
FFC00000000000
FFC00000000000
FFC00000000000
FFC00000000000
FFC00000000000
FFC00000000000
FFC00000000000
FFC00000000000
FFC00000000000
FFC00000000000
FFC00000000000
FFC00000000000
FFC00000000000
FFC00000000000
FFC00000000000
ENDCHAR
STARTCHAR q
ENCODING 113
SWIDTH 500 0
DWIDTH 60 0
BBX 50 90 10 -20
BITMAP
003FFFFC00FFC0
003FFFFC00FFC0
003FFFFC00FFC0
003FFFFC00FFC0
003FFFFC00FFC0
003FFFFC00FFC0
003FFFFC00FFC0
003FFFFC00FFC0
003FFFFC00FFC0
003FFFFC00FFC0
FFC00003FFFFC0
FFC00003FFFFC0
FFC00003FFFFC0
FFC00003FFFFC0
FFC00003FFFFC0
FFC00003FFFFC0
FFC00003FFFFC0
FFC00003FFFFC0
FFC00003FFFFC0
FFC00003FFFFC0
FFC0000000FFC0
FFC0000000FFC0
FFC0000000FFC0
FFC0000000FFC0
FFC0000000FFC0
FFC0000000FFC0
FFC0000000FFC0
FFC0000000FFC0
FFC0000000FFC0
FFC0000000FFC0
FFC0000000FFC0
FFC0000000FFC0
FFC0000000FFC0
FFC0000000FFC0
FFC0000000FFC0
FFC0000000FFC0
FFC0000000FFC0
FFC0000000FFC0
FFC0000000FFC0
FFC0000000FFC0
FFC0000000FFC0
FFC0000000FFC0
FFC0000000FFC0
FFC0000000FFC0
FFC0000000FFC0
FFC0000000FFC0
FFC0000000FFC0
FFC0000000FFC0
FFC0000000FFC0
FFC0000000FFC0
FFC00003FFFFC0
FFC00003FFFFC0
FFC00003FFFFC0
FFC00003FFFFC0
FFC00003FFFFC0
FFC00003FFFFC0
FFC00003FFFFC0
FFC00003FFFFC0
FFC00003FFFFC0
FFC00003FFFFC0
003FFFFC00FFC0
003FFFFC00FFC0
003FFFFC00FFC0
003FFFFC00FFC0
003FFFFC00FFC0
003FFFFC00FFC0
003FFFFC00FFC0
003FFFFC00FFC0
003FFFFC00FFC0
003FFFFC00FFC0
0000000000FFC0
0000000000FFC0
0000000000FFC0
0000000000FFC0
0000000000FFC0
0000000000FFC0
0000000000FFC0
0000000000FFC0
0000000000FFC0
0000000000FFC0
0000000000FFC0
0000000000FFC0
0000000000FFC0
0000000000FFC0
0000000000FFC0
0000000000FFC0
0000000000FFC0
0000000000FFC0
0000000000FFC0
0000000000FFC0
ENDCHAR
STARTCHAR r
ENCODING 114
SWIDTH 250 0
DWIDTH 30 0
BBX 30 70 10 0
BITMAP
FFFFFFFC
FFFFFFFC
FFFFFFFC
FFFFFFFC
FFFFFFFC
FFFFFFFC
FFFFFFFC
FFFFFFFC
FFFFFFFC
FFFFFFFC
FFC00000
FFC00000
FFC00000
FFC00000
FFC00000
FFC00000
FFC00000
FFC00000
FFC00000
FFC00000
FFC00000
FFC00000
FFC00000
FFC00000
FFC00000
FFC00000
FFC00000
FFC00000
FFC00000
FFC00000
FFC00000
FFC00000
FFC00000
FFC00000
FFC00000
FFC00000
FFC00000
FFC00000
FFC00000
FFC00000
FFC00000
FFC00000
FFC00000
FFC00000
FFC00000
FFC00000
FFC00000
FFC00000
FFC00000
FFC00000
FFC00000
FFC00000
FFC00000
FFC00000
FFC00000
FFC00000
FFC00000
FFC00000
FFC00000
FFC00000
FFC00000
FFC00000
FFC00000
FFC00000
FFC00000
FFC00000
FFC00000
FFC00000
FFC00000
FFC00000
ENDCHAR
STARTCHAR s
ENCODING 115
SWIDTH 500 0
DWIDTH 60 0
BBX 50 70 10 0
BITMAP
003FFFFFFF0000
003FFFFFFF0000
003FFFFFFF0000
003FFFFFFF0000
003FFFFFFF0000
003FFFFFFF0000
003FFFFFFF0000
003FFFFFFF0000
003FFFFFFF0000
003FFFFFFF0000
FFC0000000FFC0
FFC0000000FFC0
FFC0000000FFC0
FFC0000000FFC0
FFC0000000FFC0
FFC0000000FFC0
FFC0000000FFC0
FFC0000000FFC0
FFC0000000FFC0
FFC0000000FFC0
FFC00000000000
FFC00000000000
FFC00000000000
FFC00000000000
FFC00000000000
FFC00000000000
FFC00000000000
FFC00000000000
FFC00000000000
FFC00000000000
003FFFFFFF0000
003FFFFFFF0000
003FFFFFFF0000
003FFFFFFF0000
003FFFFFFF0000
003FFFFFFF0000
003FFFFFFF0000
003FFFFFFF0000
003FFFFFFF0000
003FFFFFFF0000
0000000000FFC0
0000000000FFC0
0000000000FFC0
0000000000FFC0
0000000000FFC0
0000000000FFC0
0000000000FFC0
0000000000FFC0
0000000000FFC0
0000000000FFC0
FFC0000000FFC0
FFC0000000FFC0
FFC0000000FFC0
FFC0000000FFC0
FFC0000000FFC0
FFC0000000FFC0
FFC0000000FFC0
FFC0000000FFC0
FFC0000000FFC0
FFC0000000FFC0
003FFFFFFF0000
003FFFFFFF0000
003FFFFFFF0000
003FFFFFFF0000
003FFFFFFF0000
003FFFFFFF0000
003FFFFFFF0000
003FFFFFFF0000
003FFFFFFF0000
003FFFFFFF0000
ENDCHAR
STARTCHAR t
ENCODING 116
SWIDTH 250 0
DWIDTH 30 0
BBX 30 90 0 0
BITMAP
003FF000
003FF000
003FF000
003FF000
003FF000
003FF000
003FF000
003FF000
003FF000
003FF000
003FF000
003FF000
003FF000
003FF000
003FF000
003FF000
003FF000
003FF000
003FF000
003FF000
FFFFFFFC
FFFFFFFC
FFFFFFFC
FFFFFFFC
FFFFFFFC
FFFFFFFC
FFFFFFFC
FFFFFFFC
FFFFFFFC
FFFFFFFC
003FF000
003FF000
003FF000
003FF000
003FF000
003FF000
003FF000
003FF000
003FF000
003FF000
003FF000
003FF000
003FF000
003FF000
003FF000
003FF000
003FF000
003FF000
003FF000
003FF000
003FF000
003FF000
003FF000
003FF000
003FF000
003FF000
003FF000
003FF000
003FF000
003FF000
003FF000
003FF000
003FF000
003FF000
003FF000
003FF000
003FF000
003FF000
003FF000
003FF000
003FF000
003FF000
003FF000
003FF000
003FF000
003FF000
003FF000
003FF000
003FF000
003FF000
00000FFC
00000FFC
00000FFC
00000FFC
00000FFC
00000FFC
00000FFC
00000FFC
00000FFC
00000FFC
ENDCHAR
STARTCHAR u
ENCODING 117
SWIDTH 500 0
DWIDTH 60 0
BBX 50 70 10 0
BITMAP
FFC0000000FFC0
FFC0000000FFC0
FFC0000000FFC0
FFC0000000FFC0
FFC0000000FFC0
FFC0000000FFC0
FFC0000000FFC0
FFC0000000FFC0
FFC0000000FFC0
FFC0000000FFC0
FFC0000000FFC0
FFC0000000FFC0
FFC0000000FFC0
FFC0000000FFC0
FFC0000000FFC0
FFC0000000FFC0
FFC0000000FFC0
FFC0000000FFC0
FFC0000000FFC0
FFC0000000FFC0
FFC0000000FFC0
FFC0000000FFC0
FFC0000000FFC0
FFC0000000FFC0
FFC0000000FFC0
FFC0000000FFC0
FFC0000000FFC0
FFC0000000FFC0
FFC0000000FFC0
FFC0000000FFC0
FFC0000000FFC0
FFC0000000FFC0
FFC0000000FFC0
FFC0000000FFC0
FFC0000000FFC0
FFC0000000FFC0
FFC0000000FFC0
FFC0000000FFC0
FFC0000000FFC0
FFC0000000FFC0
FFC0000000FFC0
FFC0000000FFC0
FFC0000000FFC0
FFC0000000FFC0
FFC0000000FFC0
FFC0000000FFC0
FFC0000000FFC0
FFC0000000FFC0
FFC0000000FFC0
FFC0000000FFC0
FFC00003FFFFC0
FFC00003FFFFC0
FFC00003FFFFC0
FFC00003FFFFC0
FFC00003FFFFC0
FFC00003FFFFC0
FFC00003FFFFC0
FFC00003FFFFC0
FFC00003FFFFC0
FFC00003FFFFC0
003FFFFC00FFC0
003FFFFC00FFC0
003FFFFC00FFC0
003FFFFC00FFC0
003FFFFC00FFC0
003FFFFC00FFC0
003FFFFC00FFC0
003FFFFC00FFC0
003FFFFC00FFC0
003FFFFC00FFC0
ENDCHAR
STARTCHAR v
ENCODING 118
SWIDTH 500 0
DWIDTH 60 0
BBX 50 70 0 0
BITMAP
FFC0000000FFC0
FFC0000000FFC0
FFC0000000FFC0
FFC0000000FFC0
FFC0000000FFC0
FFC0000000FFC0
FFC0000000FFC0
FFC0000000FFC0
FFC0000000FFC0
FFC0000000FFC0
FFC0000000FFC0
FFC0000000FFC0
FFC0000000FFC0
FFC0000000FFC0
FFC0000000FFC0
FFC0000000FFC0
FFC0000000FFC0
FFC0000000FFC0
FFC0000000FFC0
FFC0000000FFC0
003FF003FF0000
003FF003FF0000
003FF003FF0000
003FF003FF0000
003FF003FF0000
003FF003FF0000
003FF003FF0000
003FF003FF0000
003FF003FF0000
003FF003FF0000
003FF003FF0000
003FF003FF0000
003FF003FF0000
003FF003FF0000
003FF003FF0000
003FF003FF0000
003FF003FF0000
003FF003FF0000
003FF003FF0000
003FF003FF0000
003FF003FF0000
003FF003FF0000
003FF003FF0000
003FF003FF0000
003FF003FF0000
003FF003FF0000
003FF003FF0000
003FF003FF0000
003FF003FF0000
003FF003FF0000
003FF003FF0000
003FF003FF0000
003FF003FF0000
003FF003FF0000
003FF003FF0000
003FF003FF0000
003FF003FF0000
003FF003FF0000
003FF003FF0000
003FF003FF0000
00000FFC000000
00000FFC000000
00000FFC000000
00000FFC000000
00000FFC000000
00000FFC000000
00000FFC000000
00000FFC000000
00000FFC000000
00000FFC000000
ENDCHAR
STARTCHAR w
ENCODING 119
SWIDTH 666 0
DWIDTH 80 0
BBX 90 70 0 0
BITMAP
FFC0000000FFC0000000FFC0
FFC0000000FFC0000000FFC0
FFC0000000FFC0000000FFC0
FFC0000000FFC0000000FFC0
FFC0000000FFC0000000FFC0
FFC0000000FFC0000000FFC0
FFC0000000FFC0000000FFC0
FFC0000000FFC0000000FFC0
FFC0000000FFC0000000FFC0
FFC0000000FFC0000000FFC0
FFC0000000FFC0000000FFC0
FFC0000000FFC0000000FFC0
FFC0000000FFC0000000FFC0
FFC0000000FFC0000000FFC0
FFC0000000FFC0000000FFC0
FFC0000000FFC0000000FFC0
FFC0000000FFC0000000FFC0
FFC0000000FFC0000000FFC0
FFC0000000FFC0000000FFC0
FFC0000000FFC0000000FFC0
003FF003FF003FF003FF0000
003FF003FF003FF003FF0000
003FF003FF003FF003FF0000
003FF003FF003FF003FF0000
003FF003FF003FF003FF0000
003FF003FF003FF003FF0000
003FF003FF003FF003FF0000
003FF003FF003FF003FF0000
003FF003FF003FF003FF0000
003FF003FF003FF003FF0000
003FF003FF003FF003FF0000
003FF003FF003FF003FF0000
003FF003FF003FF003FF0000
003FF003FF003FF003FF0000
003FF003FF003FF003FF0000
003FF003FF003FF003FF0000
003FF003FF003FF003FF0000
003FF003FF003FF003FF0000
003FF003FF003FF003FF0000
003FF003FF003FF003FF0000
003FF003FF003FF003FF0000
003FF003FF003FF003FF0000
003FF003FF003FF003FF0000
003FF003FF003FF003FF0000
003FF003FF003FF003FF0000
003FF003FF003FF003FF0000
003FF003FF003FF003FF0000
003FF003FF003FF003FF0000
003FF003FF003FF003FF0000
003FF003FF003FF003FF0000
00000FFC0000000FFC000000
00000FFC0000000FFC000000
00000FFC0000000FFC000000
00000FFC0000000FFC000000
00000FFC0000000FFC000000
00000FFC0000000FFC000000
00000FFC0000000FFC000000
00000FFC0000000FFC000000
00000FFC0000000FFC000000
00000FFC0000000FFC000000
00000FFC0000000FFC000000
00000FFC0000000FFC000000
00000FFC0000000FFC000000
00000FFC0000000FFC000000
00000FFC0000000FFC000000
00000FFC0000000FFC000000
00000FFC0000000FFC000000
00000FFC0000000FFC000000
00000FFC0000000FFC000000
00000FFC0000000FFC000000
ENDCHAR
STARTCHAR x
ENCODING 120
SWIDTH 500 0
DWIDTH 60 0
BBX 50 70 0 0
BITMAP
FFC0000000FFC0
FFC0000000FFC0
FFC0000000FFC0
FFC0000000FFC0
FFC0000000FFC0
FFC0000000FFC0
FFC0000000FFC0
FFC0000000FFC0
FFC0000000FFC0
FFC0000000FFC0
003FF003FF0000
003FF003FF0000
003FF003FF0000
003FF003FF0000
003FF003FF0000
003FF003FF0000
003FF003FF0000
003FF003FF0000
003FF003FF0000
003FF003FF0000
003FF003FF0000
003FF003FF0000
003FF003FF0000
003FF003FF0000
003FF003FF0000
003FF003FF0000
003FF003FF0000
003FF003FF0000
003FF003FF0000
003FF003FF0000
00000FFC000000
00000FFC000000
00000FFC000000
00000FFC000000
00000FFC000000
00000FFC000000
00000FFC000000
00000FFC000000
00000FFC000000
00000FFC000000
003FF003FF0000
003FF003FF0000
003FF003FF0000
003FF003FF0000
003FF003FF0000
003FF003FF0000
003FF003FF0000
003FF003FF0000
003FF003FF0000
003FF003FF0000
003FF003FF0000
003FF003FF0000
003FF003FF0000
003FF003FF0000
003FF003FF0000
003FF003FF0000
003FF003FF0000
003FF003FF0000
003FF003FF0000
003FF003FF0000
FFC0000000FFC0
FFC0000000FFC0
FFC0000000FFC0
FFC0000000FFC0
FFC0000000FFC0
FFC0000000FFC0
FFC0000000FFC0
FFC0000000FFC0
FFC0000000FFC0
FFC0000000FFC0
ENDCHAR
STARTCHAR y
ENCODING 121
SWIDTH 500 0
DWIDTH 60 0
BBX 50 90 0 -20
BITMAP
FFC0000000FFC0
FFC0000000FFC0
FFC0000000FFC0
FFC0000000FFC0
FFC0000000FFC0
FFC0000000FFC0
FFC0000000FFC0
FFC0000000FFC0
FFC0000000FFC0
FFC0000000FFC0
FFC0000000FFC0
FFC0000000FFC0
FFC0000000FFC0
FFC0000000FFC0
FFC0000000FFC0
FFC0000000FFC0
FFC0000000FFC0
FFC0000000FFC0
FFC0000000FFC0
FFC0000000FFC0
003FF003FF0000
003FF003FF0000
003FF003FF0000
003FF003FF0000
003FF003FF0000
003FF003FF0000
003FF003FF0000
003FF003FF0000
003FF003FF0000
003FF003FF0000
003FF003FF0000
003FF003FF0000
003FF003FF0000
003FF003FF0000
003FF003FF0000
003FF003FF0000
003FF003FF0000
003FF003FF0000
003FF003FF0000
003FF003FF0000
003FF003FF0000
003FF003FF0000
003FF003FF0000
003FF003FF0000
003FF003FF0000
003FF003FF0000
003FF003FF0000
003FF003FF0000
003FF003FF0000
003FF003FF0000
003FF003FF0000
003FF003FF0000
003FF003FF0000
003FF003FF0000
003FF003FF0000
003FF003FF0000
003FF003FF0000
003FF003FF0000
003FF003FF0000
003FF003FF0000
00000FFC000000
00000FFC000000
00000FFC000000
00000FFC000000
00000FFC000000
00000FFC000000
00000FFC000000
00000FFC000000
00000FFC000000
00000FFC000000
00000FFC000000
00000FFC000000
00000FFC000000
00000FFC000000
00000FFC000000
00000FFC000000
00000FFC000000
00000FFC000000
00000FFC000000
00000FFC000000
FFFFF000000000
FFFFF000000000
FFFFF000000000
FFFFF000000000
FFFFF000000000
FFFFF000000000
FFFFF000000000
FFFFF000000000
FFFFF000000000
FFFFF000000000
ENDCHAR
STARTCHAR z
ENCODING 122
SWIDTH 500 0
DWIDTH 60 0
BBX 50 70 0 0
BITMAP
FFFFFFFFFFFFC0
FFFFFFFFFFFFC0
FFFFFFFFFFFFC0
FFFFFFFFFFFFC0
FFFFFFFFFFFFC0
FFFFFFFFFFFFC0
FFFFFFFFFFFFC0
FFFFFFFFFFFFC0
FFFFFFFFFFFFC0
FFFFFFFFFFFFC0
0000000000FFC0
0000000000FFC0
0000000000FFC0
0000000000FFC0
0000000000FFC0
0000000000FFC0
0000000000FFC0
0000000000FFC0
0000000000FFC0
0000000000FFC0
00000003FF0000
00000003FF0000
00000003FF0000
00000003FF0000
00000003FF0000
00000003FF0000
00000003FF0000
00000003FF0000
00000003FF0000
00000003FF0000
00000FFC000000
00000FFC000000
00000FFC000000
00000FFC000000
00000FFC000000
00000FFC000000
00000FFC000000
00000FFC000000
00000FFC000000
00000FFC000000
003FF000000000
003FF000000000
003FF000000000
003FF000000000
003FF000000000
003FF000000000
003FF000000000
003FF000000000
003FF000000000
003FF000000000
FFC00000000000
FFC00000000000
FFC00000000000
FFC00000000000
FFC00000000000
FFC00000000000
FFC00000000000
FFC00000000000
FFC00000000000
FFC00000000000
FFFFFFFFFFFFC0
FFFFFFFFFFFFC0
FFFFFFFFFFFFC0
FFFFFFFFFFFFC0
FFFFFFFFFFFFC0
FFFFFFFFFFFFC0
FFFFFFFFFFFFC0
FFFFFFFFFFFFC0
FFFFFFFFFFFFC0
FFFFFFFFFFFFC0
ENDCHAR
STARTCHAR braceleft
ENCODING 123
SWIDTH 250 0
DWIDTH 30 0
BBX 30 110 0 -20
BITMAP
00000FFC
00000FFC
00000FFC
00000FFC
00000FFC
00000FFC
00000FFC
00000FFC
00000FFC
00000FFC
003FF000
003FF000
003FF000
003FF000
003FF000
003FF000
003FF000
003FF000
003FF000
003FF000
003FF000
003FF000
003FF000
003FF000
003FF000
003FF000
003FF000
003FF000
003FF000
003FF000
003FF000
003FF000
003FF000
003FF000
003FF000
003FF000
003FF000
003FF000
003FF000
003FF000
003FF000
003FF000
003FF000
003FF000
003FF000
003FF000
003FF000
003FF000
003FF000
003FF000
FFC00000
FFC00000
FFC00000
FFC00000
FFC00000
FFC00000
FFC00000
FFC00000
FFC00000
FFC00000
003FF000
003FF000
003FF000
003FF000
003FF000
003FF000
003FF000
003FF000
003FF000
003FF000
003FF000
003FF000
003FF000
003FF000
003FF000
003FF000
003FF000
003FF000
003FF000
003FF000
003FF000
003FF000
003FF000
003FF000
003FF000
003FF000
003FF000
003FF000
003FF000
003FF000
003FF000
003FF000
003FF000
003FF000
003FF000
003FF000
003FF000
003FF000
003FF000
003FF000
00000FFC
00000FFC
00000FFC
00000FFC
00000FFC
00000FFC
00000FFC
00000FFC
00000FFC
00000FFC
ENDCHAR
STARTCHAR bar
ENCODING 124
SWIDTH 250 0
DWIDTH 30 0
BBX 10 120 10 -30
BITMAP
FFC0
FFC0
FFC0
FFC0
FFC0
FFC0
FFC0
FFC0
FFC0
FFC0
FFC0
FFC0
FFC0
FFC0
FFC0
FFC0
FFC0
FFC0
FFC0
FFC0
FFC0
FFC0
FFC0
FFC0
FFC0
FFC0
FFC0
FFC0
FFC0
FFC0
FFC0
FFC0
FFC0
FFC0
FFC0
FFC0
FFC0
FFC0
FFC0
FFC0
FFC0
FFC0
FFC0
FFC0
FFC0
FFC0
FFC0
FFC0
FFC0
FFC0
FFC0
FFC0
FFC0
FFC0
FFC0
FFC0
FFC0
FFC0
FFC0
FFC0
FFC0
FFC0
FFC0
FFC0
FFC0
FFC0
FFC0
FFC0
FFC0
FFC0
FFC0
FFC0
FFC0
FFC0
FFC0
FFC0
FFC0
FFC0
FFC0
FFC0
FFC0
FFC0
FFC0
FFC0
FFC0
FFC0
FFC0
FFC0
FFC0
FFC0
FFC0
FFC0
FFC0
FFC0
FFC0
FFC0
FFC0
FFC0
FFC0
FFC0
FFC0
FFC0
FFC0
FFC0
FFC0
FFC0
FFC0
FFC0
FFC0
FFC0
FFC0
FFC0
FFC0
FFC0
FFC0
FFC0
FFC0
FFC0
FFC0
FFC0
ENDCHAR
STARTCHAR braceright
ENCODING 125
SWIDTH 250 0
DWIDTH 30 0
BBX 30 110 10 -20
BITMAP
FFC00000
FFC00000
FFC00000
FFC00000
FFC00000
FFC00000
FFC00000
FFC00000
FFC00000
FFC00000
003FF000
003FF000
003FF000
003FF000
003FF000
003FF000
003FF000
003FF000
003FF000
003FF000
003FF000
003FF000
003FF000
003FF000
003FF000
003FF000
003FF000
003FF000
003FF000
003FF000
003FF000
003FF000
003FF000
003FF000
003FF000
003FF000
003FF000
003FF000
003FF000
003FF000
003FF000
003FF000
003FF000
003FF000
003FF000
003FF000
003FF000
003FF000
003FF000
003FF000
00000FFC
00000FFC
00000FFC
00000FFC
00000FFC
00000FFC
00000FFC
00000FFC
00000FFC
00000FFC
003FF000
003FF000
003FF000
003FF000
003FF000
003FF000
003FF000
003FF000
003FF000
003FF000
003FF000
003FF000
003FF000
003FF000
003FF000
003FF000
003FF000
003FF000
003FF000
003FF000
003FF000
003FF000
003FF000
003FF000
003FF000
003FF000
003FF000
003FF000
003FF000
003FF000
003FF000
003FF000
003FF000
003FF000
003FF000
003FF000
003FF000
003FF000
003FF000
003FF000
FFC00000
FFC00000
FFC00000
FFC00000
FFC00000
FFC00000
FFC00000
FFC00000
FFC00000
FFC00000
ENDCHAR
STARTCHAR asciitilde
ENCODING 126
SWIDTH 500 0
DWIDTH 60 0
BBX 50 20 10 40
BITMAP
003FFFFC00FFC0
003FFFFC00FFC0
003FFFFC00FFC0
003FFFFC00FFC0
003FFFFC00FFC0
003FFFFC00FFC0
003FFFFC00FFC0
003FFFFC00FFC0
003FFFFC00FFC0
003FFFFC00FFC0
FFC00003FF0000
FFC00003FF0000
FFC00003FF0000
FFC00003FF0000
FFC00003FF0000
FFC00003FF0000
FFC00003FF0000
FFC00003FF0000
FFC00003FF0000
FFC00003FF0000
ENDCHAR
STARTCHAR space.dup1
ENCODING 160
SWIDTH 250 0
DWIDTH 30 0
BBX 1 1 9 0
BITMAP
00
ENDCHAR
STARTCHAR exclamdown
ENCODING 161
SWIDTH 250 0
DWIDTH 30 0
BBX 10 90 10 -20
BITMAP
FFC0
FFC0
FFC0
FFC0
FFC0
FFC0
FFC0
FFC0
FFC0
FFC0
0000
0000
0000
0000
0000
0000
0000
0000
0000
0000
FFC0
FFC0
FFC0
FFC0
FFC0
FFC0
FFC0
FFC0
FFC0
FFC0
FFC0
FFC0
FFC0
FFC0
FFC0
FFC0
FFC0
FFC0
FFC0
FFC0
FFC0
FFC0
FFC0
FFC0
FFC0
FFC0
FFC0
FFC0
FFC0
FFC0
FFC0
FFC0
FFC0
FFC0
FFC0
FFC0
FFC0
FFC0
FFC0
FFC0
FFC0
FFC0
FFC0
FFC0
FFC0
FFC0
FFC0
FFC0
FFC0
FFC0
FFC0
FFC0
FFC0
FFC0
FFC0
FFC0
FFC0
FFC0
FFC0
FFC0
FFC0
FFC0
FFC0
FFC0
FFC0
FFC0
FFC0
FFC0
FFC0
FFC0
ENDCHAR
STARTCHAR cent
ENCODING 162
SWIDTH 500 0
DWIDTH 60 0
BBX 60 80 0 0
BITMAP
00000003FF000000
00000003FF000000
00000003FF000000
00000003FF000000
00000003FF000000
00000003FF000000
00000003FF000000
00000003FF000000
00000003FF000000
00000003FF000000
003FFFFFFFFFFFF0
003FFFFFFFFFFFF0
003FFFFFFFFFFFF0
003FFFFFFFFFFFF0
003FFFFFFFFFFFF0
003FFFFFFFFFFFF0
003FFFFFFFFFFFF0
003FFFFFFFFFFFF0
003FFFFFFFFFFFF0
003FFFFFFFFFFFF0
FFFFF003FF003FF0
FFFFF003FF003FF0
FFFFF003FF003FF0
FFFFF003FF003FF0
FFFFF003FF003FF0
FFFFF003FF003FF0
FFFFF003FF003FF0
FFFFF003FF003FF0
FFFFF003FF003FF0
FFFFF003FF003FF0
FFC00003FF000000
FFC00003FF000000
FFC00003FF000000
FFC00003FF000000
FFC00003FF000000
FFC00003FF000000
FFC00003FF000000
FFC00003FF000000
FFC00003FF000000
FFC00003FF000000
FFFFF003FF000000
FFFFF003FF000000
FFFFF003FF000000
FFFFF003FF000000
FFFFF003FF000000
FFFFF003FF000000
FFFFF003FF000000
FFFFF003FF000000
FFFFF003FF000000
FFFFF003FF000000
003FF003FF003FF0
003FF003FF003FF0
003FF003FF003FF0
003FF003FF003FF0
003FF003FF003FF0
003FF003FF003FF0
003FF003FF003FF0
003FF003FF003FF0
003FF003FF003FF0
003FF003FF003FF0
00000FFFFFFFC000
00000FFFFFFFC000
00000FFFFFFFC000
00000FFFFFFFC000
00000FFFFFFFC000
00000FFFFFFFC000
00000FFFFFFFC000
00000FFFFFFFC000
00000FFFFFFFC000
00000FFFFFFFC000
00000003FF000000
00000003FF000000
00000003FF000000
00000003FF000000
00000003FF000000
00000003FF000000
00000003FF000000
00000003FF000000
00000003FF000000
00000003FF000000
ENDCHAR
STARTCHAR sterling
ENCODING 163
SWIDTH 500 0
DWIDTH 60 0
BBX 50 90 10 0
BITMAP
00000FFFFF0000
00000FFFFF0000
00000FFFFF0000
00000FFFFF0000
00000FFFFF0000
00000FFFFF0000
00000FFFFF0000
00000FFFFF0000
00000FFFFF0000
00000FFFFF0000
003FF00000FFC0
003FF00000FFC0
003FF00000FFC0
003FF00000FFC0
003FF00000FFC0
003FF00000FFC0
003FF00000FFC0
003FF00000FFC0
003FF00000FFC0
003FF00000FFC0
003FF000000000
003FF000000000
003FF000000000
003FF000000000
003FF000000000
003FF000000000
003FF000000000
003FF000000000
003FF000000000
003FF000000000
003FF000000000
003FF000000000
003FF000000000
003FF000000000
003FF000000000
003FF000000000
003FF000000000
003FF000000000
003FF000000000
003FF000000000
FFFFFFFFFF0000
FFFFFFFFFF0000
FFFFFFFFFF0000
FFFFFFFFFF0000
FFFFFFFFFF0000
FFFFFFFFFF0000
FFFFFFFFFF0000
FFFFFFFFFF0000
FFFFFFFFFF0000
FFFFFFFFFF0000
003FF000000000
003FF000000000
003FF000000000
003FF000000000
003FF000000000
003FF000000000
003FF000000000
003FF000000000
003FF000000000
003FF000000000
003FF000000000
003FF000000000
003FF000000000
003FF000000000
003FF000000000
003FF000000000
003FF000000000
003FF000000000
003FF000000000
003FF000000000
003FF00000FFC0
003FF00000FFC0
003FF00000FFC0
003FF00000FFC0
003FF00000FFC0
003FF00000FFC0
003FF00000FFC0
003FF00000FFC0
003FF00000FFC0
003FF00000FFC0
FFFFFFFFFF0000
FFFFFFFFFF0000
FFFFFFFFFF0000
FFFFFFFFFF0000
FFFFFFFFFF0000
FFFFFFFFFF0000
FFFFFFFFFF0000
FFFFFFFFFF0000
FFFFFFFFFF0000
FFFFFFFFFF0000
ENDCHAR
STARTCHAR currency
ENCODING 164
SWIDTH 500 0
DWIDTH 60 0
BBX 50 50 10 20
BITMAP
FFC00FFC00FFC0
FFC00FFC00FFC0
FFC00FFC00FFC0
FFC00FFC00FFC0
FFC00FFC00FFC0
FFC00FFC00FFC0
FFC00FFC00FFC0
FFC00FFC00FFC0
FFC00FFC00FFC0
FFC00FFC00FFC0
003FF003FF0000
003FF003FF0000
003FF003FF0000
003FF003FF0000
003FF003FF0000
003FF003FF0000
003FF003FF0000
003FF003FF0000
003FF003FF0000
003FF003FF0000
FFC0000000FFC0
FFC0000000FFC0
FFC0000000FFC0
FFC0000000FFC0
FFC0000000FFC0
FFC0000000FFC0
FFC0000000FFC0
FFC0000000FFC0
FFC0000000FFC0
FFC0000000FFC0
003FF003FF0000
003FF003FF0000
003FF003FF0000
003FF003FF0000
003FF003FF0000
003FF003FF0000
003FF003FF0000
003FF003FF0000
003FF003FF0000
003FF003FF0000
FFC00FFC00FFC0
FFC00FFC00FFC0
FFC00FFC00FFC0
FFC00FFC00FFC0
FFC00FFC00FFC0
FFC00FFC00FFC0
FFC00FFC00FFC0
FFC00FFC00FFC0
FFC00FFC00FFC0
FFC00FFC00FFC0
ENDCHAR
STARTCHAR yen
ENCODING 165
SWIDTH 500 0
DWIDTH 60 0
BBX 70 90 0 0
BITMAP
FFC000000000000FFC
FFC000000000000FFC
FFC000000000000FFC
FFC000000000000FFC
FFC000000000000FFC
FFC000000000000FFC
FFC000000000000FFC
FFC000000000000FFC
FFC000000000000FFC
FFC000000000000FFC
003FF00000003FF000
003FF00000003FF000
003FF00000003FF000
003FF00000003FF000
003FF00000003FF000
003FF00000003FF000
003FF00000003FF000
003FF00000003FF000
003FF00000003FF000
003FF00000003FF000
00000FFC00FFC00000
00000FFC00FFC00000
00000FFC00FFC00000
00000FFC00FFC00000
00000FFC00FFC00000
00000FFC00FFC00000
00000FFC00FFC00000
00000FFC00FFC00000
00000FFC00FFC00000
00000FFC00FFC00000
00000FFC00FFC00000
00000FFC00FFC00000
00000FFC00FFC00000
00000FFC00FFC00000
00000FFC00FFC00000
00000FFC00FFC00000
00000FFC00FFC00000
00000FFC00FFC00000
00000FFC00FFC00000
00000FFC00FFC00000
003FFFFFFFFFFFF000
003FFFFFFFFFFFF000
003FFFFFFFFFFFF000
003FFFFFFFFFFFF000
003FFFFFFFFFFFF000
003FFFFFFFFFFFF000
003FFFFFFFFFFFF000
003FFFFFFFFFFFF000
003FFFFFFFFFFFF000
003FFFFFFFFFFFF000
00000003FF00000000
00000003FF00000000
00000003FF00000000
00000003FF00000000
00000003FF00000000
00000003FF00000000
00000003FF00000000
00000003FF00000000
00000003FF00000000
00000003FF00000000
003FFFFFFFFFFFF000
003FFFFFFFFFFFF000
003FFFFFFFFFFFF000
003FFFFFFFFFFFF000
003FFFFFFFFFFFF000
003FFFFFFFFFFFF000
003FFFFFFFFFFFF000
003FFFFFFFFFFFF000
003FFFFFFFFFFFF000
003FFFFFFFFFFFF000
00000003FF00000000
00000003FF00000000
00000003FF00000000
00000003FF00000000
00000003FF00000000
00000003FF00000000
00000003FF00000000
00000003FF00000000
00000003FF00000000
00000003FF00000000
00000003FF00000000
00000003FF00000000
00000003FF00000000
00000003FF00000000
00000003FF00000000
00000003FF00000000
00000003FF00000000
00000003FF00000000
00000003FF00000000
00000003FF00000000
ENDCHAR
STARTCHAR brokenbar
ENCODING 166
SWIDTH 250 0
DWIDTH 30 0
BBX 10 120 10 -30
BITMAP
FFC0
FFC0
FFC0
FFC0
FFC0
FFC0
FFC0
FFC0
FFC0
FFC0
FFC0
FFC0
FFC0
FFC0
FFC0
FFC0
FFC0
FFC0
FFC0
FFC0
FFC0
FFC0
FFC0
FFC0
FFC0
FFC0
FFC0
FFC0
FFC0
FFC0
FFC0
FFC0
FFC0
FFC0
FFC0
FFC0
FFC0
FFC0
FFC0
FFC0
FFC0
FFC0
FFC0
FFC0
FFC0
FFC0
FFC0
FFC0
FFC0
FFC0
0000
0000
0000
0000
0000
0000
0000
0000
0000
0000
0000
0000
0000
0000
0000
0000
0000
0000
0000
0000
FFC0
FFC0
FFC0
FFC0
FFC0
FFC0
FFC0
FFC0
FFC0
FFC0
FFC0
FFC0
FFC0
FFC0
FFC0
FFC0
FFC0
FFC0
FFC0
FFC0
FFC0
FFC0
FFC0
FFC0
FFC0
FFC0
FFC0
FFC0
FFC0
FFC0
FFC0
FFC0
FFC0
FFC0
FFC0
FFC0
FFC0
FFC0
FFC0
FFC0
FFC0
FFC0
FFC0
FFC0
FFC0
FFC0
FFC0
FFC0
FFC0
FFC0
ENDCHAR
STARTCHAR section
ENCODING 167
SWIDTH 500 0
DWIDTH 60 0
BBX 50 100 10 -10
BITMAP
003FFFFFFF0000
003FFFFFFF0000
003FFFFFFF0000
003FFFFFFF0000
003FFFFFFF0000
003FFFFFFF0000
003FFFFFFF0000
003FFFFFFF0000
003FFFFFFF0000
003FFFFFFF0000
FFC0000000FFC0
FFC0000000FFC0
FFC0000000FFC0
FFC0000000FFC0
FFC0000000FFC0
FFC0000000FFC0
FFC0000000FFC0
FFC0000000FFC0
FFC0000000FFC0
FFC0000000FFC0
FFC00000000000
FFC00000000000
FFC00000000000
FFC00000000000
FFC00000000000
FFC00000000000
FFC00000000000
FFC00000000000
FFC00000000000
FFC00000000000
003FFFFFFF0000
003FFFFFFF0000
003FFFFFFF0000
003FFFFFFF0000
003FFFFFFF0000
003FFFFFFF0000
003FFFFFFF0000
003FFFFFFF0000
003FFFFFFF0000
003FFFFFFF0000
FFC0000000FFC0
FFC0000000FFC0
FFC0000000FFC0
FFC0000000FFC0
FFC0000000FFC0
FFC0000000FFC0
FFC0000000FFC0
FFC0000000FFC0
FFC0000000FFC0
FFC0000000FFC0
FFC0000000FFC0
FFC0000000FFC0
FFC0000000FFC0
FFC0000000FFC0
FFC0000000FFC0
FFC0000000FFC0
FFC0000000FFC0
FFC0000000FFC0
FFC0000000FFC0
FFC0000000FFC0
003FFFFFFF0000
003FFFFFFF0000
003FFFFFFF0000
003FFFFFFF0000
003FFFFFFF0000
003FFFFFFF0000
003FFFFFFF0000
003FFFFFFF0000
003FFFFFFF0000
003FFFFFFF0000
0000000000FFC0
0000000000FFC0
0000000000FFC0
0000000000FFC0
0000000000FFC0
0000000000FFC0
0000000000FFC0
0000000000FFC0
0000000000FFC0
0000000000FFC0
FFC0000000FFC0
FFC0000000FFC0
FFC0000000FFC0
FFC0000000FFC0
FFC0000000FFC0
FFC0000000FFC0
FFC0000000FFC0
FFC0000000FFC0
FFC0000000FFC0
FFC0000000FFC0
003FFFFFFF0000
003FFFFFFF0000
003FFFFFFF0000
003FFFFFFF0000
003FFFFFFF0000
003FFFFFFF0000
003FFFFFFF0000
003FFFFFFF0000
003FFFFFFF0000
003FFFFFFF0000
ENDCHAR
STARTCHAR dieresis
ENCODING 168
SWIDTH 250 0
DWIDTH 30 0
BBX 30 10 0 80
BITMAP
FFC00FFC
FFC00FFC
FFC00FFC
FFC00FFC
FFC00FFC
FFC00FFC
FFC00FFC
FFC00FFC
FFC00FFC
FFC00FFC
ENDCHAR
STARTCHAR copyright
ENCODING 169
SWIDTH 666 0
DWIDTH 80 0
BBX 90 90 0 0
BITMAP
00000FFFFFFFFFFFFC000000
00000FFFFFFFFFFFFC000000
00000FFFFFFFFFFFFC000000
00000FFFFFFFFFFFFC000000
00000FFFFFFFFFFFFC000000
00000FFFFFFFFFFFFC000000
00000FFFFFFFFFFFFC000000
00000FFFFFFFFFFFFC000000
00000FFFFFFFFFFFFC000000
00000FFFFFFFFFFFFC000000
003FF0000000000003FF0000
003FF0000000000003FF0000
003FF0000000000003FF0000
003FF0000000000003FF0000
003FF0000000000003FF0000
003FF0000000000003FF0000
003FF0000000000003FF0000
003FF0000000000003FF0000
003FF0000000000003FF0000
003FF0000000000003FF0000
FFC00003FFFFFFF00000FFC0
FFC00003FFFFFFF00000FFC0
FFC00003FFFFFFF00000FFC0
FFC00003FFFFFFF00000FFC0
FFC00003FFFFFFF00000FFC0
FFC00003FFFFFFF00000FFC0
FFC00003FFFFFFF00000FFC0
FFC00003FFFFFFF00000FFC0
FFC00003FFFFFFF00000FFC0
FFC00003FFFFFFF00000FFC0
FFC00FFC0000000FFC00FFC0
FFC00FFC0000000FFC00FFC0
FFC00FFC0000000FFC00FFC0
FFC00FFC0000000FFC00FFC0
FFC00FFC0000000FFC00FFC0
FFC00FFC0000000FFC00FFC0
FFC00FFC0000000FFC00FFC0
FFC00FFC0000000FFC00FFC0
FFC00FFC0000000FFC00FFC0
FFC00FFC0000000FFC00FFC0
FFC00FFC000000000000FFC0
FFC00FFC000000000000FFC0
FFC00FFC000000000000FFC0
FFC00FFC000000000000FFC0
FFC00FFC000000000000FFC0
FFC00FFC000000000000FFC0
FFC00FFC000000000000FFC0
FFC00FFC000000000000FFC0
FFC00FFC000000000000FFC0
FFC00FFC000000000000FFC0
FFC00FFC0000000FFC00FFC0
FFC00FFC0000000FFC00FFC0
FFC00FFC0000000FFC00FFC0
FFC00FFC0000000FFC00FFC0
FFC00FFC0000000FFC00FFC0
FFC00FFC0000000FFC00FFC0
FFC00FFC0000000FFC00FFC0
FFC00FFC0000000FFC00FFC0
FFC00FFC0000000FFC00FFC0
FFC00FFC0000000FFC00FFC0
FFC00003FFFFFFF00000FFC0
FFC00003FFFFFFF00000FFC0
FFC00003FFFFFFF00000FFC0
FFC00003FFFFFFF00000FFC0
FFC00003FFFFFFF00000FFC0
FFC00003FFFFFFF00000FFC0
FFC00003FFFFFFF00000FFC0
FFC00003FFFFFFF00000FFC0
FFC00003FFFFFFF00000FFC0
FFC00003FFFFFFF00000FFC0
003FF0000000000003FF0000
003FF0000000000003FF0000
003FF0000000000003FF0000
003FF0000000000003FF0000
003FF0000000000003FF0000
003FF0000000000003FF0000
003FF0000000000003FF0000
003FF0000000000003FF0000
003FF0000000000003FF0000
003FF0000000000003FF0000
00000FFFFFFFFFFFFC000000
00000FFFFFFFFFFFFC000000
00000FFFFFFFFFFFFC000000
00000FFFFFFFFFFFFC000000
00000FFFFFFFFFFFFC000000
00000FFFFFFFFFFFFC000000
00000FFFFFFFFFFFFC000000
00000FFFFFFFFFFFFC000000
00000FFFFFFFFFFFFC000000
00000FFFFFFFFFFFFC000000
ENDCHAR
STARTCHAR ordfeminine
ENCODING 170
SWIDTH 333 0
DWIDTH 40 0
BBX 40 50 0 40
BITMAP
FFFFF00000
FFFFF00000
FFFFF00000
FFFFF00000
FFFFF00000
FFFFF00000
FFFFF00000
FFFFF00000
FFFFF00000
FFFFF00000
00000FFC00
00000FFC00
00000FFC00
00000FFC00
00000FFC00
00000FFC00
00000FFC00
00000FFC00
00000FFC00
00000FFC00
003FFFFC00
003FFFFC00
003FFFFC00
003FFFFC00
003FFFFC00
003FFFFC00
003FFFFC00
003FFFFC00
003FFFFC00
003FFFFC00
FFC00FFC00
FFC00FFC00
FFC00FFC00
FFC00FFC00
FFC00FFC00
FFC00FFC00
FFC00FFC00
FFC00FFC00
FFC00FFC00
FFC00FFC00
003FF003FF
003FF003FF
003FF003FF
003FF003FF
003FF003FF
003FF003FF
003FF003FF
003FF003FF
003FF003FF
003FF003FF
ENDCHAR
STARTCHAR guillemotleft
ENCODING 171
SWIDTH 500 0
DWIDTH 60 0
BBX 60 50 0 10
BITMAP
00000FFC00003FF0
00000FFC00003FF0
00000FFC00003FF0
00000FFC00003FF0
00000FFC00003FF0
00000FFC00003FF0
00000FFC00003FF0
00000FFC00003FF0
00000FFC00003FF0
00000FFC00003FF0
003FF00000FFC000
003FF00000FFC000
003FF00000FFC000
003FF00000FFC000
003FF00000FFC000
003FF00000FFC000
003FF00000FFC000
003FF00000FFC000
003FF00000FFC000
003FF00000FFC000
FFC00003FF000000
FFC00003FF000000
FFC00003FF000000
FFC00003FF000000
FFC00003FF000000
FFC00003FF000000
FFC00003FF000000
FFC00003FF000000
FFC00003FF000000
FFC00003FF000000
003FF00000FFC000
003FF00000FFC000
003FF00000FFC000
003FF00000FFC000
003FF00000FFC000
003FF00000FFC000
003FF00000FFC000
003FF00000FFC000
003FF00000FFC000
003FF00000FFC000
00000FFC00003FF0
00000FFC00003FF0
00000FFC00003FF0
00000FFC00003FF0
00000FFC00003FF0
00000FFC00003FF0
00000FFC00003FF0
00000FFC00003FF0
00000FFC00003FF0
00000FFC00003FF0
ENDCHAR
STARTCHAR logicalnot
ENCODING 172
SWIDTH 500 0
DWIDTH 60 0
BBX 50 30 10 20
BITMAP
FFFFFFFFFFFFC0
FFFFFFFFFFFFC0
FFFFFFFFFFFFC0
FFFFFFFFFFFFC0
FFFFFFFFFFFFC0
FFFFFFFFFFFFC0
FFFFFFFFFFFFC0
FFFFFFFFFFFFC0
FFFFFFFFFFFFC0
FFFFFFFFFFFFC0
0000000000FFC0
0000000000FFC0
0000000000FFC0
0000000000FFC0
0000000000FFC0
0000000000FFC0
0000000000FFC0
0000000000FFC0
0000000000FFC0
0000000000FFC0
0000000000FFC0
0000000000FFC0
0000000000FFC0
0000000000FFC0
0000000000FFC0
0000000000FFC0
0000000000FFC0
0000000000FFC0
0000000000FFC0
0000000000FFC0
ENDCHAR
STARTCHAR hyphen.dup2
ENCODING 173
SWIDTH 250 0
DWIDTH 30 0
BBX 20 10 10 30
BITMAP
FFFFF0
FFFFF0
FFFFF0
FFFFF0
FFFFF0
FFFFF0
FFFFF0
FFFFF0
FFFFF0
FFFFF0
ENDCHAR
STARTCHAR registered
ENCODING 174
SWIDTH 666 0
DWIDTH 80 0
BBX 90 90 0 0
BITMAP
00000FFFFFFFFFFFFC000000
00000FFFFFFFFFFFFC000000
00000FFFFFFFFFFFFC000000
00000FFFFFFFFFFFFC000000
00000FFFFFFFFFFFFC000000
00000FFFFFFFFFFFFC000000
00000FFFFFFFFFFFFC000000
00000FFFFFFFFFFFFC000000
00000FFFFFFFFFFFFC000000
00000FFFFFFFFFFFFC000000
003FF0000000000003FF0000
003FF0000000000003FF0000
003FF0000000000003FF0000
003FF0000000000003FF0000
003FF0000000000003FF0000
003FF0000000000003FF0000
003FF0000000000003FF0000
003FF0000000000003FF0000
003FF0000000000003FF0000
003FF0000000000003FF0000
FFC00003FFFFFFF00000FFC0
FFC00003FFFFFFF00000FFC0
FFC00003FFFFFFF00000FFC0
FFC00003FFFFFFF00000FFC0
FFC00003FFFFFFF00000FFC0
FFC00003FFFFFFF00000FFC0
FFC00003FFFFFFF00000FFC0
FFC00003FFFFFFF00000FFC0
FFC00003FFFFFFF00000FFC0
FFC00003FFFFFFF00000FFC0
FFC00003FF00000FFC00FFC0
FFC00003FF00000FFC00FFC0
FFC00003FF00000FFC00FFC0
FFC00003FF00000FFC00FFC0
FFC00003FF00000FFC00FFC0
FFC00003FF00000FFC00FFC0
FFC00003FF00000FFC00FFC0
FFC00003FF00000FFC00FFC0
FFC00003FF00000FFC00FFC0
FFC00003FF00000FFC00FFC0
FFC00003FFFFFFF00000FFC0
FFC00003FFFFFFF00000FFC0
FFC00003FFFFFFF00000FFC0
FFC00003FFFFFFF00000FFC0
FFC00003FFFFFFF00000FFC0
FFC00003FFFFFFF00000FFC0
FFC00003FFFFFFF00000FFC0
FFC00003FFFFFFF00000FFC0
FFC00003FFFFFFF00000FFC0
FFC00003FFFFFFF00000FFC0
FFC00003FF003FF00000FFC0
FFC00003FF003FF00000FFC0
FFC00003FF003FF00000FFC0
FFC00003FF003FF00000FFC0
FFC00003FF003FF00000FFC0
FFC00003FF003FF00000FFC0
FFC00003FF003FF00000FFC0
FFC00003FF003FF00000FFC0
FFC00003FF003FF00000FFC0
FFC00003FF003FF00000FFC0
FFC00003FF00000FFC00FFC0
FFC00003FF00000FFC00FFC0
FFC00003FF00000FFC00FFC0
FFC00003FF00000FFC00FFC0
FFC00003FF00000FFC00FFC0
FFC00003FF00000FFC00FFC0
FFC00003FF00000FFC00FFC0
FFC00003FF00000FFC00FFC0
FFC00003FF00000FFC00FFC0
FFC00003FF00000FFC00FFC0
003FF0000000000003FF0000
003FF0000000000003FF0000
003FF0000000000003FF0000
003FF0000000000003FF0000
003FF0000000000003FF0000
003FF0000000000003FF0000
003FF0000000000003FF0000
003FF0000000000003FF0000
003FF0000000000003FF0000
003FF0000000000003FF0000
00000FFFFFFFFFFFFC000000
00000FFFFFFFFFFFFC000000
00000FFFFFFFFFFFFC000000
00000FFFFFFFFFFFFC000000
00000FFFFFFFFFFFFC000000
00000FFFFFFFFFFFFC000000
00000FFFFFFFFFFFFC000000
00000FFFFFFFFFFFFC000000
00000FFFFFFFFFFFFC000000
00000FFFFFFFFFFFFC000000
ENDCHAR
STARTCHAR macron
ENCODING 175
SWIDTH 500 0
DWIDTH 60 0
BBX 70 10 0 90
BITMAP
FFFFFFFFFFFFFFFFFC
FFFFFFFFFFFFFFFFFC
FFFFFFFFFFFFFFFFFC
FFFFFFFFFFFFFFFFFC
FFFFFFFFFFFFFFFFFC
FFFFFFFFFFFFFFFFFC
FFFFFFFFFFFFFFFFFC
FFFFFFFFFFFFFFFFFC
FFFFFFFFFFFFFFFFFC
FFFFFFFFFFFFFFFFFC
ENDCHAR
STARTCHAR degree
ENCODING 176
SWIDTH 333 0
DWIDTH 40 0
BBX 30 30 10 60
BITMAP
003FF000
003FF000
003FF000
003FF000
003FF000
003FF000
003FF000
003FF000
003FF000
003FF000
FFC00FFC
FFC00FFC
FFC00FFC
FFC00FFC
FFC00FFC
FFC00FFC
FFC00FFC
FFC00FFC
FFC00FFC
FFC00FFC
003FF000
003FF000
003FF000
003FF000
003FF000
003FF000
003FF000
003FF000
003FF000
003FF000
ENDCHAR
STARTCHAR plusminus
ENCODING 177
SWIDTH 500 0
DWIDTH 60 0
BBX 50 70 10 0
BITMAP
00000FFC000000
00000FFC000000
00000FFC000000
00000FFC000000
00000FFC000000
00000FFC000000
00000FFC000000
00000FFC000000
00000FFC000000
00000FFC000000
00000FFC000000
00000FFC000000
00000FFC000000
00000FFC000000
00000FFC000000
00000FFC000000
00000FFC000000
00000FFC000000
00000FFC000000
00000FFC000000
FFFFFFFFFFFFC0
FFFFFFFFFFFFC0
FFFFFFFFFFFFC0
FFFFFFFFFFFFC0
FFFFFFFFFFFFC0
FFFFFFFFFFFFC0
FFFFFFFFFFFFC0
FFFFFFFFFFFFC0
FFFFFFFFFFFFC0
FFFFFFFFFFFFC0
00000FFC000000
00000FFC000000
00000FFC000000
00000FFC000000
00000FFC000000
00000FFC000000
00000FFC000000
00000FFC000000
00000FFC000000
00000FFC000000
00000FFC000000
00000FFC000000
00000FFC000000
00000FFC000000
00000FFC000000
00000FFC000000
00000FFC000000
00000FFC000000
00000FFC000000
00000FFC000000
00000000000000
00000000000000
00000000000000
00000000000000
00000000000000
00000000000000
00000000000000
00000000000000
00000000000000
00000000000000
FFFFFFFFFFFFC0
FFFFFFFFFFFFC0
FFFFFFFFFFFFC0
FFFFFFFFFFFFC0
FFFFFFFFFFFFC0
FFFFFFFFFFFFC0
FFFFFFFFFFFFC0
FFFFFFFFFFFFC0
FFFFFFFFFFFFC0
FFFFFFFFFFFFC0
ENDCHAR
STARTCHAR uni00B2
ENCODING 178
SWIDTH 250 0
DWIDTH 30 0
BBX 40 50 0 40
BITMAP
FFFFFFFC00
FFFFFFFC00
FFFFFFFC00
FFFFFFFC00
FFFFFFFC00
FFFFFFFC00
FFFFFFFC00
FFFFFFFC00
FFFFFFFC00
FFFFFFFC00
00000003FF
00000003FF
00000003FF
00000003FF
00000003FF
00000003FF
00000003FF
00000003FF
00000003FF
00000003FF
00000FFC00
00000FFC00
00000FFC00
00000FFC00
00000FFC00
00000FFC00
00000FFC00
00000FFC00
00000FFC00
00000FFC00
003FF00000
003FF00000
003FF00000
003FF00000
003FF00000
003FF00000
003FF00000
003FF00000
003FF00000
003FF00000
FFFFFFFFFF
FFFFFFFFFF
FFFFFFFFFF
FFFFFFFFFF
FFFFFFFFFF
FFFFFFFFFF
FFFFFFFFFF
FFFFFFFFFF
FFFFFFFFFF
FFFFFFFFFF
ENDCHAR
STARTCHAR uni00B3
ENCODING 179
SWIDTH 250 0
DWIDTH 30 0
BBX 40 50 0 40
BITMAP
FFFFFFFC00
FFFFFFFC00
FFFFFFFC00
FFFFFFFC00
FFFFFFFC00
FFFFFFFC00
FFFFFFFC00
FFFFFFFC00
FFFFFFFC00
FFFFFFFC00
00000003FF
00000003FF
00000003FF
00000003FF
00000003FF
00000003FF
00000003FF
00000003FF
00000003FF
00000003FF
003FFFFC00
003FFFFC00
003FFFFC00
003FFFFC00
003FFFFC00
003FFFFC00
003FFFFC00
003FFFFC00
003FFFFC00
003FFFFC00
00000003FF
00000003FF
00000003FF
00000003FF
00000003FF
00000003FF
00000003FF
00000003FF
00000003FF
00000003FF
FFFFFFFC00
FFFFFFFC00
FFFFFFFC00
FFFFFFFC00
FFFFFFFC00
FFFFFFFC00
FFFFFFFC00
FFFFFFFC00
FFFFFFFC00
FFFFFFFC00
ENDCHAR
STARTCHAR acute
ENCODING 180
SWIDTH 250 0
DWIDTH 30 0
BBX 20 20 10 80
BITMAP
003FF0
003FF0
003FF0
003FF0
003FF0
003FF0
003FF0
003FF0
003FF0
003FF0
FFC000
FFC000
FFC000
FFC000
FFC000
FFC000
FFC000
FFC000
FFC000
FFC000
ENDCHAR
STARTCHAR u00B5
ENCODING 181
SWIDTH 500 0
DWIDTH 60 0
BBX 60 90 10 -20
BITMAP
FFC0000000FFC000
FFC0000000FFC000
FFC0000000FFC000
FFC0000000FFC000
FFC0000000FFC000
FFC0000000FFC000
FFC0000000FFC000
FFC0000000FFC000
FFC0000000FFC000
FFC0000000FFC000
FFC0000000FFC000
FFC0000000FFC000
FFC0000000FFC000
FFC0000000FFC000
FFC0000000FFC000
FFC0000000FFC000
FFC0000000FFC000
FFC0000000FFC000
FFC0000000FFC000
FFC0000000FFC000
FFC0000000FFC000
FFC0000000FFC000
FFC0000000FFC000
FFC0000000FFC000
FFC0000000FFC000
FFC0000000FFC000
FFC0000000FFC000
FFC0000000FFC000
FFC0000000FFC000
FFC0000000FFC000
FFC0000000FFC000
FFC0000000FFC000
FFC0000000FFC000
FFC0000000FFC000
FFC0000000FFC000
FFC0000000FFC000
FFC0000000FFC000
FFC0000000FFC000
FFC0000000FFC000
FFC0000000FFC000
FFC0000000FFC000
FFC0000000FFC000
FFC0000000FFC000
FFC0000000FFC000
FFC0000000FFC000
FFC0000000FFC000
FFC0000000FFC000
FFC0000000FFC000
FFC0000000FFC000
FFC0000000FFC000
FFC0000000FFC000
FFC0000000FFC000
FFC0000000FFC000
FFC0000000FFC000
FFC0000000FFC000
FFC0000000FFC000
FFC0000000FFC000
FFC0000000FFC000
FFC0000000FFC000
FFC0000000FFC000
FFFFFFFFFF003FF0
FFFFFFFFFF003FF0
FFFFFFFFFF003FF0
FFFFFFFFFF003FF0
FFFFFFFFFF003FF0
FFFFFFFFFF003FF0
FFFFFFFFFF003FF0
FFFFFFFFFF003FF0
FFFFFFFFFF003FF0
FFFFFFFFFF003FF0
FFC0000000000000
FFC0000000000000
FFC0000000000000
FFC0000000000000
FFC0000000000000
FFC0000000000000
FFC0000000000000
FFC0000000000000
FFC0000000000000
FFC0000000000000
FFC0000000000000
FFC0000000000000
FFC0000000000000
FFC0000000000000
FFC0000000000000
FFC0000000000000
FFC0000000000000
FFC0000000000000
FFC0000000000000
FFC0000000000000
ENDCHAR
STARTCHAR paragraph
ENCODING 182
SWIDTH 500 0
DWIDTH 60 0
BBX 60 110 0 -20
BITMAP
003FFFFFFFFFFFF0
003FFFFFFFFFFFF0
003FFFFFFFFFFFF0
003FFFFFFFFFFFF0
003FFFFFFFFFFFF0
003FFFFFFFFFFFF0
003FFFFFFFFFFFF0
003FFFFFFFFFFFF0
003FFFFFFFFFFFF0
003FFFFFFFFFFFF0
FFFFFFFC00FFC000
FFFFFFFC00FFC000
FFFFFFFC00FFC000
FFFFFFFC00FFC000
FFFFFFFC00FFC000
FFFFFFFC00FFC000
FFFFFFFC00FFC000
FFFFFFFC00FFC000
FFFFFFFC00FFC000
FFFFFFFC00FFC000
FFFFFFFC00FFC000
FFFFFFFC00FFC000
FFFFFFFC00FFC000
FFFFFFFC00FFC000
FFFFFFFC00FFC000
FFFFFFFC00FFC000
FFFFFFFC00FFC000
FFFFFFFC00FFC000
FFFFFFFC00FFC000
FFFFFFFC00FFC000
FFFFFFFC00FFC000
FFFFFFFC00FFC000
FFFFFFFC00FFC000
FFFFFFFC00FFC000
FFFFFFFC00FFC000
FFFFFFFC00FFC000
FFFFFFFC00FFC000
FFFFFFFC00FFC000
FFFFFFFC00FFC000
FFFFFFFC00FFC000
003FFFFC00FFC000
003FFFFC00FFC000
003FFFFC00FFC000
003FFFFC00FFC000
003FFFFC00FFC000
003FFFFC00FFC000
003FFFFC00FFC000
003FFFFC00FFC000
003FFFFC00FFC000
003FFFFC00FFC000
00000FFC00FFC000
00000FFC00FFC000
00000FFC00FFC000
00000FFC00FFC000
00000FFC00FFC000
00000FFC00FFC000
00000FFC00FFC000
00000FFC00FFC000
00000FFC00FFC000
00000FFC00FFC000
00000FFC00FFC000
00000FFC00FFC000
00000FFC00FFC000
00000FFC00FFC000
00000FFC00FFC000
00000FFC00FFC000
00000FFC00FFC000
00000FFC00FFC000
00000FFC00FFC000
00000FFC00FFC000
00000FFC00FFC000
00000FFC00FFC000
00000FFC00FFC000
00000FFC00FFC000
00000FFC00FFC000
00000FFC00FFC000
00000FFC00FFC000
00000FFC00FFC000
00000FFC00FFC000
00000FFC00FFC000
00000FFC00FFC000
00000FFC00FFC000
00000FFC00FFC000
00000FFC00FFC000
00000FFC00FFC000
00000FFC00FFC000
00000FFC00FFC000
00000FFC00FFC000
00000FFC00FFC000
00000FFC00FFC000
00000FFC00FFC000
00000FFC00FFC000
00000FFC00FFC000
00000FFC00FFC000
00000FFC00FFC000
00000FFC00FFC000
00000FFC00FFC000
00000FFC00FFC000
00000FFC00FFC000
00000FFC00FFC000
00000FFC00FFC000
00000FFC00FFC000
00000FFC00FFC000
00000FFC00FFC000
00000FFC00FFC000
00000FFC00FFC000
00000FFC00FFC000
00000FFC00FFC000
00000FFC00FFC000
00000FFC00FFC000
ENDCHAR
STARTCHAR periodcentered
ENCODING 183
SWIDTH 250 0
DWIDTH 30 0
BBX 10 10 10 30
BITMAP
FFC0
FFC0
FFC0
FFC0
FFC0
FFC0
FFC0
FFC0
FFC0
FFC0
ENDCHAR
STARTCHAR cedilla
ENCODING 184
SWIDTH 250 0
DWIDTH 30 0
BBX 20 30 10 -30
BITMAP
FFC000
FFC000
FFC000
FFC000
FFC000
FFC000
FFC000
FFC000
FFC000
FFC000
003FF0
003FF0
003FF0
003FF0
003FF0
003FF0
003FF0
003FF0
003FF0
003FF0
FFC000
FFC000
FFC000
FFC000
FFC000
FFC000
FFC000
FFC000
FFC000
FFC000
ENDCHAR
STARTCHAR uni00B9
ENCODING 185
SWIDTH 250 0
DWIDTH 30 0
BBX 30 50 10 40
BITMAP
003FF000
003FF000
003FF000
003FF000
003FF000
003FF000
003FF000
003FF000
003FF000
003FF000
FFFFF000
FFFFF000
FFFFF000
FFFFF000
FFFFF000
FFFFF000
FFFFF000
FFFFF000
FFFFF000
FFFFF000
003FF000
003FF000
003FF000
003FF000
003FF000
003FF000
003FF000
003FF000
003FF000
003FF000
003FF000
003FF000
003FF000
003FF000
003FF000
003FF000
003FF000
003FF000
003FF000
003FF000
FFFFFFFC
FFFFFFFC
FFFFFFFC
FFFFFFFC
FFFFFFFC
FFFFFFFC
FFFFFFFC
FFFFFFFC
FFFFFFFC
FFFFFFFC
ENDCHAR
STARTCHAR ordmasculine
ENCODING 186
SWIDTH 333 0
DWIDTH 40 0
BBX 30 50 0 40
BITMAP
003FF000
003FF000
003FF000
003FF000
003FF000
003FF000
003FF000
003FF000
003FF000
003FF000
FFC00FFC
FFC00FFC
FFC00FFC
FFC00FFC
FFC00FFC
FFC00FFC
FFC00FFC
FFC00FFC
FFC00FFC
FFC00FFC
FFC00FFC
FFC00FFC
FFC00FFC
FFC00FFC
FFC00FFC
FFC00FFC
FFC00FFC
FFC00FFC
FFC00FFC
FFC00FFC
FFC00FFC
FFC00FFC
FFC00FFC
FFC00FFC
FFC00FFC
FFC00FFC
FFC00FFC
FFC00FFC
FFC00FFC
FFC00FFC
003FF000
003FF000
003FF000
003FF000
003FF000
003FF000
003FF000
003FF000
003FF000
003FF000
ENDCHAR
STARTCHAR guillemotright
ENCODING 187
SWIDTH 500 0
DWIDTH 60 0
BBX 60 50 10 10
BITMAP
FFC00003FF000000
FFC00003FF000000
FFC00003FF000000
FFC00003FF000000
FFC00003FF000000
FFC00003FF000000
FFC00003FF000000
FFC00003FF000000
FFC00003FF000000
FFC00003FF000000
003FF00000FFC000
003FF00000FFC000
003FF00000FFC000
003FF00000FFC000
003FF00000FFC000
003FF00000FFC000
003FF00000FFC000
003FF00000FFC000
003FF00000FFC000
003FF00000FFC000
00000FFC00003FF0
00000FFC00003FF0
00000FFC00003FF0
00000FFC00003FF0
00000FFC00003FF0
00000FFC00003FF0
00000FFC00003FF0
00000FFC00003FF0
00000FFC00003FF0
00000FFC00003FF0
003FF00000FFC000
003FF00000FFC000
003FF00000FFC000
003FF00000FFC000
003FF00000FFC000
003FF00000FFC000
003FF00000FFC000
003FF00000FFC000
003FF00000FFC000
003FF00000FFC000
FFC00003FF000000
FFC00003FF000000
FFC00003FF000000
FFC00003FF000000
FFC00003FF000000
FFC00003FF000000
FFC00003FF000000
FFC00003FF000000
FFC00003FF000000
FFC00003FF000000
ENDCHAR
STARTCHAR onequarter
ENCODING 188
SWIDTH 750 0
DWIDTH 90 0
BBX 90 90 10 0
BITMAP
003FF0000000000FFC000000
003FF0000000000FFC000000
003FF0000000000FFC000000
003FF0000000000FFC000000
003FF0000000000FFC000000
003FF0000000000FFC000000
003FF0000000000FFC000000
003FF0000000000FFC000000
003FF0000000000FFC000000
003FF0000000000FFC000000
FFFFF00000003FF000000000
FFFFF00000003FF000000000
FFFFF00000003FF000000000
FFFFF00000003FF000000000
FFFFF00000003FF000000000
FFFFF00000003FF000000000
FFFFF00000003FF000000000
FFFFF00000003FF000000000
FFFFF00000003FF000000000
FFFFF00000003FF000000000
003FF00000003FF000000000
003FF00000003FF000000000
003FF00000003FF000000000
003FF00000003FF000000000
003FF00000003FF000000000
003FF00000003FF000000000
003FF00000003FF000000000
003FF00000003FF000000000
003FF00000003FF000000000
003FF00000003FF000000000
003FF00000FFC00000000000
003FF00000FFC00000000000
003FF00000FFC00000000000
003FF00000FFC00000000000
003FF00000FFC00000000000
003FF00000FFC00000000000
003FF00000FFC00000000000
003FF00000FFC00000000000
003FF00000FFC00000000000
003FF00000FFC00000000000
FFFFFFFFFF00000003FF0000
FFFFFFFFFF00000003FF0000
FFFFFFFFFF00000003FF0000
FFFFFFFFFF00000003FF0000
FFFFFFFFFF00000003FF0000
FFFFFFFFFF00000003FF0000
FFFFFFFFFF00000003FF0000
FFFFFFFFFF00000003FF0000
FFFFFFFFFF00000003FF0000
FFFFFFFFFF00000003FF0000
00000003FF00000FFFFF0000
00000003FF00000FFFFF0000
00000003FF00000FFFFF0000
00000003FF00000FFFFF0000
00000003FF00000FFFFF0000
00000003FF00000FFFFF0000
00000003FF00000FFFFF0000
00000003FF00000FFFFF0000
00000003FF00000FFFFF0000
00000003FF00000FFFFF0000
00000FFC00003FF003FF0000
00000FFC00003FF003FF0000
00000FFC00003FF003FF0000
00000FFC00003FF003FF0000
00000FFC00003FF003FF0000
00000FFC00003FF003FF0000
00000FFC00003FF003FF0000
00000FFC00003FF003FF0000
00000FFC00003FF003FF0000
00000FFC00003FF003FF0000
00000FFC00003FFFFFFFFFC0
00000FFC00003FFFFFFFFFC0
00000FFC00003FFFFFFFFFC0
00000FFC00003FFFFFFFFFC0
00000FFC00003FFFFFFFFFC0
00000FFC00003FFFFFFFFFC0
00000FFC00003FFFFFFFFFC0
00000FFC00003FFFFFFFFFC0
00000FFC00003FFFFFFFFFC0
00000FFC00003FFFFFFFFFC0
003FF0000000000003FF0000
003FF0000000000003FF0000
003FF0000000000003FF0000
003FF0000000000003FF0000
003FF0000000000003FF0000
003FF0000000000003FF0000
003FF0000000000003FF0000
003FF0000000000003FF0000
003FF0000000000003FF0000
003FF0000000000003FF0000
ENDCHAR
STARTCHAR onehalf
ENCODING 189
SWIDTH 750 0
DWIDTH 90 0
BBX 90 90 10 0
BITMAP
003FF0000000000FFC000000
003FF0000000000FFC000000
003FF0000000000FFC000000
003FF0000000000FFC000000
003FF0000000000FFC000000
003FF0000000000FFC000000
003FF0000000000FFC000000
003FF0000000000FFC000000
003FF0000000000FFC000000
003FF0000000000FFC000000
FFFFF00000003FF000000000
FFFFF00000003FF000000000
FFFFF00000003FF000000000
FFFFF00000003FF000000000
FFFFF00000003FF000000000
FFFFF00000003FF000000000
FFFFF00000003FF000000000
FFFFF00000003FF000000000
FFFFF00000003FF000000000
FFFFF00000003FF000000000
003FF00000003FF000000000
003FF00000003FF000000000
003FF00000003FF000000000
003FF00000003FF000000000
003FF00000003FF000000000
003FF00000003FF000000000
003FF00000003FF000000000
003FF00000003FF000000000
003FF00000003FF000000000
003FF00000003FF000000000
003FF00000FFC00000000000
003FF00000FFC00000000000
003FF00000FFC00000000000
003FF00000FFC00000000000
003FF00000FFC00000000000
003FF00000FFC00000000000
003FF00000FFC00000000000
003FF00000FFC00000000000
003FF00000FFC00000000000
003FF00000FFC00000000000
FFFFFFFFFF003FFFFFFF0000
FFFFFFFFFF003FFFFFFF0000
FFFFFFFFFF003FFFFFFF0000
FFFFFFFFFF003FFFFFFF0000
FFFFFFFFFF003FFFFFFF0000
FFFFFFFFFF003FFFFFFF0000
FFFFFFFFFF003FFFFFFF0000
FFFFFFFFFF003FFFFFFF0000
FFFFFFFFFF003FFFFFFF0000
FFFFFFFFFF003FFFFFFF0000
00000003FF0000000000FFC0
00000003FF0000000000FFC0
00000003FF0000000000FFC0
00000003FF0000000000FFC0
00000003FF0000000000FFC0
00000003FF0000000000FFC0
00000003FF0000000000FFC0
00000003FF0000000000FFC0
00000003FF0000000000FFC0
00000003FF0000000000FFC0
00000FFC0000000003FF0000
00000FFC0000000003FF0000
00000FFC0000000003FF0000
00000FFC0000000003FF0000
00000FFC0000000003FF0000
00000FFC0000000003FF0000
00000FFC0000000003FF0000
00000FFC0000000003FF0000
00000FFC0000000003FF0000
00000FFC0000000003FF0000
00000FFC0000000FFC000000
00000FFC0000000FFC000000
00000FFC0000000FFC000000
00000FFC0000000FFC000000
00000FFC0000000FFC000000
00000FFC0000000FFC000000
00000FFC0000000FFC000000
00000FFC0000000FFC000000
00000FFC0000000FFC000000
00000FFC0000000FFC000000
003FF00000003FFFFFFFFFC0
003FF00000003FFFFFFFFFC0
003FF00000003FFFFFFFFFC0
003FF00000003FFFFFFFFFC0
003FF00000003FFFFFFFFFC0
003FF00000003FFFFFFFFFC0
003FF00000003FFFFFFFFFC0
003FF00000003FFFFFFFFFC0
003FF00000003FFFFFFFFFC0
003FF00000003FFFFFFFFFC0
ENDCHAR
STARTCHAR threequarters
ENCODING 190
SWIDTH 750 0
DWIDTH 90 0
BBX 100 90 0 0
BITMAP
FFFFFFFC000000000000FFC000
FFFFFFFC000000000000FFC000
FFFFFFFC000000000000FFC000
FFFFFFFC000000000000FFC000
FFFFFFFC000000000000FFC000
FFFFFFFC000000000000FFC000
FFFFFFFC000000000000FFC000
FFFFFFFC000000000000FFC000
FFFFFFFC000000000000FFC000
FFFFFFFC000000000000FFC000
00000003FF00000003FF000000
00000003FF00000003FF000000
00000003FF00000003FF000000
00000003FF00000003FF000000
00000003FF00000003FF000000
00000003FF00000003FF000000
00000003FF00000003FF000000
00000003FF00000003FF000000
00000003FF00000003FF000000
00000003FF00000003FF000000
003FFFFC0000000003FF000000
003FFFFC0000000003FF000000
003FFFFC0000000003FF000000
003FFFFC0000000003FF000000
003FFFFC0000000003FF000000
003FFFFC0000000003FF000000
003FFFFC0000000003FF000000
003FFFFC0000000003FF000000
003FFFFC0000000003FF000000
003FFFFC0000000003FF000000
00000003FF00000FFC00000000
00000003FF00000FFC00000000
00000003FF00000FFC00000000
00000003FF00000FFC00000000
00000003FF00000FFC00000000
00000003FF00000FFC00000000
00000003FF00000FFC00000000
00000003FF00000FFC00000000
00000003FF00000FFC00000000
00000003FF00000FFC00000000
FFFFFFFC00003FF00000FFC000
FFFFFFFC00003FF00000FFC000
FFFFFFFC00003FF00000FFC000
FFFFFFFC00003FF00000FFC000
FFFFFFFC00003FF00000FFC000
FFFFFFFC00003FF00000FFC000
FFFFFFFC00003FF00000FFC000
FFFFFFFC00003FF00000FFC000
FFFFFFFC00003FF00000FFC000
FFFFFFFC00003FF00000FFC000
0000000000003FF003FFFFC000
0000000000003FF003FFFFC000
0000000000003FF003FFFFC000
0000000000003FF003FFFFC000
0000000000003FF003FFFFC000
0000000000003FF003FFFFC000
0000000000003FF003FFFFC000
0000000000003FF003FFFFC000
0000000000003FF003FFFFC000
0000000000003FF003FFFFC000
0000000000FFC00FFC00FFC000
0000000000FFC00FFC00FFC000
0000000000FFC00FFC00FFC000
0000000000FFC00FFC00FFC000
0000000000FFC00FFC00FFC000
0000000000FFC00FFC00FFC000
0000000000FFC00FFC00FFC000
0000000000FFC00FFC00FFC000
0000000000FFC00FFC00FFC000
0000000000FFC00FFC00FFC000
0000000000FFC00FFFFFFFFFF0
0000000000FFC00FFFFFFFFFF0
0000000000FFC00FFFFFFFFFF0
0000000000FFC00FFFFFFFFFF0
0000000000FFC00FFFFFFFFFF0
0000000000FFC00FFFFFFFFFF0
0000000000FFC00FFFFFFFFFF0
0000000000FFC00FFFFFFFFFF0
0000000000FFC00FFFFFFFFFF0
0000000000FFC00FFFFFFFFFF0
00000003FF0000000000FFC000
00000003FF0000000000FFC000
00000003FF0000000000FFC000
00000003FF0000000000FFC000
00000003FF0000000000FFC000
00000003FF0000000000FFC000
00000003FF0000000000FFC000
00000003FF0000000000FFC000
00000003FF0000000000FFC000
00000003FF0000000000FFC000
ENDCHAR
STARTCHAR questiondown
ENCODING 191
SWIDTH 583 0
DWIDTH 70 0
BBX 50 90 10 -20
BITMAP
00000FFC000000
00000FFC000000
00000FFC000000
00000FFC000000
00000FFC000000
00000FFC000000
00000FFC000000
00000FFC000000
00000FFC000000
00000FFC000000
00000000000000
00000000000000
00000000000000
00000000000000
00000000000000
00000000000000
00000000000000
00000000000000
00000000000000
00000000000000
00000FFC000000
00000FFC000000
00000FFC000000
00000FFC000000
00000FFC000000
00000FFC000000
00000FFC000000
00000FFC000000
00000FFC000000
00000FFC000000
00000FFC000000
00000FFC000000
00000FFC000000
00000FFC000000
00000FFC000000
00000FFC000000
00000FFC000000
00000FFC000000
00000FFC000000
00000FFC000000
003FF000000000
003FF000000000
003FF000000000
003FF000000000
003FF000000000
003FF000000000
003FF000000000
003FF000000000
003FF000000000
003FF000000000
FFC00000000000
FFC00000000000
FFC00000000000
FFC00000000000
FFC00000000000
FFC00000000000
FFC00000000000
FFC00000000000
FFC00000000000
FFC00000000000
FFC00000000000
FFC00000000000
FFC00000000000
FFC00000000000
FFC00000000000
FFC00000000000
FFC00000000000
FFC00000000000
FFC00000000000
FFC00000000000
FFC0000000FFC0
FFC0000000FFC0
FFC0000000FFC0
FFC0000000FFC0
FFC0000000FFC0
FFC0000000FFC0
FFC0000000FFC0
FFC0000000FFC0
FFC0000000FFC0
FFC0000000FFC0
003FFFFFFF0000
003FFFFFFF0000
003FFFFFFF0000
003FFFFFFF0000
003FFFFFFF0000
003FFFFFFF0000
003FFFFFFF0000
003FFFFFFF0000
003FFFFFFF0000
003FFFFFFF0000
ENDCHAR
STARTCHAR Agrave
ENCODING 192
SWIDTH 583 0
DWIDTH 70 0
BBX 70 120 0 0
BITMAP
00000003FF00000000
00000003FF00000000
00000003FF00000000
00000003FF00000000
00000003FF00000000
00000003FF00000000
00000003FF00000000
00000003FF00000000
00000003FF00000000
00000003FF00000000
0000000000FFC00000
0000000000FFC00000
0000000000FFC00000
0000000000FFC00000
0000000000FFC00000
0000000000FFC00000
0000000000FFC00000
0000000000FFC00000
0000000000FFC00000
0000000000FFC00000
000000000000000000
000000000000000000
000000000000000000
000000000000000000
000000000000000000
000000000000000000
000000000000000000
000000000000000000
000000000000000000
000000000000000000
00000003FF00000000
00000003FF00000000
00000003FF00000000
00000003FF00000000
00000003FF00000000
00000003FF00000000
00000003FF00000000
00000003FF00000000
00000003FF00000000
00000003FF00000000
00000FFC00FFC00000
00000FFC00FFC00000
00000FFC00FFC00000
00000FFC00FFC00000
00000FFC00FFC00000
00000FFC00FFC00000
00000FFC00FFC00000
00000FFC00FFC00000
00000FFC00FFC00000
00000FFC00FFC00000
00000FFC00FFC00000
00000FFC00FFC00000
00000FFC00FFC00000
00000FFC00FFC00000
00000FFC00FFC00000
00000FFC00FFC00000
00000FFC00FFC00000
00000FFC00FFC00000
00000FFC00FFC00000
00000FFC00FFC00000
00000FFC00FFC00000
00000FFC00FFC00000
00000FFC00FFC00000
00000FFC00FFC00000
00000FFC00FFC00000
00000FFC00FFC00000
00000FFC00FFC00000
00000FFC00FFC00000
00000FFC00FFC00000
00000FFC00FFC00000
003FF00000003FF000
003FF00000003FF000
003FF00000003FF000
003FF00000003FF000
003FF00000003FF000
003FF00000003FF000
003FF00000003FF000
003FF00000003FF000
003FF00000003FF000
003FF00000003FF000
003FFFFFFFFFFFF000
003FFFFFFFFFFFF000
003FFFFFFFFFFFF000
003FFFFFFFFFFFF000
003FFFFFFFFFFFF000
003FFFFFFFFFFFF000
003FFFFFFFFFFFF000
003FFFFFFFFFFFF000
003FFFFFFFFFFFF000
003FFFFFFFFFFFF000
003FF00000003FF000
003FF00000003FF000
003FF00000003FF000
003FF00000003FF000
003FF00000003FF000
003FF00000003FF000
003FF00000003FF000
003FF00000003FF000
003FF00000003FF000
003FF00000003FF000
FFC000000000000FFC
FFC000000000000FFC
FFC000000000000FFC
FFC000000000000FFC
FFC000000000000FFC
FFC000000000000FFC
FFC000000000000FFC
FFC000000000000FFC
FFC000000000000FFC
FFC000000000000FFC
FFC000000000000FFC
FFC000000000000FFC
FFC000000000000FFC
FFC000000000000FFC
FFC000000000000FFC
FFC000000000000FFC
FFC000000000000FFC
FFC000000000000FFC
FFC000000000000FFC
FFC000000000000FFC
ENDCHAR
STARTCHAR Aacute
ENCODING 193
SWIDTH 583 0
DWIDTH 70 0
BBX 70 120 0 0
BITMAP
0000000000FFC00000
0000000000FFC00000
0000000000FFC00000
0000000000FFC00000
0000000000FFC00000
0000000000FFC00000
0000000000FFC00000
0000000000FFC00000
0000000000FFC00000
0000000000FFC00000
00000003FF00000000
00000003FF00000000
00000003FF00000000
00000003FF00000000
00000003FF00000000
00000003FF00000000
00000003FF00000000
00000003FF00000000
00000003FF00000000
00000003FF00000000
000000000000000000
000000000000000000
000000000000000000
000000000000000000
000000000000000000
000000000000000000
000000000000000000
000000000000000000
000000000000000000
000000000000000000
00000003FF00000000
00000003FF00000000
00000003FF00000000
00000003FF00000000
00000003FF00000000
00000003FF00000000
00000003FF00000000
00000003FF00000000
00000003FF00000000
00000003FF00000000
00000FFC00FFC00000
00000FFC00FFC00000
00000FFC00FFC00000
00000FFC00FFC00000
00000FFC00FFC00000
00000FFC00FFC00000
00000FFC00FFC00000
00000FFC00FFC00000
00000FFC00FFC00000
00000FFC00FFC00000
00000FFC00FFC00000
00000FFC00FFC00000
00000FFC00FFC00000
00000FFC00FFC00000
00000FFC00FFC00000
00000FFC00FFC00000
00000FFC00FFC00000
00000FFC00FFC00000
00000FFC00FFC00000
00000FFC00FFC00000
00000FFC00FFC00000
00000FFC00FFC00000
00000FFC00FFC00000
00000FFC00FFC00000
00000FFC00FFC00000
00000FFC00FFC00000
00000FFC00FFC00000
00000FFC00FFC00000
00000FFC00FFC00000
00000FFC00FFC00000
003FF00000003FF000
003FF00000003FF000
003FF00000003FF000
003FF00000003FF000
003FF00000003FF000
003FF00000003FF000
003FF00000003FF000
003FF00000003FF000
003FF00000003FF000
003FF00000003FF000
003FFFFFFFFFFFF000
003FFFFFFFFFFFF000
003FFFFFFFFFFFF000
003FFFFFFFFFFFF000
003FFFFFFFFFFFF000
003FFFFFFFFFFFF000
003FFFFFFFFFFFF000
003FFFFFFFFFFFF000
003FFFFFFFFFFFF000
003FFFFFFFFFFFF000
003FF00000003FF000
003FF00000003FF000
003FF00000003FF000
003FF00000003FF000
003FF00000003FF000
003FF00000003FF000
003FF00000003FF000
003FF00000003FF000
003FF00000003FF000
003FF00000003FF000
FFC000000000000FFC
FFC000000000000FFC
FFC000000000000FFC
FFC000000000000FFC
FFC000000000000FFC
FFC000000000000FFC
FFC000000000000FFC
FFC000000000000FFC
FFC000000000000FFC
FFC000000000000FFC
FFC000000000000FFC
FFC000000000000FFC
FFC000000000000FFC
FFC000000000000FFC
FFC000000000000FFC
FFC000000000000FFC
FFC000000000000FFC
FFC000000000000FFC
FFC000000000000FFC
FFC000000000000FFC
ENDCHAR
STARTCHAR Acircumflex
ENCODING 194
SWIDTH 583 0
DWIDTH 70 0
BBX 70 120 0 0
BITMAP
00000003FF00000000
00000003FF00000000
00000003FF00000000
00000003FF00000000
00000003FF00000000
00000003FF00000000
00000003FF00000000
00000003FF00000000
00000003FF00000000
00000003FF00000000
00000FFC00FFC00000
00000FFC00FFC00000
00000FFC00FFC00000
00000FFC00FFC00000
00000FFC00FFC00000
00000FFC00FFC00000
00000FFC00FFC00000
00000FFC00FFC00000
00000FFC00FFC00000
00000FFC00FFC00000
000000000000000000
000000000000000000
000000000000000000
000000000000000000
000000000000000000
000000000000000000
000000000000000000
000000000000000000
000000000000000000
000000000000000000
00000003FF00000000
00000003FF00000000
00000003FF00000000
00000003FF00000000
00000003FF00000000
00000003FF00000000
00000003FF00000000
00000003FF00000000
00000003FF00000000
00000003FF00000000
00000FFC00FFC00000
00000FFC00FFC00000
00000FFC00FFC00000
00000FFC00FFC00000
00000FFC00FFC00000
00000FFC00FFC00000
00000FFC00FFC00000
00000FFC00FFC00000
00000FFC00FFC00000
00000FFC00FFC00000
00000FFC00FFC00000
00000FFC00FFC00000
00000FFC00FFC00000
00000FFC00FFC00000
00000FFC00FFC00000
00000FFC00FFC00000
00000FFC00FFC00000
00000FFC00FFC00000
00000FFC00FFC00000
00000FFC00FFC00000
00000FFC00FFC00000
00000FFC00FFC00000
00000FFC00FFC00000
00000FFC00FFC00000
00000FFC00FFC00000
00000FFC00FFC00000
00000FFC00FFC00000
00000FFC00FFC00000
00000FFC00FFC00000
00000FFC00FFC00000
003FF00000003FF000
003FF00000003FF000
003FF00000003FF000
003FF00000003FF000
003FF00000003FF000
003FF00000003FF000
003FF00000003FF000
003FF00000003FF000
003FF00000003FF000
003FF00000003FF000
003FFFFFFFFFFFF000
003FFFFFFFFFFFF000
003FFFFFFFFFFFF000
003FFFFFFFFFFFF000
003FFFFFFFFFFFF000
003FFFFFFFFFFFF000
003FFFFFFFFFFFF000
003FFFFFFFFFFFF000
003FFFFFFFFFFFF000
003FFFFFFFFFFFF000
003FF00000003FF000
003FF00000003FF000
003FF00000003FF000
003FF00000003FF000
003FF00000003FF000
003FF00000003FF000
003FF00000003FF000
003FF00000003FF000
003FF00000003FF000
003FF00000003FF000
FFC000000000000FFC
FFC000000000000FFC
FFC000000000000FFC
FFC000000000000FFC
FFC000000000000FFC
FFC000000000000FFC
FFC000000000000FFC
FFC000000000000FFC
FFC000000000000FFC
FFC000000000000FFC
FFC000000000000FFC
FFC000000000000FFC
FFC000000000000FFC
FFC000000000000FFC
FFC000000000000FFC
FFC000000000000FFC
FFC000000000000FFC
FFC000000000000FFC
FFC000000000000FFC
FFC000000000000FFC
ENDCHAR
STARTCHAR Atilde
ENCODING 195
SWIDTH 583 0
DWIDTH 70 0
BBX 70 120 0 0
BITMAP
00000003FF003FF000
00000003FF003FF000
00000003FF003FF000
00000003FF003FF000
00000003FF003FF000
00000003FF003FF000
00000003FF003FF000
00000003FF003FF000
00000003FF003FF000
00000003FF003FF000
00000FFC00FFC00000
00000FFC00FFC00000
00000FFC00FFC00000
00000FFC00FFC00000
00000FFC00FFC00000
00000FFC00FFC00000
00000FFC00FFC00000
00000FFC00FFC00000
00000FFC00FFC00000
00000FFC00FFC00000
000000000000000000
000000000000000000
000000000000000000
000000000000000000
000000000000000000
000000000000000000
000000000000000000
000000000000000000
000000000000000000
000000000000000000
00000003FF00000000
00000003FF00000000
00000003FF00000000
00000003FF00000000
00000003FF00000000
00000003FF00000000
00000003FF00000000
00000003FF00000000
00000003FF00000000
00000003FF00000000
00000FFC00FFC00000
00000FFC00FFC00000
00000FFC00FFC00000
00000FFC00FFC00000
00000FFC00FFC00000
00000FFC00FFC00000
00000FFC00FFC00000
00000FFC00FFC00000
00000FFC00FFC00000
00000FFC00FFC00000
00000FFC00FFC00000
00000FFC00FFC00000
00000FFC00FFC00000
00000FFC00FFC00000
00000FFC00FFC00000
00000FFC00FFC00000
00000FFC00FFC00000
00000FFC00FFC00000
00000FFC00FFC00000
00000FFC00FFC00000
00000FFC00FFC00000
00000FFC00FFC00000
00000FFC00FFC00000
00000FFC00FFC00000
00000FFC00FFC00000
00000FFC00FFC00000
00000FFC00FFC00000
00000FFC00FFC00000
00000FFC00FFC00000
00000FFC00FFC00000
003FF00000003FF000
003FF00000003FF000
003FF00000003FF000
003FF00000003FF000
003FF00000003FF000
003FF00000003FF000
003FF00000003FF000
003FF00000003FF000
003FF00000003FF000
003FF00000003FF000
003FFFFFFFFFFFF000
003FFFFFFFFFFFF000
003FFFFFFFFFFFF000
003FFFFFFFFFFFF000
003FFFFFFFFFFFF000
003FFFFFFFFFFFF000
003FFFFFFFFFFFF000
003FFFFFFFFFFFF000
003FFFFFFFFFFFF000
003FFFFFFFFFFFF000
003FF00000003FF000
003FF00000003FF000
003FF00000003FF000
003FF00000003FF000
003FF00000003FF000
003FF00000003FF000
003FF00000003FF000
003FF00000003FF000
003FF00000003FF000
003FF00000003FF000
FFC000000000000FFC
FFC000000000000FFC
FFC000000000000FFC
FFC000000000000FFC
FFC000000000000FFC
FFC000000000000FFC
FFC000000000000FFC
FFC000000000000FFC
FFC000000000000FFC
FFC000000000000FFC
FFC000000000000FFC
FFC000000000000FFC
FFC000000000000FFC
FFC000000000000FFC
FFC000000000000FFC
FFC000000000000FFC
FFC000000000000FFC
FFC000000000000FFC
FFC000000000000FFC
FFC000000000000FFC
ENDCHAR
STARTCHAR Adieresis
ENCODING 196
SWIDTH 583 0
DWIDTH 70 0
BBX 70 110 0 0
BITMAP
00000FFC00FFC00000
00000FFC00FFC00000
00000FFC00FFC00000
00000FFC00FFC00000
00000FFC00FFC00000
00000FFC00FFC00000
00000FFC00FFC00000
00000FFC00FFC00000
00000FFC00FFC00000
00000FFC00FFC00000
000000000000000000
000000000000000000
000000000000000000
000000000000000000
000000000000000000
000000000000000000
000000000000000000
000000000000000000
000000000000000000
000000000000000000
00000003FF00000000
00000003FF00000000
00000003FF00000000
00000003FF00000000
00000003FF00000000
00000003FF00000000
00000003FF00000000
00000003FF00000000
00000003FF00000000
00000003FF00000000
00000FFC00FFC00000
00000FFC00FFC00000
00000FFC00FFC00000
00000FFC00FFC00000
00000FFC00FFC00000
00000FFC00FFC00000
00000FFC00FFC00000
00000FFC00FFC00000
00000FFC00FFC00000
00000FFC00FFC00000
00000FFC00FFC00000
00000FFC00FFC00000
00000FFC00FFC00000
00000FFC00FFC00000
00000FFC00FFC00000
00000FFC00FFC00000
00000FFC00FFC00000
00000FFC00FFC00000
00000FFC00FFC00000
00000FFC00FFC00000
00000FFC00FFC00000
00000FFC00FFC00000
00000FFC00FFC00000
00000FFC00FFC00000
00000FFC00FFC00000
00000FFC00FFC00000
00000FFC00FFC00000
00000FFC00FFC00000
00000FFC00FFC00000
00000FFC00FFC00000
003FF00000003FF000
003FF00000003FF000
003FF00000003FF000
003FF00000003FF000
003FF00000003FF000
003FF00000003FF000
003FF00000003FF000
003FF00000003FF000
003FF00000003FF000
003FF00000003FF000
003FFFFFFFFFFFF000
003FFFFFFFFFFFF000
003FFFFFFFFFFFF000
003FFFFFFFFFFFF000
003FFFFFFFFFFFF000
003FFFFFFFFFFFF000
003FFFFFFFFFFFF000
003FFFFFFFFFFFF000
003FFFFFFFFFFFF000
003FFFFFFFFFFFF000
003FF00000003FF000
003FF00000003FF000
003FF00000003FF000
003FF00000003FF000
003FF00000003FF000
003FF00000003FF000
003FF00000003FF000
003FF00000003FF000
003FF00000003FF000
003FF00000003FF000
FFC000000000000FFC
FFC000000000000FFC
FFC000000000000FFC
FFC000000000000FFC
FFC000000000000FFC
FFC000000000000FFC
FFC000000000000FFC
FFC000000000000FFC
FFC000000000000FFC
FFC000000000000FFC
FFC000000000000FFC
FFC000000000000FFC
FFC000000000000FFC
FFC000000000000FFC
FFC000000000000FFC
FFC000000000000FFC
FFC000000000000FFC
FFC000000000000FFC
FFC000000000000FFC
FFC000000000000FFC
ENDCHAR
STARTCHAR Aring
ENCODING 197
SWIDTH 583 0
DWIDTH 70 0
BBX 70 110 0 0
BITMAP
00000003FF00000000
00000003FF00000000
00000003FF00000000
00000003FF00000000
00000003FF00000000
00000003FF00000000
00000003FF00000000
00000003FF00000000
00000003FF00000000
00000003FF00000000
00000FFC00FFC00000
00000FFC00FFC00000
00000FFC00FFC00000
00000FFC00FFC00000
00000FFC00FFC00000
00000FFC00FFC00000
00000FFC00FFC00000
00000FFC00FFC00000
00000FFC00FFC00000
00000FFC00FFC00000
00000003FF00000000
00000003FF00000000
00000003FF00000000
00000003FF00000000
00000003FF00000000
00000003FF00000000
00000003FF00000000
00000003FF00000000
00000003FF00000000
00000003FF00000000
00000FFC00FFC00000
00000FFC00FFC00000
00000FFC00FFC00000
00000FFC00FFC00000
00000FFC00FFC00000
00000FFC00FFC00000
00000FFC00FFC00000
00000FFC00FFC00000
00000FFC00FFC00000
00000FFC00FFC00000
00000FFC00FFC00000
00000FFC00FFC00000
00000FFC00FFC00000
00000FFC00FFC00000
00000FFC00FFC00000
00000FFC00FFC00000
00000FFC00FFC00000
00000FFC00FFC00000
00000FFC00FFC00000
00000FFC00FFC00000
00000FFC00FFC00000
00000FFC00FFC00000
00000FFC00FFC00000
00000FFC00FFC00000
00000FFC00FFC00000
00000FFC00FFC00000
00000FFC00FFC00000
00000FFC00FFC00000
00000FFC00FFC00000
00000FFC00FFC00000
003FF00000003FF000
003FF00000003FF000
003FF00000003FF000
003FF00000003FF000
003FF00000003FF000
003FF00000003FF000
003FF00000003FF000
003FF00000003FF000
003FF00000003FF000
003FF00000003FF000
003FFFFFFFFFFFF000
003FFFFFFFFFFFF000
003FFFFFFFFFFFF000
003FFFFFFFFFFFF000
003FFFFFFFFFFFF000
003FFFFFFFFFFFF000
003FFFFFFFFFFFF000
003FFFFFFFFFFFF000
003FFFFFFFFFFFF000
003FFFFFFFFFFFF000
003FF00000003FF000
003FF00000003FF000
003FF00000003FF000
003FF00000003FF000
003FF00000003FF000
003FF00000003FF000
003FF00000003FF000
003FF00000003FF000
003FF00000003FF000
003FF00000003FF000
FFC000000000000FFC
FFC000000000000FFC
FFC000000000000FFC
FFC000000000000FFC
FFC000000000000FFC
FFC000000000000FFC
FFC000000000000FFC
FFC000000000000FFC
FFC000000000000FFC
FFC000000000000FFC
FFC000000000000FFC
FFC000000000000FFC
FFC000000000000FFC
FFC000000000000FFC
FFC000000000000FFC
FFC000000000000FFC
FFC000000000000FFC
FFC000000000000FFC
FFC000000000000FFC
FFC000000000000FFC
ENDCHAR
STARTCHAR AE
ENCODING 198
SWIDTH 1000 0
DWIDTH 120 0
BBX 110 90 0 0
BITMAP
0000000000FFFFFFFFFFFFFFFFFC
0000000000FFFFFFFFFFFFFFFFFC
0000000000FFFFFFFFFFFFFFFFFC
0000000000FFFFFFFFFFFFFFFFFC
0000000000FFFFFFFFFFFFFFFFFC
0000000000FFFFFFFFFFFFFFFFFC
0000000000FFFFFFFFFFFFFFFFFC
0000000000FFFFFFFFFFFFFFFFFC
0000000000FFFFFFFFFFFFFFFFFC
0000000000FFFFFFFFFFFFFFFFFC
0000000000FFC00FFC0000000000
0000000000FFC00FFC0000000000
0000000000FFC00FFC0000000000
0000000000FFC00FFC0000000000
0000000000FFC00FFC0000000000
0000000000FFC00FFC0000000000
0000000000FFC00FFC0000000000
0000000000FFC00FFC0000000000
0000000000FFC00FFC0000000000
0000000000FFC00FFC0000000000
00000003FF00000FFC0000000000
00000003FF00000FFC0000000000
00000003FF00000FFC0000000000
00000003FF00000FFC0000000000
00000003FF00000FFC0000000000
00000003FF00000FFC0000000000
00000003FF00000FFC0000000000
00000003FF00000FFC0000000000
00000003FF00000FFC0000000000
00000003FF00000FFC0000000000
00000003FF00000FFC0000000000
00000003FF00000FFC0000000000
00000003FF00000FFC0000000000
00000003FF00000FFC0000000000
00000003FF00000FFC0000000000
00000003FF00000FFC0000000000
00000003FF00000FFC0000000000
00000003FF00000FFC0000000000
00000003FF00000FFC0000000000
00000003FF00000FFC0000000000
00000FFC0000000FFFFFFFFFF000
00000FFC0000000FFFFFFFFFF000
00000FFC0000000FFFFFFFFFF000
00000FFC0000000FFFFFFFFFF000
00000FFC0000000FFFFFFFFFF000
00000FFC0000000FFFFFFFFFF000
00000FFC0000000FFFFFFFFFF000
00000FFC0000000FFFFFFFFFF000
00000FFC0000000FFFFFFFFFF000
00000FFC0000000FFFFFFFFFF000
00000FFFFFFFFFFFFC0000000000
00000FFFFFFFFFFFFC0000000000
00000FFFFFFFFFFFFC0000000000
00000FFFFFFFFFFFFC0000000000
00000FFFFFFFFFFFFC0000000000
00000FFFFFFFFFFFFC0000000000
00000FFFFFFFFFFFFC0000000000
00000FFFFFFFFFFFFC0000000000
00000FFFFFFFFFFFFC0000000000
00000FFFFFFFFFFFFC0000000000
003FF0000000000FFC0000000000
003FF0000000000FFC0000000000
003FF0000000000FFC0000000000
003FF0000000000FFC0000000000
003FF0000000000FFC0000000000
003FF0000000000FFC0000000000
003FF0000000000FFC0000000000
003FF0000000000FFC0000000000
003FF0000000000FFC0000000000
003FF0000000000FFC0000000000
003FF0000000000FFC0000000000
003FF0000000000FFC0000000000
003FF0000000000FFC0000000000
003FF0000000000FFC0000000000
003FF0000000000FFC0000000000
003FF0000000000FFC0000000000
003FF0000000000FFC0000000000
003FF0000000000FFC0000000000
003FF0000000000FFC0000000000
003FF0000000000FFC0000000000
FFC000000000000FFFFFFFFFFFFC
FFC000000000000FFFFFFFFFFFFC
FFC000000000000FFFFFFFFFFFFC
FFC000000000000FFFFFFFFFFFFC
FFC000000000000FFFFFFFFFFFFC
FFC000000000000FFFFFFFFFFFFC
FFC000000000000FFFFFFFFFFFFC
FFC000000000000FFFFFFFFFFFFC
FFC000000000000FFFFFFFFFFFFC
FFC000000000000FFFFFFFFFFFFC
ENDCHAR
STARTCHAR Ccedilla
ENCODING 199
SWIDTH 666 0
DWIDTH 80 0
BBX 70 120 10 -30
BITMAP
00000FFFFFFFFFF000
00000FFFFFFFFFF000
00000FFFFFFFFFF000
00000FFFFFFFFFF000
00000FFFFFFFFFF000
00000FFFFFFFFFF000
00000FFFFFFFFFF000
00000FFFFFFFFFF000
00000FFFFFFFFFF000
00000FFFFFFFFFF000
003FF0000000000FFC
003FF0000000000FFC
003FF0000000000FFC
003FF0000000000FFC
003FF0000000000FFC
003FF0000000000FFC
003FF0000000000FFC
003FF0000000000FFC
003FF0000000000FFC
003FF0000000000FFC
FFC000000000000000
FFC000000000000000
FFC000000000000000
FFC000000000000000
FFC000000000000000
FFC000000000000000
FFC000000000000000
FFC000000000000000
FFC000000000000000
FFC000000000000000
FFC000000000000000
FFC000000000000000
FFC000000000000000
FFC000000000000000
FFC000000000000000
FFC000000000000000
FFC000000000000000
FFC000000000000000
FFC000000000000000
FFC000000000000000
FFC000000000000000
FFC000000000000000
FFC000000000000000
FFC000000000000000
FFC000000000000000
FFC000000000000000
FFC000000000000000
FFC000000000000000
FFC000000000000000
FFC000000000000000
FFC000000000000000
FFC000000000000000
FFC000000000000000
FFC000000000000000
FFC000000000000000
FFC000000000000000
FFC000000000000000
FFC000000000000000
FFC000000000000000
FFC000000000000000
FFC000000000000000
FFC000000000000000
FFC000000000000000
FFC000000000000000
FFC000000000000000
FFC000000000000000
FFC000000000000000
FFC000000000000000
FFC000000000000000
FFC000000000000000
003FF0000000000FFC
003FF0000000000FFC
003FF0000000000FFC
003FF0000000000FFC
003FF0000000000FFC
003FF0000000000FFC
003FF0000000000FFC
003FF0000000000FFC
003FF0000000000FFC
003FF0000000000FFC
00000FFFFFFFFFF000
00000FFFFFFFFFF000
00000FFFFFFFFFF000
00000FFFFFFFFFF000
00000FFFFFFFFFF000
00000FFFFFFFFFF000
00000FFFFFFFFFF000
00000FFFFFFFFFF000
00000FFFFFFFFFF000
00000FFFFFFFFFF000
00000003FF00000000
00000003FF00000000
00000003FF00000000
00000003FF00000000
00000003FF00000000
00000003FF00000000
00000003FF00000000
00000003FF00000000
00000003FF00000000
00000003FF00000000
0000000000FFC00000
0000000000FFC00000
0000000000FFC00000
0000000000FFC00000
0000000000FFC00000
0000000000FFC00000
0000000000FFC00000
0000000000FFC00000
0000000000FFC00000
0000000000FFC00000
00000003FF00000000
00000003FF00000000
00000003FF00000000
00000003FF00000000
00000003FF00000000
00000003FF00000000
00000003FF00000000
00000003FF00000000
00000003FF00000000
00000003FF00000000
ENDCHAR
STARTCHAR Egrave
ENCODING 200
SWIDTH 583 0
DWIDTH 70 0
BBX 60 120 10 0
BITMAP
00000FFC00000000
00000FFC00000000
00000FFC00000000
00000FFC00000000
00000FFC00000000
00000FFC00000000
00000FFC00000000
00000FFC00000000
00000FFC00000000
00000FFC00000000
00000003FF000000
00000003FF000000
00000003FF000000
00000003FF000000
00000003FF000000
00000003FF000000
00000003FF000000
00000003FF000000
00000003FF000000
00000003FF000000
0000000000000000
0000000000000000
0000000000000000
0000000000000000
0000000000000000
0000000000000000
0000000000000000
0000000000000000
0000000000000000
0000000000000000
FFFFFFFFFFFFFFF0
FFFFFFFFFFFFFFF0
FFFFFFFFFFFFFFF0
FFFFFFFFFFFFFFF0
FFFFFFFFFFFFFFF0
FFFFFFFFFFFFFFF0
FFFFFFFFFFFFFFF0
FFFFFFFFFFFFFFF0
FFFFFFFFFFFFFFF0
FFFFFFFFFFFFFFF0
FFC0000000000000
FFC0000000000000
FFC0000000000000
FFC0000000000000
FFC0000000000000
FFC0000000000000
FFC0000000000000
FFC0000000000000
FFC0000000000000
FFC0000000000000
FFC0000000000000
FFC0000000000000
FFC0000000000000
FFC0000000000000
FFC0000000000000
FFC0000000000000
FFC0000000000000
FFC0000000000000
FFC0000000000000
FFC0000000000000
FFC0000000000000
FFC0000000000000
FFC0000000000000
FFC0000000000000
FFC0000000000000
FFC0000000000000
FFC0000000000000
FFC0000000000000
FFC0000000000000
FFC0000000000000
FFFFFFFFFFFFC000
FFFFFFFFFFFFC000
FFFFFFFFFFFFC000
FFFFFFFFFFFFC000
FFFFFFFFFFFFC000
FFFFFFFFFFFFC000
FFFFFFFFFFFFC000
FFFFFFFFFFFFC000
FFFFFFFFFFFFC000
FFFFFFFFFFFFC000
FFC0000000000000
FFC0000000000000
FFC0000000000000
FFC0000000000000
FFC0000000000000
FFC0000000000000
FFC0000000000000
FFC0000000000000
FFC0000000000000
FFC0000000000000
FFC0000000000000
FFC0000000000000
FFC0000000000000
FFC0000000000000
FFC0000000000000
FFC0000000000000
FFC0000000000000
FFC0000000000000
FFC0000000000000
FFC0000000000000
FFC0000000000000
FFC0000000000000
FFC0000000000000
FFC0000000000000
FFC0000000000000
FFC0000000000000
FFC0000000000000
FFC0000000000000
FFC0000000000000
FFC0000000000000
FFFFFFFFFFFFFFF0
FFFFFFFFFFFFFFF0
FFFFFFFFFFFFFFF0
FFFFFFFFFFFFFFF0
FFFFFFFFFFFFFFF0
FFFFFFFFFFFFFFF0
FFFFFFFFFFFFFFF0
FFFFFFFFFFFFFFF0
FFFFFFFFFFFFFFF0
FFFFFFFFFFFFFFF0
ENDCHAR
STARTCHAR Eacute
ENCODING 201
SWIDTH 583 0
DWIDTH 70 0
BBX 60 120 10 0
BITMAP
00000003FF000000
00000003FF000000
00000003FF000000
00000003FF000000
00000003FF000000
00000003FF000000
00000003FF000000
00000003FF000000
00000003FF000000
00000003FF000000
00000FFC00000000
00000FFC00000000
00000FFC00000000
00000FFC00000000
00000FFC00000000
00000FFC00000000
00000FFC00000000
00000FFC00000000
00000FFC00000000
00000FFC00000000
0000000000000000
0000000000000000
0000000000000000
0000000000000000
0000000000000000
0000000000000000
0000000000000000
0000000000000000
0000000000000000
0000000000000000
FFFFFFFFFFFFFFF0
FFFFFFFFFFFFFFF0
FFFFFFFFFFFFFFF0
FFFFFFFFFFFFFFF0
FFFFFFFFFFFFFFF0
FFFFFFFFFFFFFFF0
FFFFFFFFFFFFFFF0
FFFFFFFFFFFFFFF0
FFFFFFFFFFFFFFF0
FFFFFFFFFFFFFFF0
FFC0000000000000
FFC0000000000000
FFC0000000000000
FFC0000000000000
FFC0000000000000
FFC0000000000000
FFC0000000000000
FFC0000000000000
FFC0000000000000
FFC0000000000000
FFC0000000000000
FFC0000000000000
FFC0000000000000
FFC0000000000000
FFC0000000000000
FFC0000000000000
FFC0000000000000
FFC0000000000000
FFC0000000000000
FFC0000000000000
FFC0000000000000
FFC0000000000000
FFC0000000000000
FFC0000000000000
FFC0000000000000
FFC0000000000000
FFC0000000000000
FFC0000000000000
FFC0000000000000
FFC0000000000000
FFFFFFFFFFFFC000
FFFFFFFFFFFFC000
FFFFFFFFFFFFC000
FFFFFFFFFFFFC000
FFFFFFFFFFFFC000
FFFFFFFFFFFFC000
FFFFFFFFFFFFC000
FFFFFFFFFFFFC000
FFFFFFFFFFFFC000
FFFFFFFFFFFFC000
FFC0000000000000
FFC0000000000000
FFC0000000000000
FFC0000000000000
FFC0000000000000
FFC0000000000000
FFC0000000000000
FFC0000000000000
FFC0000000000000
FFC0000000000000
FFC0000000000000
FFC0000000000000
FFC0000000000000
FFC0000000000000
FFC0000000000000
FFC0000000000000
FFC0000000000000
FFC0000000000000
FFC0000000000000
FFC0000000000000
FFC0000000000000
FFC0000000000000
FFC0000000000000
FFC0000000000000
FFC0000000000000
FFC0000000000000
FFC0000000000000
FFC0000000000000
FFC0000000000000
FFC0000000000000
FFFFFFFFFFFFFFF0
FFFFFFFFFFFFFFF0
FFFFFFFFFFFFFFF0
FFFFFFFFFFFFFFF0
FFFFFFFFFFFFFFF0
FFFFFFFFFFFFFFF0
FFFFFFFFFFFFFFF0
FFFFFFFFFFFFFFF0
FFFFFFFFFFFFFFF0
FFFFFFFFFFFFFFF0
ENDCHAR
STARTCHAR Ecircumflex
ENCODING 202
SWIDTH 583 0
DWIDTH 70 0
BBX 60 120 10 0
BITMAP
00000003FF000000
00000003FF000000
00000003FF000000
00000003FF000000
00000003FF000000
00000003FF000000
00000003FF000000
00000003FF000000
00000003FF000000
00000003FF000000
00000FFC00FFC000
00000FFC00FFC000
00000FFC00FFC000
00000FFC00FFC000
00000FFC00FFC000
00000FFC00FFC000
00000FFC00FFC000
00000FFC00FFC000
00000FFC00FFC000
00000FFC00FFC000
0000000000000000
0000000000000000
0000000000000000
0000000000000000
0000000000000000
0000000000000000
0000000000000000
0000000000000000
0000000000000000
0000000000000000
FFFFFFFFFFFFFFF0
FFFFFFFFFFFFFFF0
FFFFFFFFFFFFFFF0
FFFFFFFFFFFFFFF0
FFFFFFFFFFFFFFF0
FFFFFFFFFFFFFFF0
FFFFFFFFFFFFFFF0
FFFFFFFFFFFFFFF0
FFFFFFFFFFFFFFF0
FFFFFFFFFFFFFFF0
FFC0000000000000
FFC0000000000000
FFC0000000000000
FFC0000000000000
FFC0000000000000
FFC0000000000000
FFC0000000000000
FFC0000000000000
FFC0000000000000
FFC0000000000000
FFC0000000000000
FFC0000000000000
FFC0000000000000
FFC0000000000000
FFC0000000000000
FFC0000000000000
FFC0000000000000
FFC0000000000000
FFC0000000000000
FFC0000000000000
FFC0000000000000
FFC0000000000000
FFC0000000000000
FFC0000000000000
FFC0000000000000
FFC0000000000000
FFC0000000000000
FFC0000000000000
FFC0000000000000
FFC0000000000000
FFFFFFFFFFFFC000
FFFFFFFFFFFFC000
FFFFFFFFFFFFC000
FFFFFFFFFFFFC000
FFFFFFFFFFFFC000
FFFFFFFFFFFFC000
FFFFFFFFFFFFC000
FFFFFFFFFFFFC000
FFFFFFFFFFFFC000
FFFFFFFFFFFFC000
FFC0000000000000
FFC0000000000000
FFC0000000000000
FFC0000000000000
FFC0000000000000
FFC0000000000000
FFC0000000000000
FFC0000000000000
FFC0000000000000
FFC0000000000000
FFC0000000000000
FFC0000000000000
FFC0000000000000
FFC0000000000000
FFC0000000000000
FFC0000000000000
FFC0000000000000
FFC0000000000000
FFC0000000000000
FFC0000000000000
FFC0000000000000
FFC0000000000000
FFC0000000000000
FFC0000000000000
FFC0000000000000
FFC0000000000000
FFC0000000000000
FFC0000000000000
FFC0000000000000
FFC0000000000000
FFFFFFFFFFFFFFF0
FFFFFFFFFFFFFFF0
FFFFFFFFFFFFFFF0
FFFFFFFFFFFFFFF0
FFFFFFFFFFFFFFF0
FFFFFFFFFFFFFFF0
FFFFFFFFFFFFFFF0
FFFFFFFFFFFFFFF0
FFFFFFFFFFFFFFF0
FFFFFFFFFFFFFFF0
ENDCHAR
STARTCHAR Edieresis
ENCODING 203
SWIDTH 583 0
DWIDTH 70 0
BBX 60 110 10 0
BITMAP
00000FFC00FFC000
00000FFC00FFC000
00000FFC00FFC000
00000FFC00FFC000
00000FFC00FFC000
00000FFC00FFC000
00000FFC00FFC000
00000FFC00FFC000
00000FFC00FFC000
00000FFC00FFC000
0000000000000000
0000000000000000
0000000000000000
0000000000000000
0000000000000000
0000000000000000
0000000000000000
0000000000000000
0000000000000000
0000000000000000
FFFFFFFFFFFFFFF0
FFFFFFFFFFFFFFF0
FFFFFFFFFFFFFFF0
FFFFFFFFFFFFFFF0
FFFFFFFFFFFFFFF0
FFFFFFFFFFFFFFF0
FFFFFFFFFFFFFFF0
FFFFFFFFFFFFFFF0
FFFFFFFFFFFFFFF0
FFFFFFFFFFFFFFF0
FFC0000000000000
FFC0000000000000
FFC0000000000000
FFC0000000000000
FFC0000000000000
FFC0000000000000
FFC0000000000000
FFC0000000000000
FFC0000000000000
FFC0000000000000
FFC0000000000000
FFC0000000000000
FFC0000000000000
FFC0000000000000
FFC0000000000000
FFC0000000000000
FFC0000000000000
FFC0000000000000
FFC0000000000000
FFC0000000000000
FFC0000000000000
FFC0000000000000
FFC0000000000000
FFC0000000000000
FFC0000000000000
FFC0000000000000
FFC0000000000000
FFC0000000000000
FFC0000000000000
FFC0000000000000
FFFFFFFFFFFFC000
FFFFFFFFFFFFC000
FFFFFFFFFFFFC000
FFFFFFFFFFFFC000
FFFFFFFFFFFFC000
FFFFFFFFFFFFC000
FFFFFFFFFFFFC000
FFFFFFFFFFFFC000
FFFFFFFFFFFFC000
FFFFFFFFFFFFC000
FFC0000000000000
FFC0000000000000
FFC0000000000000
FFC0000000000000
FFC0000000000000
FFC0000000000000
FFC0000000000000
FFC0000000000000
FFC0000000000000
FFC0000000000000
FFC0000000000000
FFC0000000000000
FFC0000000000000
FFC0000000000000
FFC0000000000000
FFC0000000000000
FFC0000000000000
FFC0000000000000
FFC0000000000000
FFC0000000000000
FFC0000000000000
FFC0000000000000
FFC0000000000000
FFC0000000000000
FFC0000000000000
FFC0000000000000
FFC0000000000000
FFC0000000000000
FFC0000000000000
FFC0000000000000
FFFFFFFFFFFFFFF0
FFFFFFFFFFFFFFF0
FFFFFFFFFFFFFFF0
FFFFFFFFFFFFFFF0
FFFFFFFFFFFFFFF0
FFFFFFFFFFFFFFF0
FFFFFFFFFFFFFFF0
FFFFFFFFFFFFFFF0
FFFFFFFFFFFFFFF0
FFFFFFFFFFFFFFF0
ENDCHAR
STARTCHAR Igrave
ENCODING 204
SWIDTH 250 0
DWIDTH 30 0
BBX 20 120 0 0
BITMAP
FFC000
FFC000
FFC000
FFC000
FFC000
FFC000
FFC000
FFC000
FFC000
FFC000
003FF0
003FF0
003FF0
003FF0
003FF0
003FF0
003FF0
003FF0
003FF0
003FF0
000000
000000
000000
000000
000000
000000
000000
000000
000000
000000
003FF0
003FF0
003FF0
003FF0
003FF0
003FF0
003FF0
003FF0
003FF0
003FF0
003FF0
003FF0
003FF0
003FF0
003FF0
003FF0
003FF0
003FF0
003FF0
003FF0
003FF0
003FF0
003FF0
003FF0
003FF0
003FF0
003FF0
003FF0
003FF0
003FF0
003FF0
003FF0
003FF0
003FF0
003FF0
003FF0
003FF0
003FF0
003FF0
003FF0
003FF0
003FF0
003FF0
003FF0
003FF0
003FF0
003FF0
003FF0
003FF0
003FF0
003FF0
003FF0
003FF0
003FF0
003FF0
003FF0
003FF0
003FF0
003FF0
003FF0
003FF0
003FF0
003FF0
003FF0
003FF0
003FF0
003FF0
003FF0
003FF0
003FF0
003FF0
003FF0
003FF0
003FF0
003FF0
003FF0
003FF0
003FF0
003FF0
003FF0
003FF0
003FF0
003FF0
003FF0
003FF0
003FF0
003FF0
003FF0
003FF0
003FF0
ENDCHAR
STARTCHAR Iacute
ENCODING 205
SWIDTH 250 0
DWIDTH 30 0
BBX 20 120 10 0
BITMAP
003FF0
003FF0
003FF0
003FF0
003FF0
003FF0
003FF0
003FF0
003FF0
003FF0
FFC000
FFC000
FFC000
FFC000
FFC000
FFC000
FFC000
FFC000
FFC000
FFC000
000000
000000
000000
000000
000000
000000
000000
000000
000000
000000
FFC000
FFC000
FFC000
FFC000
FFC000
FFC000
FFC000
FFC000
FFC000
FFC000
FFC000
FFC000
FFC000
FFC000
FFC000
FFC000
FFC000
FFC000
FFC000
FFC000
FFC000
FFC000
FFC000
FFC000
FFC000
FFC000
FFC000
FFC000
FFC000
FFC000
FFC000
FFC000
FFC000
FFC000
FFC000
FFC000
FFC000
FFC000
FFC000
FFC000
FFC000
FFC000
FFC000
FFC000
FFC000
FFC000
FFC000
FFC000
FFC000
FFC000
FFC000
FFC000
FFC000
FFC000
FFC000
FFC000
FFC000
FFC000
FFC000
FFC000
FFC000
FFC000
FFC000
FFC000
FFC000
FFC000
FFC000
FFC000
FFC000
FFC000
FFC000
FFC000
FFC000
FFC000
FFC000
FFC000
FFC000
FFC000
FFC000
FFC000
FFC000
FFC000
FFC000
FFC000
FFC000
FFC000
FFC000
FFC000
FFC000
FFC000
ENDCHAR
STARTCHAR Icircumflex
ENCODING 206
SWIDTH 250 0
DWIDTH 30 0
BBX 30 120 0 0
BITMAP
003FF000
003FF000
003FF000
003FF000
003FF000
003FF000
003FF000
003FF000
003FF000
003FF000
FFC00FFC
FFC00FFC
FFC00FFC
FFC00FFC
FFC00FFC
FFC00FFC
FFC00FFC
FFC00FFC
FFC00FFC
FFC00FFC
00000000
00000000
00000000
00000000
00000000
00000000
00000000
00000000
00000000
00000000
003FF000
003FF000
003FF000
003FF000
003FF000
003FF000
003FF000
003FF000
003FF000
003FF000
003FF000
003FF000
003FF000
003FF000
003FF000
003FF000
003FF000
003FF000
003FF000
003FF000
003FF000
003FF000
003FF000
003FF000
003FF000
003FF000
003FF000
003FF000
003FF000
003FF000
003FF000
003FF000
003FF000
003FF000
003FF000
003FF000
003FF000
003FF000
003FF000
003FF000
003FF000
003FF000
003FF000
003FF000
003FF000
003FF000
003FF000
003FF000
003FF000
003FF000
003FF000
003FF000
003FF000
003FF000
003FF000
003FF000
003FF000
003FF000
003FF000
003FF000
003FF000
003FF000
003FF000
003FF000
003FF000
003FF000
003FF000
003FF000
003FF000
003FF000
003FF000
003FF000
003FF000
003FF000
003FF000
003FF000
003FF000
003FF000
003FF000
003FF000
003FF000
003FF000
003FF000
003FF000
003FF000
003FF000
003FF000
003FF000
003FF000
003FF000
ENDCHAR
STARTCHAR Idieresis
ENCODING 207
SWIDTH 250 0
DWIDTH 30 0
BBX 30 110 0 0
BITMAP
FFC00FFC
FFC00FFC
FFC00FFC
FFC00FFC
FFC00FFC
FFC00FFC
FFC00FFC
FFC00FFC
FFC00FFC
FFC00FFC
00000000
00000000
00000000
00000000
00000000
00000000
00000000
00000000
00000000
00000000
003FF000
003FF000
003FF000
003FF000
003FF000
003FF000
003FF000
003FF000
003FF000
003FF000
003FF000
003FF000
003FF000
003FF000
003FF000
003FF000
003FF000
003FF000
003FF000
003FF000
003FF000
003FF000
003FF000
003FF000
003FF000
003FF000
003FF000
003FF000
003FF000
003FF000
003FF000
003FF000
003FF000
003FF000
003FF000
003FF000
003FF000
003FF000
003FF000
003FF000
003FF000
003FF000
003FF000
003FF000
003FF000
003FF000
003FF000
003FF000
003FF000
003FF000
003FF000
003FF000
003FF000
003FF000
003FF000
003FF000
003FF000
003FF000
003FF000
003FF000
003FF000
003FF000
003FF000
003FF000
003FF000
003FF000
003FF000
003FF000
003FF000
003FF000
003FF000
003FF000
003FF000
003FF000
003FF000
003FF000
003FF000
003FF000
003FF000
003FF000
003FF000
003FF000
003FF000
003FF000
003FF000
003FF000
003FF000
003FF000
003FF000
003FF000
ENDCHAR
STARTCHAR Eth
ENCODING 208
SWIDTH 666 0
DWIDTH 80 0
BBX 80 90 0 0
BITMAP
003FFFFFFFFFFFF00000
003FFFFFFFFFFFF00000
003FFFFFFFFFFFF00000
003FFFFFFFFFFFF00000
003FFFFFFFFFFFF00000
003FFFFFFFFFFFF00000
003FFFFFFFFFFFF00000
003FFFFFFFFFFFF00000
003FFFFFFFFFFFF00000
003FFFFFFFFFFFF00000
003FF0000000000FFC00
003FF0000000000FFC00
003FF0000000000FFC00
003FF0000000000FFC00
003FF0000000000FFC00
003FF0000000000FFC00
003FF0000000000FFC00
003FF0000000000FFC00
003FF0000000000FFC00
003FF0000000000FFC00
003FF0000000000003FF
003FF0000000000003FF
003FF0000000000003FF
003FF0000000000003FF
003FF0000000000003FF
003FF0000000000003FF
003FF0000000000003FF
003FF0000000000003FF
003FF0000000000003FF
003FF0000000000003FF
003FF0000000000003FF
003FF0000000000003FF
003FF0000000000003FF
003FF0000000000003FF
003FF0000000000003FF
003FF0000000000003FF
003FF0000000000003FF
003FF0000000000003FF
003FF0000000000003FF
003FF0000000000003FF
FFFFFFFFFF00000003FF
FFFFFFFFFF00000003FF
FFFFFFFFFF00000003FF
FFFFFFFFFF00000003FF
FFFFFFFFFF00000003FF
FFFFFFFFFF00000003FF
FFFFFFFFFF00000003FF
FFFFFFFFFF00000003FF
FFFFFFFFFF00000003FF
FFFFFFFFFF00000003FF
003FF0000000000003FF
003FF0000000000003FF
003FF0000000000003FF
003FF0000000000003FF
003FF0000000000003FF
003FF0000000000003FF
003FF0000000000003FF
003FF0000000000003FF
003FF0000000000003FF
003FF0000000000003FF
003FF0000000000003FF
003FF0000000000003FF
003FF0000000000003FF
003FF0000000000003FF
003FF0000000000003FF
003FF0000000000003FF
003FF0000000000003FF
003FF0000000000003FF
003FF0000000000003FF
003FF0000000000003FF
003FF0000000000FFC00
003FF0000000000FFC00
003FF0000000000FFC00
003FF0000000000FFC00
003FF0000000000FFC00
003FF0000000000FFC00
003FF0000000000FFC00
003FF0000000000FFC00
003FF0000000000FFC00
003FF0000000000FFC00
003FFFFFFFFFFFF00000
003FFFFFFFFFFFF00000
003FFFFFFFFFFFF00000
003FFFFFFFFFFFF00000
003FFFFFFFFFFFF00000
003FFFFFFFFFFFF00000
003FFFFFFFFFFFF00000
003FFFFFFFFFFFF00000
003FFFFFFFFFFFF00000
003FFFFFFFFFFFF00000
ENDCHAR
STARTCHAR Ntilde
ENCODING 209
SWIDTH 666 0
DWIDTH 80 0
BBX 70 120 10 0
BITMAP
00000003FF003FF000
00000003FF003FF000
00000003FF003FF000
00000003FF003FF000
00000003FF003FF000
00000003FF003FF000
00000003FF003FF000
00000003FF003FF000
00000003FF003FF000
00000003FF003FF000
00000FFC00FFC00000
00000FFC00FFC00000
00000FFC00FFC00000
00000FFC00FFC00000
00000FFC00FFC00000
00000FFC00FFC00000
00000FFC00FFC00000
00000FFC00FFC00000
00000FFC00FFC00000
00000FFC00FFC00000
000000000000000000
000000000000000000
000000000000000000
000000000000000000
000000000000000000
000000000000000000
000000000000000000
000000000000000000
000000000000000000
000000000000000000
FFC000000000000FFC
FFC000000000000FFC
FFC000000000000FFC
FFC000000000000FFC
FFC000000000000FFC
FFC000000000000FFC
FFC000000000000FFC
FFC000000000000FFC
FFC000000000000FFC
FFC000000000000FFC
FFFFF0000000000FFC
FFFFF0000000000FFC
FFFFF0000000000FFC
FFFFF0000000000FFC
FFFFF0000000000FFC
FFFFF0000000000FFC
FFFFF0000000000FFC
FFFFF0000000000FFC
FFFFF0000000000FFC
FFFFF0000000000FFC
FFC00FFC0000000FFC
FFC00FFC0000000FFC
FFC00FFC0000000FFC
FFC00FFC0000000FFC
FFC00FFC0000000FFC
FFC00FFC0000000FFC
FFC00FFC0000000FFC
FFC00FFC0000000FFC
FFC00FFC0000000FFC
FFC00FFC0000000FFC
FFC00FFC0000000FFC
FFC00FFC0000000FFC
FFC00FFC0000000FFC
FFC00FFC0000000FFC
FFC00FFC0000000FFC
FFC00FFC0000000FFC
FFC00FFC0000000FFC
FFC00FFC0000000FFC
FFC00FFC0000000FFC
FFC00FFC0000000FFC
FFC00003FF00000FFC
FFC00003FF00000FFC
FFC00003FF00000FFC
FFC00003FF00000FFC
FFC00003FF00000FFC
FFC00003FF00000FFC
FFC00003FF00000FFC
FFC00003FF00000FFC
FFC00003FF00000FFC
FFC00003FF00000FFC
FFC0000000FFC00FFC
FFC0000000FFC00FFC
FFC0000000FFC00FFC
FFC0000000FFC00FFC
FFC0000000FFC00FFC
FFC0000000FFC00FFC
FFC0000000FFC00FFC
FFC0000000FFC00FFC
FFC0000000FFC00FFC
FFC0000000FFC00FFC
FFC0000000FFC00FFC
FFC0000000FFC00FFC
FFC0000000FFC00FFC
FFC0000000FFC00FFC
FFC0000000FFC00FFC
FFC0000000FFC00FFC
FFC0000000FFC00FFC
FFC0000000FFC00FFC
FFC0000000FFC00FFC
FFC0000000FFC00FFC
FFC0000000003FFFFC
FFC0000000003FFFFC
FFC0000000003FFFFC
FFC0000000003FFFFC
FFC0000000003FFFFC
FFC0000000003FFFFC
FFC0000000003FFFFC
FFC0000000003FFFFC
FFC0000000003FFFFC
FFC0000000003FFFFC
FFC000000000000FFC
FFC000000000000FFC
FFC000000000000FFC
FFC000000000000FFC
FFC000000000000FFC
FFC000000000000FFC
FFC000000000000FFC
FFC000000000000FFC
FFC000000000000FFC
FFC000000000000FFC
ENDCHAR
STARTCHAR Ograve
ENCODING 210
SWIDTH 750 0
DWIDTH 90 0
BBX 70 120 10 0
BITMAP
00000FFC0000000000
00000FFC0000000000
00000FFC0000000000
00000FFC0000000000
00000FFC0000000000
00000FFC0000000000
00000FFC0000000000
00000FFC0000000000
00000FFC0000000000
00000FFC0000000000
00000003FF00000000
00000003FF00000000
00000003FF00000000
00000003FF00000000
00000003FF00000000
00000003FF00000000
00000003FF00000000
00000003FF00000000
00000003FF00000000
00000003FF00000000
000000000000000000
000000000000000000
000000000000000000
000000000000000000
000000000000000000
000000000000000000
000000000000000000
000000000000000000
000000000000000000
000000000000000000
00000FFFFFFFC00000
00000FFFFFFFC00000
00000FFFFFFFC00000
00000FFFFFFFC00000
00000FFFFFFFC00000
00000FFFFFFFC00000
00000FFFFFFFC00000
00000FFFFFFFC00000
00000FFFFFFFC00000
00000FFFFFFFC00000
003FF00000003FF000
003FF00000003FF000
003FF00000003FF000
003FF00000003FF000
003FF00000003FF000
003FF00000003FF000
003FF00000003FF000
003FF00000003FF000
003FF00000003FF000
003FF00000003FF000
FFC000000000000FFC
FFC000000000000FFC
FFC000000000000FFC
FFC000000000000FFC
FFC000000000000FFC
FFC000000000000FFC
FFC000000000000FFC
FFC000000000000FFC
FFC000000000000FFC
FFC000000000000FFC
FFC000000000000FFC
FFC000000000000FFC
FFC000000000000FFC
FFC000000000000FFC
FFC000000000000FFC
FFC000000000000FFC
FFC000000000000FFC
FFC000000000000FFC
FFC000000000000FFC
FFC000000000000FFC
FFC000000000000FFC
FFC000000000000FFC
FFC000000000000FFC
FFC000000000000FFC
FFC000000000000FFC
FFC000000000000FFC
FFC000000000000FFC
FFC000000000000FFC
FFC000000000000FFC
FFC000000000000FFC
FFC000000000000FFC
FFC000000000000FFC
FFC000000000000FFC
FFC000000000000FFC
FFC000000000000FFC
FFC000000000000FFC
FFC000000000000FFC
FFC000000000000FFC
FFC000000000000FFC
FFC000000000000FFC
FFC000000000000FFC
FFC000000000000FFC
FFC000000000000FFC
FFC000000000000FFC
FFC000000000000FFC
FFC000000000000FFC
FFC000000000000FFC
FFC000000000000FFC
FFC000000000000FFC
FFC000000000000FFC
003FF00000003FF000
003FF00000003FF000
003FF00000003FF000
003FF00000003FF000
003FF00000003FF000
003FF00000003FF000
003FF00000003FF000
003FF00000003FF000
003FF00000003FF000
003FF00000003FF000
00000FFFFFFFC00000
00000FFFFFFFC00000
00000FFFFFFFC00000
00000FFFFFFFC00000
00000FFFFFFFC00000
00000FFFFFFFC00000
00000FFFFFFFC00000
00000FFFFFFFC00000
00000FFFFFFFC00000
00000FFFFFFFC00000
ENDCHAR
STARTCHAR Oacute
ENCODING 211
SWIDTH 750 0
DWIDTH 90 0
BBX 70 120 10 0
BITMAP
0000000000FFC00000
0000000000FFC00000
0000000000FFC00000
0000000000FFC00000
0000000000FFC00000
0000000000FFC00000
0000000000FFC00000
0000000000FFC00000
0000000000FFC00000
0000000000FFC00000
00000003FF00000000
00000003FF00000000
00000003FF00000000
00000003FF00000000
00000003FF00000000
00000003FF00000000
00000003FF00000000
00000003FF00000000
00000003FF00000000
00000003FF00000000
000000000000000000
000000000000000000
000000000000000000
000000000000000000
000000000000000000
000000000000000000
000000000000000000
000000000000000000
000000000000000000
000000000000000000
00000FFFFFFFC00000
00000FFFFFFFC00000
00000FFFFFFFC00000
00000FFFFFFFC00000
00000FFFFFFFC00000
00000FFFFFFFC00000
00000FFFFFFFC00000
00000FFFFFFFC00000
00000FFFFFFFC00000
00000FFFFFFFC00000
003FF00000003FF000
003FF00000003FF000
003FF00000003FF000
003FF00000003FF000
003FF00000003FF000
003FF00000003FF000
003FF00000003FF000
003FF00000003FF000
003FF00000003FF000
003FF00000003FF000
FFC000000000000FFC
FFC000000000000FFC
FFC000000000000FFC
FFC000000000000FFC
FFC000000000000FFC
FFC000000000000FFC
FFC000000000000FFC
FFC000000000000FFC
FFC000000000000FFC
FFC000000000000FFC
FFC000000000000FFC
FFC000000000000FFC
FFC000000000000FFC
FFC000000000000FFC
FFC000000000000FFC
FFC000000000000FFC
FFC000000000000FFC
FFC000000000000FFC
FFC000000000000FFC
FFC000000000000FFC
FFC000000000000FFC
FFC000000000000FFC
FFC000000000000FFC
FFC000000000000FFC
FFC000000000000FFC
FFC000000000000FFC
FFC000000000000FFC
FFC000000000000FFC
FFC000000000000FFC
FFC000000000000FFC
FFC000000000000FFC
FFC000000000000FFC
FFC000000000000FFC
FFC000000000000FFC
FFC000000000000FFC
FFC000000000000FFC
FFC000000000000FFC
FFC000000000000FFC
FFC000000000000FFC
FFC000000000000FFC
FFC000000000000FFC
FFC000000000000FFC
FFC000000000000FFC
FFC000000000000FFC
FFC000000000000FFC
FFC000000000000FFC
FFC000000000000FFC
FFC000000000000FFC
FFC000000000000FFC
FFC000000000000FFC
003FF00000003FF000
003FF00000003FF000
003FF00000003FF000
003FF00000003FF000
003FF00000003FF000
003FF00000003FF000
003FF00000003FF000
003FF00000003FF000
003FF00000003FF000
003FF00000003FF000
00000FFFFFFFC00000
00000FFFFFFFC00000
00000FFFFFFFC00000
00000FFFFFFFC00000
00000FFFFFFFC00000
00000FFFFFFFC00000
00000FFFFFFFC00000
00000FFFFFFFC00000
00000FFFFFFFC00000
00000FFFFFFFC00000
ENDCHAR
STARTCHAR Ocircumflex
ENCODING 212
SWIDTH 750 0
DWIDTH 90 0
BBX 70 120 10 0
BITMAP
00000003FF00000000
00000003FF00000000
00000003FF00000000
00000003FF00000000
00000003FF00000000
00000003FF00000000
00000003FF00000000
00000003FF00000000
00000003FF00000000
00000003FF00000000
00000FFC00FFC00000
00000FFC00FFC00000
00000FFC00FFC00000
00000FFC00FFC00000
00000FFC00FFC00000
00000FFC00FFC00000
00000FFC00FFC00000
00000FFC00FFC00000
00000FFC00FFC00000
00000FFC00FFC00000
000000000000000000
000000000000000000
000000000000000000
000000000000000000
000000000000000000
000000000000000000
000000000000000000
000000000000000000
000000000000000000
000000000000000000
00000FFFFFFFC00000
00000FFFFFFFC00000
00000FFFFFFFC00000
00000FFFFFFFC00000
00000FFFFFFFC00000
00000FFFFFFFC00000
00000FFFFFFFC00000
00000FFFFFFFC00000
00000FFFFFFFC00000
00000FFFFFFFC00000
003FF00000003FF000
003FF00000003FF000
003FF00000003FF000
003FF00000003FF000
003FF00000003FF000
003FF00000003FF000
003FF00000003FF000
003FF00000003FF000
003FF00000003FF000
003FF00000003FF000
FFC000000000000FFC
FFC000000000000FFC
FFC000000000000FFC
FFC000000000000FFC
FFC000000000000FFC
FFC000000000000FFC
FFC000000000000FFC
FFC000000000000FFC
FFC000000000000FFC
FFC000000000000FFC
FFC000000000000FFC
FFC000000000000FFC
FFC000000000000FFC
FFC000000000000FFC
FFC000000000000FFC
FFC000000000000FFC
FFC000000000000FFC
FFC000000000000FFC
FFC000000000000FFC
FFC000000000000FFC
FFC000000000000FFC
FFC000000000000FFC
FFC000000000000FFC
FFC000000000000FFC
FFC000000000000FFC
FFC000000000000FFC
FFC000000000000FFC
FFC000000000000FFC
FFC000000000000FFC
FFC000000000000FFC
FFC000000000000FFC
FFC000000000000FFC
FFC000000000000FFC
FFC000000000000FFC
FFC000000000000FFC
FFC000000000000FFC
FFC000000000000FFC
FFC000000000000FFC
FFC000000000000FFC
FFC000000000000FFC
FFC000000000000FFC
FFC000000000000FFC
FFC000000000000FFC
FFC000000000000FFC
FFC000000000000FFC
FFC000000000000FFC
FFC000000000000FFC
FFC000000000000FFC
FFC000000000000FFC
FFC000000000000FFC
003FF00000003FF000
003FF00000003FF000
003FF00000003FF000
003FF00000003FF000
003FF00000003FF000
003FF00000003FF000
003FF00000003FF000
003FF00000003FF000
003FF00000003FF000
003FF00000003FF000
00000FFFFFFFC00000
00000FFFFFFFC00000
00000FFFFFFFC00000
00000FFFFFFFC00000
00000FFFFFFFC00000
00000FFFFFFFC00000
00000FFFFFFFC00000
00000FFFFFFFC00000
00000FFFFFFFC00000
00000FFFFFFFC00000
ENDCHAR
STARTCHAR Otilde
ENCODING 213
SWIDTH 750 0
DWIDTH 90 0
BBX 70 120 10 0
BITMAP
00000003FF003FF000
00000003FF003FF000
00000003FF003FF000
00000003FF003FF000
00000003FF003FF000
00000003FF003FF000
00000003FF003FF000
00000003FF003FF000
00000003FF003FF000
00000003FF003FF000
00000FFC00FFC00000
00000FFC00FFC00000
00000FFC00FFC00000
00000FFC00FFC00000
00000FFC00FFC00000
00000FFC00FFC00000
00000FFC00FFC00000
00000FFC00FFC00000
00000FFC00FFC00000
00000FFC00FFC00000
000000000000000000
000000000000000000
000000000000000000
000000000000000000
000000000000000000
000000000000000000
000000000000000000
000000000000000000
000000000000000000
000000000000000000
00000FFFFFFFC00000
00000FFFFFFFC00000
00000FFFFFFFC00000
00000FFFFFFFC00000
00000FFFFFFFC00000
00000FFFFFFFC00000
00000FFFFFFFC00000
00000FFFFFFFC00000
00000FFFFFFFC00000
00000FFFFFFFC00000
003FF00000003FF000
003FF00000003FF000
003FF00000003FF000
003FF00000003FF000
003FF00000003FF000
003FF00000003FF000
003FF00000003FF000
003FF00000003FF000
003FF00000003FF000
003FF00000003FF000
FFC000000000000FFC
FFC000000000000FFC
FFC000000000000FFC
FFC000000000000FFC
FFC000000000000FFC
FFC000000000000FFC
FFC000000000000FFC
FFC000000000000FFC
FFC000000000000FFC
FFC000000000000FFC
FFC000000000000FFC
FFC000000000000FFC
FFC000000000000FFC
FFC000000000000FFC
FFC000000000000FFC
FFC000000000000FFC
FFC000000000000FFC
FFC000000000000FFC
FFC000000000000FFC
FFC000000000000FFC
FFC000000000000FFC
FFC000000000000FFC
FFC000000000000FFC
FFC000000000000FFC
FFC000000000000FFC
FFC000000000000FFC
FFC000000000000FFC
FFC000000000000FFC
FFC000000000000FFC
FFC000000000000FFC
FFC000000000000FFC
FFC000000000000FFC
FFC000000000000FFC
FFC000000000000FFC
FFC000000000000FFC
FFC000000000000FFC
FFC000000000000FFC
FFC000000000000FFC
FFC000000000000FFC
FFC000000000000FFC
FFC000000000000FFC
FFC000000000000FFC
FFC000000000000FFC
FFC000000000000FFC
FFC000000000000FFC
FFC000000000000FFC
FFC000000000000FFC
FFC000000000000FFC
FFC000000000000FFC
FFC000000000000FFC
003FF00000003FF000
003FF00000003FF000
003FF00000003FF000
003FF00000003FF000
003FF00000003FF000
003FF00000003FF000
003FF00000003FF000
003FF00000003FF000
003FF00000003FF000
003FF00000003FF000
00000FFFFFFFC00000
00000FFFFFFFC00000
00000FFFFFFFC00000
00000FFFFFFFC00000
00000FFFFFFFC00000
00000FFFFFFFC00000
00000FFFFFFFC00000
00000FFFFFFFC00000
00000FFFFFFFC00000
00000FFFFFFFC00000
ENDCHAR
STARTCHAR Odieresis
ENCODING 214
SWIDTH 750 0
DWIDTH 90 0
BBX 70 110 10 0
BITMAP
00000FFC00FFC00000
00000FFC00FFC00000
00000FFC00FFC00000
00000FFC00FFC00000
00000FFC00FFC00000
00000FFC00FFC00000
00000FFC00FFC00000
00000FFC00FFC00000
00000FFC00FFC00000
00000FFC00FFC00000
000000000000000000
000000000000000000
000000000000000000
000000000000000000
000000000000000000
000000000000000000
000000000000000000
000000000000000000
000000000000000000
000000000000000000
00000FFFFFFFC00000
00000FFFFFFFC00000
00000FFFFFFFC00000
00000FFFFFFFC00000
00000FFFFFFFC00000
00000FFFFFFFC00000
00000FFFFFFFC00000
00000FFFFFFFC00000
00000FFFFFFFC00000
00000FFFFFFFC00000
003FF00000003FF000
003FF00000003FF000
003FF00000003FF000
003FF00000003FF000
003FF00000003FF000
003FF00000003FF000
003FF00000003FF000
003FF00000003FF000
003FF00000003FF000
003FF00000003FF000
FFC000000000000FFC
FFC000000000000FFC
FFC000000000000FFC
FFC000000000000FFC
FFC000000000000FFC
FFC000000000000FFC
FFC000000000000FFC
FFC000000000000FFC
FFC000000000000FFC
FFC000000000000FFC
FFC000000000000FFC
FFC000000000000FFC
FFC000000000000FFC
FFC000000000000FFC
FFC000000000000FFC
FFC000000000000FFC
FFC000000000000FFC
FFC000000000000FFC
FFC000000000000FFC
FFC000000000000FFC
FFC000000000000FFC
FFC000000000000FFC
FFC000000000000FFC
FFC000000000000FFC
FFC000000000000FFC
FFC000000000000FFC
FFC000000000000FFC
FFC000000000000FFC
FFC000000000000FFC
FFC000000000000FFC
FFC000000000000FFC
FFC000000000000FFC
FFC000000000000FFC
FFC000000000000FFC
FFC000000000000FFC
FFC000000000000FFC
FFC000000000000FFC
FFC000000000000FFC
FFC000000000000FFC
FFC000000000000FFC
FFC000000000000FFC
FFC000000000000FFC
FFC000000000000FFC
FFC000000000000FFC
FFC000000000000FFC
FFC000000000000FFC
FFC000000000000FFC
FFC000000000000FFC
FFC000000000000FFC
FFC000000000000FFC
003FF00000003FF000
003FF00000003FF000
003FF00000003FF000
003FF00000003FF000
003FF00000003FF000
003FF00000003FF000
003FF00000003FF000
003FF00000003FF000
003FF00000003FF000
003FF00000003FF000
00000FFFFFFFC00000
00000FFFFFFFC00000
00000FFFFFFFC00000
00000FFFFFFFC00000
00000FFFFFFFC00000
00000FFFFFFFC00000
00000FFFFFFFC00000
00000FFFFFFFC00000
00000FFFFFFFC00000
00000FFFFFFFC00000
ENDCHAR
ENDFONT
